<svg width="940" height="482" viewBox="0 0 940 482" fill="none" xmlns="http://www.w3.org/2000/svg">
<rect x="4.35046" y="15.0141" width="928" height="460" fill="#73818C"/>
<g filter="url(#filter0_d)">
<path d="M933.865 277.786L895.413 241.476C856.958 205.503 780.058 132.376 702.922 91.5642C625.79 50.2465 548.422 41.2448 470.798 67.4278C393.17 94.1171 315.286 155.991 237.593 191.709C159.899 227.426 82.4088 235.3 43.6592 239.827L4.9121 244.017L6.68251 1.01441L45.3971 1.29647C84.1116 1.57852 161.541 2.14264 238.97 2.70675C316.399 3.27087 393.828 3.83498 471.257 4.39909C548.686 4.96321 626.115 5.52732 703.544 6.09144C780.974 6.65555 858.403 7.21966 897.117 7.50172L935.832 7.78378L933.865 277.786Z" fill="#5B73EA"/>
</g>
<path d="M328.511 191.87L316.186 191.87L316.186 201.948L330.503 201.948L330.503 205.014L312.436 205.014L312.436 176.577L330.307 176.577L330.307 179.663L316.186 179.663L316.186 188.803L328.511 188.803L328.511 191.87ZM341.694 191.596L346.382 183.881L350.6 183.881L343.686 194.331L350.815 205.014L346.636 205.014L341.753 197.104L336.87 205.014L332.671 205.014L339.8 194.331L332.886 183.881L337.065 183.881L341.694 191.596ZM372.3 194.682C372.3 197.898 371.564 200.489 370.093 202.456C368.621 204.422 366.629 205.405 364.116 205.405C361.551 205.405 359.533 204.591 358.061 202.963L358.061 213.139L354.448 213.139L354.448 183.881L357.749 183.881L357.925 186.225C359.396 184.402 361.44 183.491 364.057 183.491C366.597 183.491 368.602 184.448 370.073 186.362C371.557 188.276 372.3 190.939 372.3 194.35L372.3 194.682ZM368.686 194.272C368.686 191.889 368.179 190.008 367.163 188.627C366.147 187.247 364.754 186.557 362.983 186.557C360.796 186.557 359.155 187.527 358.061 189.467L358.061 199.565C359.142 201.492 360.796 202.456 363.022 202.456C364.754 202.456 366.128 201.772 367.143 200.405C368.172 199.025 368.686 196.98 368.686 194.272ZM385.679 205.405C382.814 205.405 380.483 204.467 378.686 202.592C376.89 200.704 375.991 198.185 375.991 195.034L375.991 194.37C375.991 192.273 376.388 190.405 377.182 188.764C377.99 187.111 379.11 185.821 380.542 184.897C381.987 183.96 383.55 183.491 385.229 183.491C387.977 183.491 390.112 184.396 391.636 186.206C393.159 188.016 393.921 190.607 393.921 193.979L393.921 195.483L379.604 195.483C379.656 197.566 380.262 199.252 381.421 200.542C382.593 201.818 384.077 202.456 385.874 202.456C387.15 202.456 388.231 202.195 389.116 201.674C390.002 201.154 390.776 200.463 391.44 199.604L393.647 201.323C391.877 204.044 389.22 205.405 385.679 205.405ZM385.229 186.46C383.771 186.46 382.547 186.993 381.557 188.061C380.568 189.116 379.956 190.6 379.722 192.514L390.307 192.514L390.307 192.241C390.203 190.405 389.709 188.986 388.823 187.983C387.938 186.967 386.74 186.46 385.229 186.46ZM401.538 183.881L401.655 186.538C403.27 184.506 405.379 183.491 407.983 183.491C412.449 183.491 414.702 186.01 414.741 191.049L414.741 205.014L411.128 205.014L411.128 191.03C411.115 189.506 410.763 188.38 410.073 187.651C409.396 186.922 408.335 186.557 406.89 186.557C405.718 186.557 404.689 186.87 403.804 187.495C402.918 188.12 402.228 188.94 401.733 189.956L401.733 205.014L398.12 205.014L398.12 183.881L401.538 183.881ZM432.495 199.409C432.495 198.432 432.124 197.677 431.382 197.143C430.653 196.596 429.37 196.127 427.534 195.737C425.711 195.346 424.259 194.877 423.179 194.331C422.111 193.784 421.317 193.133 420.796 192.377C420.288 191.622 420.034 190.724 420.034 189.682C420.034 187.95 420.763 186.486 422.222 185.288C423.693 184.09 425.568 183.491 427.847 183.491C430.242 183.491 432.182 184.109 433.667 185.346C435.164 186.583 435.913 188.165 435.913 190.092L432.28 190.092C432.28 189.103 431.857 188.25 431.011 187.534C430.177 186.818 429.123 186.46 427.847 186.46C426.531 186.46 425.503 186.746 424.761 187.319C424.018 187.892 423.647 188.641 423.647 189.565C423.647 190.437 423.992 191.095 424.682 191.538C425.373 191.98 426.616 192.404 428.413 192.807C430.223 193.211 431.688 193.693 432.807 194.252C433.927 194.812 434.754 195.489 435.288 196.284C435.835 197.065 436.108 198.022 436.108 199.155C436.108 201.043 435.353 202.56 433.843 203.706C432.332 204.838 430.373 205.405 427.964 205.405C426.271 205.405 424.774 205.105 423.472 204.506C422.169 203.907 421.147 203.074 420.405 202.006C419.676 200.926 419.311 199.76 419.311 198.51L422.925 198.51C422.99 199.721 423.472 200.685 424.37 201.401C425.281 202.104 426.479 202.456 427.964 202.456C429.331 202.456 430.425 202.182 431.245 201.635C432.078 201.075 432.495 200.333 432.495 199.409ZM449.585 205.405C446.72 205.405 444.39 204.467 442.593 202.592C440.796 200.704 439.897 198.185 439.897 195.034L439.897 194.37C439.897 192.273 440.294 190.405 441.089 188.764C441.896 187.111 443.016 185.821 444.448 184.897C445.893 183.96 447.456 183.491 449.136 183.491C451.883 183.491 454.018 184.396 455.542 186.206C457.065 188.016 457.827 190.607 457.827 193.979L457.827 195.483L443.511 195.483C443.563 197.566 444.168 199.252 445.327 200.542C446.499 201.818 447.983 202.456 449.78 202.456C451.056 202.456 452.137 202.195 453.022 201.674C453.908 201.154 454.682 200.463 455.347 199.604L457.554 201.323C455.783 204.044 453.127 205.405 449.585 205.405ZM449.136 186.46C447.677 186.46 446.453 186.993 445.464 188.061C444.474 189.116 443.862 190.6 443.628 192.514L454.214 192.514L454.214 192.241C454.11 190.405 453.615 188.986 452.729 187.983C451.844 186.967 450.646 186.46 449.136 186.46ZM477.358 176.577L486.655 199.78L495.952 176.577L500.815 176.577L500.815 205.014L497.065 205.014L497.065 193.94L497.417 181.987L488.081 205.014L485.21 205.014L475.893 182.045L476.265 193.94L476.265 205.014L472.515 205.014L472.515 176.577L477.358 176.577ZM519.917 205.014C519.709 204.598 519.539 203.855 519.409 202.788C517.729 204.532 515.724 205.405 513.393 205.405C511.31 205.405 509.598 204.819 508.257 203.647C506.929 202.462 506.265 200.965 506.265 199.155C506.265 196.954 507.098 195.249 508.765 194.038C510.444 192.814 512.801 192.202 515.835 192.202L519.35 192.202L519.35 190.542C519.35 189.279 518.973 188.276 518.218 187.534C517.462 186.779 516.349 186.401 514.878 186.401C513.589 186.401 512.508 186.726 511.636 187.377C510.763 188.029 510.327 188.816 510.327 189.741L506.694 189.741C506.694 188.686 507.065 187.67 507.807 186.694C508.563 185.704 509.578 184.923 510.854 184.35C512.143 183.777 513.556 183.491 515.093 183.491C517.528 183.491 519.435 184.103 520.815 185.327C522.196 186.538 522.912 188.211 522.964 190.346L522.964 200.073C522.964 202.013 523.211 203.556 523.706 204.702L523.706 205.014L519.917 205.014ZM513.921 202.26C515.054 202.26 516.128 201.967 517.143 201.381C518.159 200.795 518.895 200.034 519.35 199.096L519.35 194.76L516.518 194.76C512.091 194.76 509.878 196.056 509.878 198.647C509.878 199.78 510.255 200.665 511.011 201.303C511.766 201.941 512.736 202.26 513.921 202.26ZM532.046 183.881L532.163 186.538C533.778 184.506 535.887 183.491 538.491 183.491C542.957 183.491 545.21 186.01 545.249 191.049L545.249 205.014L541.636 205.014L541.636 191.03C541.623 189.506 541.271 188.38 540.581 187.651C539.904 186.922 538.843 186.557 537.397 186.557C536.225 186.557 535.197 186.87 534.311 187.495C533.426 188.12 532.736 188.94 532.241 189.956L532.241 205.014L528.628 205.014L528.628 183.881L532.046 183.881ZM563.745 205.014C563.537 204.598 563.367 203.855 563.237 202.788C561.557 204.532 559.552 205.405 557.222 205.405C555.138 205.405 553.426 204.819 552.085 203.647C550.757 202.462 550.093 200.965 550.093 199.155C550.093 196.954 550.926 195.249 552.593 194.038C554.272 192.814 556.629 192.202 559.663 192.202L563.179 192.202L563.179 190.542C563.179 189.279 562.801 188.276 562.046 187.534C561.291 186.779 560.177 186.401 558.706 186.401C557.417 186.401 556.336 186.726 555.464 187.377C554.591 188.029 554.155 188.816 554.155 189.741L550.522 189.741C550.522 188.686 550.893 187.67 551.636 186.694C552.391 185.704 553.406 184.923 554.682 184.35C555.972 183.777 557.384 183.491 558.921 183.491C561.356 183.491 563.263 184.103 564.643 185.327C566.024 186.538 566.74 188.211 566.792 190.346L566.792 200.073C566.792 202.013 567.039 203.556 567.534 204.702L567.534 205.014L563.745 205.014ZM557.749 202.26C558.882 202.26 559.956 201.967 560.972 201.381C561.987 200.795 562.723 200.034 563.179 199.096L563.179 194.76L560.347 194.76C555.919 194.76 553.706 196.056 553.706 198.647C553.706 199.78 554.084 200.665 554.839 201.303C555.594 201.941 556.564 202.26 557.749 202.26ZM571.597 194.272C571.597 190.978 572.358 188.361 573.882 186.42C575.405 184.467 577.423 183.491 579.936 183.491C582.515 183.491 584.526 184.402 585.972 186.225L586.147 183.881L589.448 183.881L589.448 204.506C589.448 207.241 588.634 209.396 587.007 210.971C585.392 212.547 583.218 213.335 580.483 213.335C578.96 213.335 577.469 213.009 576.011 212.358C574.552 211.707 573.439 210.815 572.671 209.682L574.546 207.514C576.095 209.428 577.99 210.385 580.229 210.385C581.987 210.385 583.354 209.891 584.331 208.901C585.321 207.911 585.815 206.518 585.815 204.721L585.815 202.905C584.37 204.571 582.397 205.405 579.897 205.405C577.423 205.405 575.418 204.409 573.882 202.417C572.358 200.424 571.597 197.71 571.597 194.272ZM575.229 194.682C575.229 197.065 575.718 198.94 576.694 200.307C577.671 201.661 579.038 202.338 580.796 202.338C583.074 202.338 584.748 201.303 585.815 199.233L585.815 189.585C584.709 187.566 583.048 186.557 580.835 186.557C579.077 186.557 577.703 187.241 576.714 188.608C575.724 189.975 575.229 192 575.229 194.682ZM603.686 205.405C600.822 205.405 598.491 204.467 596.694 202.592C594.897 200.704 593.999 198.185 593.999 195.034L593.999 194.37C593.999 192.273 594.396 190.405 595.19 188.764C595.998 187.111 597.117 185.821 598.55 184.897C599.995 183.96 601.557 183.491 603.237 183.491C605.985 183.491 608.12 184.396 609.643 186.206C611.167 188.016 611.929 190.607 611.929 193.979L611.929 195.483L597.612 195.483C597.664 197.566 598.27 199.252 599.429 200.542C600.6 201.818 602.085 202.456 603.882 202.456C605.158 202.456 606.238 202.195 607.124 201.674C608.009 201.154 608.784 200.463 609.448 199.604L611.655 201.323C609.884 204.044 607.228 205.405 603.686 205.405ZM603.237 186.46C601.779 186.46 600.555 186.993 599.565 188.061C598.576 189.116 597.964 190.6 597.729 192.514L608.315 192.514L608.315 192.241C608.211 190.405 607.716 188.986 606.831 187.983C605.946 186.967 604.748 186.46 603.237 186.46ZM626.343 187.124C625.796 187.032 625.203 186.987 624.565 186.987C622.196 186.987 620.587 187.996 619.741 190.014L619.741 205.014L616.128 205.014L616.128 183.881L619.643 183.881L619.702 186.323C620.887 184.435 622.567 183.491 624.741 183.491C625.444 183.491 625.978 183.582 626.343 183.764L626.343 187.124ZM648.55 192.338C645.334 191.414 642.99 190.281 641.518 188.94C640.06 187.586 639.331 185.919 639.331 183.94C639.331 181.7 640.223 179.851 642.007 178.393C643.804 176.922 646.134 176.186 648.999 176.186C650.952 176.186 652.69 176.564 654.214 177.319C655.75 178.074 656.935 179.116 657.768 180.444C658.615 181.772 659.038 183.224 659.038 184.799L655.268 184.799C655.268 183.081 654.722 181.733 653.628 180.756C652.534 179.767 650.991 179.272 648.999 179.272C647.15 179.272 645.705 179.682 644.663 180.502C643.634 181.31 643.12 182.436 643.12 183.881C643.12 185.04 643.608 186.023 644.585 186.831C645.574 187.625 647.248 188.354 649.604 189.018C651.974 189.682 653.823 190.418 655.151 191.225C656.492 192.019 657.482 192.95 658.12 194.018C658.771 195.086 659.097 196.342 659.097 197.788C659.097 200.092 658.198 201.941 656.401 203.335C654.604 204.715 652.202 205.405 649.194 205.405C647.241 205.405 645.418 205.034 643.725 204.292C642.033 203.536 640.724 202.508 639.8 201.206C638.888 199.904 638.432 198.426 638.432 196.772L642.202 196.772C642.202 198.491 642.834 199.851 644.097 200.854C645.373 201.844 647.072 202.338 649.194 202.338C651.173 202.338 652.69 201.935 653.745 201.127C654.8 200.32 655.327 199.22 655.327 197.827C655.327 196.433 654.839 195.359 653.862 194.604C652.886 193.836 651.115 193.081 648.55 192.338ZM670.268 199.721L675.19 183.881L679.057 183.881L670.561 208.276C669.246 211.792 667.156 213.549 664.292 213.549L663.608 213.491L662.261 213.237L662.261 210.307L663.237 210.385C664.461 210.385 665.412 210.138 666.089 209.643C666.779 209.148 667.345 208.243 667.788 206.928L668.589 204.78L661.05 183.881L664.995 183.881L670.268 199.721ZM694.604 199.409C694.604 198.432 694.233 197.677 693.491 197.143C692.762 196.596 691.479 196.127 689.643 195.737C687.821 195.346 686.369 194.877 685.288 194.331C684.22 193.784 683.426 193.133 682.905 192.377C682.397 191.622 682.143 190.724 682.143 189.682C682.143 187.95 682.873 186.486 684.331 185.288C685.802 184.09 687.677 183.491 689.956 183.491C692.352 183.491 694.292 184.109 695.776 185.346C697.274 186.583 698.022 188.165 698.022 190.092L694.39 190.092C694.39 189.103 693.966 188.25 693.12 187.534C692.287 186.818 691.232 186.46 689.956 186.46C688.641 186.46 687.612 186.746 686.87 187.319C686.128 187.892 685.757 188.641 685.757 189.565C685.757 190.437 686.102 191.095 686.792 191.538C687.482 191.98 688.725 192.404 690.522 192.807C692.332 193.211 693.797 193.693 694.917 194.252C696.037 194.812 696.863 195.489 697.397 196.284C697.944 197.065 698.218 198.022 698.218 199.155C698.218 201.043 697.462 202.56 695.952 203.706C694.442 204.838 692.482 205.405 690.073 205.405C688.38 205.405 686.883 205.105 685.581 204.506C684.279 203.907 683.257 203.074 682.515 202.006C681.785 200.926 681.421 199.76 681.421 198.51L685.034 198.51C685.099 199.721 685.581 200.685 686.479 201.401C687.391 202.104 688.589 202.456 690.073 202.456C691.44 202.456 692.534 202.182 693.354 201.635C694.188 201.075 694.604 200.333 694.604 199.409ZM707.827 178.764L707.827 183.881L711.772 183.881L711.772 186.674L707.827 186.674L707.827 199.78C707.827 200.626 708.003 201.264 708.354 201.694C708.706 202.111 709.305 202.319 710.151 202.319C710.568 202.319 711.141 202.241 711.87 202.085L711.87 205.014C710.919 205.275 709.995 205.405 709.097 205.405C707.482 205.405 706.265 204.917 705.444 203.94C704.624 202.963 704.214 201.577 704.214 199.78L704.214 186.674L700.366 186.674L700.366 183.881L704.214 183.881L704.214 178.764L707.827 178.764ZM724.78 205.405C721.916 205.405 719.585 204.467 717.788 202.592C715.991 200.704 715.093 198.185 715.093 195.034L715.093 194.37C715.093 192.273 715.49 190.405 716.284 188.764C717.091 187.111 718.211 185.821 719.643 184.897C721.089 183.96 722.651 183.491 724.331 183.491C727.078 183.491 729.214 184.396 730.737 186.206C732.261 188.016 733.022 190.607 733.022 193.979L733.022 195.483L718.706 195.483C718.758 197.566 719.363 199.252 720.522 200.542C721.694 201.818 723.179 202.456 724.975 202.456C726.252 202.456 727.332 202.195 728.218 201.674C729.103 201.154 729.878 200.463 730.542 199.604L732.749 201.323C730.978 204.044 728.322 205.405 724.78 205.405ZM724.331 186.46C722.873 186.46 721.649 186.993 720.659 188.061C719.669 189.116 719.057 190.6 718.823 192.514L729.409 192.514L729.409 192.241C729.305 190.405 728.81 188.986 727.925 187.983C727.039 186.967 725.841 186.46 724.331 186.46ZM740.62 183.881L740.718 186.225C742.267 184.402 744.357 183.491 746.987 183.491C749.943 183.491 751.955 184.624 753.022 186.889C753.725 185.874 754.637 185.053 755.757 184.428C756.89 183.803 758.224 183.491 759.761 183.491C764.396 183.491 766.753 185.945 766.831 190.854L766.831 205.014L763.218 205.014L763.218 191.069C763.218 189.558 762.873 188.432 762.182 187.69C761.492 186.935 760.334 186.557 758.706 186.557C757.365 186.557 756.252 186.961 755.366 187.768C754.481 188.562 753.966 189.637 753.823 190.991L753.823 205.014L750.19 205.014L750.19 191.167C750.19 188.094 748.686 186.557 745.679 186.557C743.309 186.557 741.688 187.566 740.815 189.585L740.815 205.014L737.202 205.014L737.202 183.881L740.62 183.881ZM506.655 249.924C505.249 251.578 503.185 252.405 500.464 252.405C498.211 252.405 496.492 251.754 495.307 250.452C494.136 249.137 493.543 247.196 493.53 244.631L493.53 230.881L497.143 230.881L497.143 244.534C497.143 247.737 498.446 249.338 501.05 249.338C503.81 249.338 505.646 248.31 506.557 246.252L506.557 230.881L510.171 230.881L510.171 252.014L506.733 252.014L506.655 249.924ZM527.983 246.409C527.983 245.432 527.612 244.677 526.87 244.143C526.141 243.596 524.858 243.127 523.022 242.737C521.199 242.346 519.748 241.877 518.667 241.331C517.599 240.784 516.805 240.133 516.284 239.377C515.776 238.622 515.522 237.724 515.522 236.682C515.522 234.95 516.252 233.486 517.71 232.288C519.181 231.09 521.056 230.491 523.335 230.491C525.731 230.491 527.671 231.109 529.155 232.346C530.653 233.583 531.401 235.165 531.401 237.092L527.768 237.092C527.768 236.103 527.345 235.25 526.499 234.534C525.666 233.818 524.611 233.46 523.335 233.46C522.02 233.46 520.991 233.746 520.249 234.319C519.507 234.892 519.136 235.641 519.136 236.565C519.136 237.437 519.481 238.095 520.171 238.538C520.861 238.98 522.104 239.404 523.901 239.807C525.711 240.211 527.176 240.693 528.296 241.252C529.416 241.812 530.242 242.489 530.776 243.284C531.323 244.065 531.597 245.022 531.597 246.155C531.597 248.043 530.841 249.56 529.331 250.706C527.821 251.838 525.861 252.405 523.452 252.405C521.759 252.405 520.262 252.105 518.96 251.506C517.658 250.907 516.636 250.074 515.893 249.006C515.164 247.926 514.8 246.76 514.8 245.51L518.413 245.51C518.478 246.721 518.96 247.685 519.858 248.401C520.77 249.104 521.968 249.456 523.452 249.456C524.819 249.456 525.913 249.182 526.733 248.635C527.567 248.075 527.983 247.333 527.983 246.409ZM540.229 252.014L536.616 252.014L536.616 230.881L540.229 230.881L540.229 252.014ZM536.323 225.276C536.323 224.69 536.499 224.195 536.85 223.792C537.215 223.388 537.749 223.186 538.452 223.186C539.155 223.186 539.689 223.388 540.054 223.792C540.418 224.195 540.6 224.69 540.6 225.276C540.6 225.862 540.418 226.35 540.054 226.741C539.689 227.131 539.155 227.327 538.452 227.327C537.749 227.327 537.215 227.131 536.85 226.741C536.499 226.35 536.323 225.862 536.323 225.276ZM549.448 230.881L549.565 233.538C551.18 231.506 553.289 230.491 555.893 230.491C560.36 230.491 562.612 233.01 562.651 238.049L562.651 252.014L559.038 252.014L559.038 238.03C559.025 236.506 558.673 235.38 557.983 234.651C557.306 233.922 556.245 233.557 554.8 233.557C553.628 233.557 552.599 233.87 551.714 234.495C550.828 235.12 550.138 235.94 549.643 236.956L549.643 252.014L546.03 252.014L546.03 230.881L549.448 230.881ZM567.241 241.272C567.241 237.978 568.003 235.361 569.526 233.42C571.05 231.467 573.068 230.491 575.581 230.491C578.159 230.491 580.171 231.402 581.616 233.225L581.792 230.881L585.093 230.881L585.093 251.506C585.093 254.241 584.279 256.396 582.651 257.971C581.037 259.547 578.862 260.335 576.128 260.335C574.604 260.335 573.113 260.009 571.655 259.358C570.197 258.707 569.084 257.815 568.315 256.682L570.19 254.514C571.74 256.428 573.634 257.385 575.874 257.385C577.632 257.385 578.999 256.891 579.975 255.901C580.965 254.911 581.46 253.518 581.46 251.721L581.46 249.905C580.015 251.571 578.042 252.405 575.542 252.405C573.068 252.405 571.063 251.409 569.526 249.417C568.003 247.424 567.241 244.71 567.241 241.272ZM570.874 241.682C570.874 244.065 571.362 245.94 572.339 247.307C573.315 248.661 574.682 249.338 576.44 249.338C578.719 249.338 580.392 248.303 581.46 246.233L581.46 236.585C580.353 234.566 578.693 233.557 576.479 233.557C574.722 233.557 573.348 234.241 572.358 235.608C571.369 236.975 570.874 239 570.874 241.682ZM371.968 287.51L365.288 287.51L365.288 299.014L361.518 299.014L361.518 270.577L370.932 270.577C374.136 270.577 376.597 271.306 378.315 272.764C380.047 274.223 380.913 276.345 380.913 279.131C380.913 280.902 380.431 282.445 379.468 283.76C378.517 285.075 377.189 286.058 375.483 286.71L382.163 298.78L382.163 299.014L378.14 299.014L371.968 287.51ZM365.288 284.444L371.05 284.444C372.912 284.444 374.39 283.962 375.483 282.999C376.59 282.035 377.143 280.746 377.143 279.131C377.143 277.374 376.616 276.026 375.561 275.088C374.52 274.151 373.009 273.676 371.03 273.663L365.288 273.663L365.288 284.444ZM394.39 299.405C391.525 299.405 389.194 298.467 387.397 296.592C385.6 294.704 384.702 292.185 384.702 289.034L384.702 288.37C384.702 286.273 385.099 284.405 385.893 282.764C386.701 281.111 387.821 279.821 389.253 278.897C390.698 277.96 392.261 277.491 393.94 277.491C396.688 277.491 398.823 278.396 400.347 280.206C401.87 282.016 402.632 284.607 402.632 287.979L402.632 289.483L388.315 289.483C388.367 291.566 388.973 293.252 390.132 294.542C391.304 295.818 392.788 296.456 394.585 296.456C395.861 296.456 396.942 296.195 397.827 295.674C398.712 295.154 399.487 294.463 400.151 293.604L402.358 295.323C400.587 298.044 397.931 299.405 394.39 299.405ZM393.94 280.46C392.482 280.46 391.258 280.993 390.268 282.061C389.279 283.116 388.667 284.6 388.432 286.514L399.018 286.514L399.018 286.241C398.914 284.405 398.419 282.986 397.534 281.983C396.649 280.967 395.451 280.46 393.94 280.46ZM419.878 299.014C419.669 298.598 419.5 297.855 419.37 296.788C417.69 298.532 415.685 299.405 413.354 299.405C411.271 299.405 409.559 298.819 408.218 297.647C406.89 296.462 406.225 294.965 406.225 293.155C406.225 290.954 407.059 289.249 408.725 288.038C410.405 286.814 412.762 286.202 415.796 286.202L419.311 286.202L419.311 284.542C419.311 283.279 418.934 282.276 418.179 281.534C417.423 280.779 416.31 280.401 414.839 280.401C413.55 280.401 412.469 280.726 411.597 281.377C410.724 282.029 410.288 282.816 410.288 283.741L406.655 283.741C406.655 282.686 407.026 281.67 407.768 280.694C408.524 279.704 409.539 278.923 410.815 278.35C412.104 277.777 413.517 277.491 415.054 277.491C417.488 277.491 419.396 278.103 420.776 279.327C422.156 280.538 422.873 282.211 422.925 284.346L422.925 294.073C422.925 296.013 423.172 297.556 423.667 298.702L423.667 299.014L419.878 299.014ZM413.882 296.26C415.015 296.26 416.089 295.967 417.104 295.381C418.12 294.795 418.856 294.034 419.311 293.096L419.311 288.76L416.479 288.76C412.052 288.76 409.839 290.056 409.839 292.647C409.839 293.78 410.216 294.665 410.972 295.303C411.727 295.941 412.697 296.26 413.882 296.26ZM437.065 296.456C438.354 296.456 439.481 296.065 440.444 295.284C441.408 294.502 441.942 293.526 442.046 292.354L445.464 292.354C445.399 293.565 444.982 294.717 444.214 295.811C443.446 296.905 442.417 297.777 441.128 298.428C439.852 299.079 438.498 299.405 437.065 299.405C434.188 299.405 431.896 298.448 430.19 296.534C428.498 294.607 427.651 291.976 427.651 288.643L427.651 288.038C427.651 285.98 428.029 284.151 428.784 282.549C429.539 280.948 430.62 279.704 432.026 278.819C433.446 277.933 435.119 277.491 437.046 277.491C439.416 277.491 441.382 278.2 442.944 279.62C444.52 281.039 445.36 282.881 445.464 285.147L442.046 285.147C441.942 283.78 441.421 282.66 440.483 281.788C439.559 280.902 438.413 280.46 437.046 280.46C435.21 280.46 433.784 281.124 432.768 282.452C431.766 283.767 431.265 285.674 431.265 288.174L431.265 288.858C431.265 291.293 431.766 293.168 432.768 294.483C433.771 295.798 435.203 296.456 437.065 296.456ZM454.429 272.764L454.429 277.881L458.374 277.881L458.374 280.674L454.429 280.674L454.429 293.78C454.429 294.626 454.604 295.264 454.956 295.694C455.307 296.111 455.906 296.319 456.753 296.319C457.169 296.319 457.742 296.241 458.472 296.085L458.472 299.014C457.521 299.275 456.597 299.405 455.698 299.405C454.084 299.405 452.866 298.917 452.046 297.94C451.225 296.963 450.815 295.577 450.815 293.78L450.815 280.674L446.968 280.674L446.968 277.881L450.815 277.881L450.815 272.764L454.429 272.764ZM485.581 299.014C485.373 298.598 485.203 297.855 485.073 296.788C483.393 298.532 481.388 299.405 479.057 299.405C476.974 299.405 475.262 298.819 473.921 297.647C472.593 296.462 471.929 294.965 471.929 293.155C471.929 290.954 472.762 289.249 474.429 288.038C476.108 286.814 478.465 286.202 481.499 286.202L485.015 286.202L485.015 284.542C485.015 283.279 484.637 282.276 483.882 281.534C483.127 280.779 482.013 280.401 480.542 280.401C479.253 280.401 478.172 280.726 477.3 281.377C476.427 282.029 475.991 282.816 475.991 283.741L472.358 283.741C472.358 282.686 472.729 281.67 473.472 280.694C474.227 279.704 475.242 278.923 476.518 278.35C477.807 277.777 479.22 277.491 480.757 277.491C483.192 277.491 485.099 278.103 486.479 279.327C487.86 280.538 488.576 282.211 488.628 284.346L488.628 294.073C488.628 296.013 488.875 297.556 489.37 298.702L489.37 299.014L485.581 299.014ZM479.585 296.26C480.718 296.26 481.792 295.967 482.807 295.381C483.823 294.795 484.559 294.034 485.015 293.096L485.015 288.76L482.182 288.76C477.755 288.76 475.542 290.056 475.542 292.647C475.542 293.78 475.919 294.665 476.675 295.303C477.43 295.941 478.4 296.26 479.585 296.26ZM497.71 277.881L497.827 280.538C499.442 278.506 501.551 277.491 504.155 277.491C508.621 277.491 510.874 280.01 510.913 285.049L510.913 299.014L507.3 299.014L507.3 285.03C507.287 283.506 506.935 282.38 506.245 281.651C505.568 280.922 504.507 280.557 503.061 280.557C501.89 280.557 500.861 280.87 499.975 281.495C499.09 282.12 498.4 282.94 497.905 283.956L497.905 299.014L494.292 299.014L494.292 277.881L497.71 277.881ZM515.483 288.272C515.483 285.03 516.252 282.426 517.788 280.46C519.324 278.48 521.336 277.491 523.823 277.491C526.297 277.491 528.257 278.337 529.702 280.03L529.702 269.014L533.315 269.014L533.315 299.014L529.995 299.014L529.819 296.749C528.374 298.519 526.362 299.405 523.784 299.405C521.336 299.405 519.337 298.402 517.788 296.397C516.252 294.392 515.483 291.775 515.483 288.545L515.483 288.272ZM519.097 288.682C519.097 291.078 519.591 292.953 520.581 294.307C521.571 295.661 522.938 296.338 524.682 296.338C526.974 296.338 528.647 295.31 529.702 293.252L529.702 283.545C528.621 281.553 526.961 280.557 524.722 280.557C522.951 280.557 521.571 281.241 520.581 282.608C519.591 283.975 519.097 286 519.097 288.682ZM549.429 299.014L549.429 270.577L558.725 270.577C561.811 270.577 564.129 271.215 565.679 272.491C567.241 273.767 568.022 275.655 568.022 278.155C568.022 279.483 567.645 280.661 566.89 281.69C566.134 282.706 565.106 283.493 563.804 284.053C565.34 284.483 566.551 285.303 567.436 286.514C568.335 287.712 568.784 289.144 568.784 290.811C568.784 293.363 567.957 295.368 566.304 296.827C564.65 298.285 562.313 299.014 559.292 299.014L549.429 299.014ZM553.179 285.713L553.179 295.948L559.37 295.948C561.115 295.948 562.488 295.499 563.491 294.6C564.507 293.689 565.015 292.439 565.015 290.85C565.015 287.426 563.153 285.713 559.429 285.713L553.179 285.713ZM553.179 282.706L558.843 282.706C560.483 282.706 561.792 282.295 562.768 281.475C563.758 280.655 564.253 279.542 564.253 278.135C564.253 276.573 563.797 275.44 562.886 274.737C561.974 274.021 560.587 273.663 558.725 273.663L553.179 273.663L553.179 282.706ZM572.827 288.252C572.827 286.182 573.231 284.32 574.038 282.667C574.858 281.013 575.991 279.737 577.436 278.838C578.895 277.94 580.555 277.491 582.417 277.491C585.294 277.491 587.619 278.487 589.39 280.479C591.173 282.471 592.065 285.121 592.065 288.428L592.065 288.682C592.065 290.739 591.668 292.588 590.874 294.229C590.093 295.857 588.966 297.126 587.495 298.038C586.037 298.949 584.357 299.405 582.456 299.405C579.591 299.405 577.267 298.409 575.483 296.417C573.712 294.424 572.827 291.788 572.827 288.506L572.827 288.252ZM576.46 288.682C576.46 291.026 577 292.907 578.081 294.327C579.175 295.746 580.633 296.456 582.456 296.456C584.292 296.456 585.75 295.739 586.831 294.307C587.912 292.862 588.452 290.844 588.452 288.252C588.452 285.935 587.899 284.06 586.792 282.627C585.698 281.182 584.24 280.46 582.417 280.46C580.633 280.46 579.194 281.169 578.1 282.588C577.007 284.008 576.46 286.039 576.46 288.682ZM595.64 288.252C595.64 286.182 596.043 284.32 596.85 282.667C597.671 281.013 598.804 279.737 600.249 278.838C601.707 277.94 603.367 277.491 605.229 277.491C608.107 277.491 610.431 278.487 612.202 280.479C613.986 282.471 614.878 285.121 614.878 288.428L614.878 288.682C614.878 290.739 614.481 292.588 613.686 294.229C612.905 295.857 611.779 297.126 610.307 298.038C608.849 298.949 607.169 299.405 605.268 299.405C602.404 299.405 600.08 298.409 598.296 296.417C596.525 294.424 595.64 291.788 595.64 288.506L595.64 288.252ZM599.272 288.682C599.272 291.026 599.813 292.907 600.893 294.327C601.987 295.746 603.446 296.456 605.268 296.456C607.104 296.456 608.563 295.739 609.643 294.307C610.724 292.862 611.265 290.844 611.265 288.252C611.265 285.935 610.711 284.06 609.604 282.627C608.511 281.182 607.052 280.46 605.229 280.46C603.446 280.46 602.007 281.169 600.913 282.588C599.819 284.008 599.272 286.039 599.272 288.682ZM624.311 272.764L624.311 277.881L628.257 277.881L628.257 280.674L624.311 280.674L624.311 293.78C624.311 294.626 624.487 295.264 624.839 295.694C625.19 296.111 625.789 296.319 626.636 296.319C627.052 296.319 627.625 296.241 628.354 296.085L628.354 299.014C627.404 299.275 626.479 299.405 625.581 299.405C623.966 299.405 622.749 298.917 621.929 297.94C621.108 296.963 620.698 295.577 620.698 293.78L620.698 280.674L616.85 280.674L616.85 277.881L620.698 277.881L620.698 272.764L624.311 272.764ZM644.8 293.409C644.8 292.432 644.429 291.677 643.686 291.143C642.957 290.596 641.675 290.127 639.839 289.737C638.016 289.346 636.564 288.877 635.483 288.331C634.416 287.784 633.621 287.133 633.1 286.377C632.593 285.622 632.339 284.724 632.339 283.682C632.339 281.95 633.068 280.486 634.526 279.288C635.998 278.09 637.873 277.491 640.151 277.491C642.547 277.491 644.487 278.109 645.972 279.346C647.469 280.583 648.218 282.165 648.218 284.092L644.585 284.092C644.585 283.103 644.162 282.25 643.315 281.534C642.482 280.818 641.427 280.46 640.151 280.46C638.836 280.46 637.807 280.746 637.065 281.319C636.323 281.892 635.952 282.641 635.952 283.565C635.952 284.437 636.297 285.095 636.987 285.538C637.677 285.98 638.921 286.404 640.718 286.807C642.528 287.211 643.992 287.693 645.112 288.252C646.232 288.812 647.059 289.489 647.593 290.284C648.14 291.065 648.413 292.022 648.413 293.155C648.413 295.043 647.658 296.56 646.147 297.706C644.637 298.838 642.677 299.405 640.268 299.405C638.576 299.405 637.078 299.105 635.776 298.506C634.474 297.907 633.452 297.074 632.71 296.006C631.981 294.926 631.616 293.76 631.616 292.51L635.229 292.51C635.294 293.721 635.776 294.685 636.675 295.401C637.586 296.104 638.784 296.456 640.268 296.456C641.636 296.456 642.729 296.182 643.55 295.635C644.383 295.075 644.8 294.333 644.8 293.409ZM658.022 272.764L658.022 277.881L661.968 277.881L661.968 280.674L658.022 280.674L658.022 293.78C658.022 294.626 658.198 295.264 658.55 295.694C658.901 296.111 659.5 296.319 660.347 296.319C660.763 296.319 661.336 296.241 662.065 296.085L662.065 299.014C661.115 299.275 660.19 299.405 659.292 299.405C657.677 299.405 656.46 298.917 655.64 297.94C654.819 296.963 654.409 295.577 654.409 293.78L654.409 280.674L650.561 280.674L650.561 277.881L654.409 277.881L654.409 272.764L658.022 272.764ZM676.421 281.124C675.874 281.032 675.281 280.987 674.643 280.987C672.274 280.987 670.666 281.996 669.819 284.014L669.819 299.014L666.206 299.014L666.206 277.881L669.722 277.881L669.78 280.323C670.965 278.435 672.645 277.491 674.819 277.491C675.522 277.491 676.056 277.582 676.421 277.764L676.421 281.124ZM692.026 299.014C691.818 298.598 691.649 297.855 691.518 296.788C689.839 298.532 687.834 299.405 685.503 299.405C683.419 299.405 681.707 298.819 680.366 297.647C679.038 296.462 678.374 294.965 678.374 293.155C678.374 290.954 679.207 289.249 680.874 288.038C682.554 286.814 684.91 286.202 687.944 286.202L691.46 286.202L691.46 284.542C691.46 283.279 691.082 282.276 690.327 281.534C689.572 280.779 688.459 280.401 686.987 280.401C685.698 280.401 684.617 280.726 683.745 281.377C682.873 282.029 682.436 282.816 682.436 283.741L678.804 283.741C678.804 282.686 679.175 281.67 679.917 280.694C680.672 279.704 681.688 278.923 682.964 278.35C684.253 277.777 685.666 277.491 687.202 277.491C689.637 277.491 691.544 278.103 692.925 279.327C694.305 280.538 695.021 282.211 695.073 284.346L695.073 294.073C695.073 296.013 695.321 297.556 695.815 298.702L695.815 299.014L692.026 299.014ZM686.03 296.26C687.163 296.26 688.237 295.967 689.253 295.381C690.268 294.795 691.004 294.034 691.46 293.096L691.46 288.76L688.628 288.76C684.201 288.76 681.987 290.056 681.987 292.647C681.987 293.78 682.365 294.665 683.12 295.303C683.875 295.941 684.845 296.26 686.03 296.26ZM718.589 288.682C718.589 291.898 717.853 294.489 716.382 296.456C714.91 298.422 712.918 299.405 710.405 299.405C707.84 299.405 705.822 298.591 704.35 296.963L704.35 307.139L700.737 307.139L700.737 277.881L704.038 277.881L704.214 280.225C705.685 278.402 707.729 277.491 710.347 277.491C712.886 277.491 714.891 278.448 716.362 280.362C717.847 282.276 718.589 284.939 718.589 288.35L718.589 288.682ZM714.975 288.272C714.975 285.889 714.468 284.008 713.452 282.627C712.436 281.247 711.043 280.557 709.272 280.557C707.085 280.557 705.444 281.527 704.35 283.467L704.35 293.565C705.431 295.492 707.085 296.456 709.311 296.456C711.043 296.456 712.417 295.772 713.432 294.405C714.461 293.025 714.975 290.98 714.975 288.272Z" fill="white"/>
<defs>
<filter id="filter0_d" x="0.715332" y="1.01441" width="939.116" height="284.772" filterUnits="userSpaceOnUse" color-interpolation-filters="sRGB">
<feFlood flood-opacity="0" result="BackgroundImageFix"/>
<feColorMatrix in="SourceAlpha" type="matrix" values="0 0 0 0 0 0 0 0 0 0 0 0 0 0 0 0 0 0 127 0"/>
<feOffset dy="4"/>
<feGaussianBlur stdDeviation="2"/>
<feColorMatrix type="matrix" values="0 0 0 0 0 0 0 0 0 0 0 0 0 0 0 0 0 0 0.25 0"/>
<feBlend mode="normal" in2="BackgroundImageFix" result="effect1_dropShadow"/>
<feBlend mode="normal" in="SourceGraphic" in2="effect1_dropShadow" result="shape"/>
</filter>
</defs>
</svg>
