<svg width="940" height="482" viewBox="0 0 940 482" fill="none" xmlns="http://www.w3.org/2000/svg">
<rect x="4.35046" y="15.0141" width="928" height="460" fill="#73818C"/>
<g filter="url(#filter0_d)">
<path d="M933.865 277.786L895.413 241.476C856.958 205.503 780.058 132.376 702.922 91.5642C625.79 50.2465 548.422 41.2448 470.798 67.4278C393.17 94.1171 315.286 155.991 237.593 191.709C159.899 227.426 82.4088 235.3 43.6592 239.827L4.9121 244.017L6.68251 1.01441L45.3971 1.29647C84.1116 1.57852 161.541 2.14264 238.97 2.70675C316.399 3.27087 393.828 3.83498 471.257 4.39909C548.686 4.96321 626.115 5.52732 703.544 6.09144C780.974 6.65555 858.403 7.21966 897.117 7.50172L935.832 7.78378L933.865 277.786Z" fill="#5B73EA"/>
</g>
<path d="M285.444 176.577L294.741 199.78L304.038 176.577L308.901 176.577L308.901 205.014L305.151 205.014L305.151 193.94L305.503 181.987L296.167 205.014L293.296 205.014L283.979 182.045L284.35 193.94L284.35 205.014L280.6 205.014L280.6 176.577L285.444 176.577ZM313.999 194.252C313.999 192.182 314.403 190.32 315.21 188.667C316.03 187.013 317.163 185.737 318.608 184.838C320.067 183.94 321.727 183.491 323.589 183.491C326.466 183.491 328.791 184.487 330.561 186.479C332.345 188.471 333.237 191.121 333.237 194.428L333.237 194.682C333.237 196.739 332.84 198.588 332.046 200.229C331.265 201.857 330.138 203.126 328.667 204.038C327.209 204.949 325.529 205.405 323.628 205.405C320.763 205.405 318.439 204.409 316.655 202.417C314.884 200.424 313.999 197.788 313.999 194.506L313.999 194.252ZM317.632 194.682C317.632 197.026 318.172 198.907 319.253 200.327C320.347 201.746 321.805 202.456 323.628 202.456C325.464 202.456 326.922 201.739 328.003 200.307C329.084 198.862 329.624 196.844 329.624 194.252C329.624 191.935 329.071 190.06 327.964 188.627C326.87 187.182 325.412 186.46 323.589 186.46C321.805 186.46 320.366 187.169 319.272 188.588C318.179 190.008 317.632 192.039 317.632 194.682ZM344.429 200.112L349.663 183.881L353.354 183.881L345.776 205.014L343.022 205.014L335.366 183.881L339.057 183.881L344.429 200.112ZM360.757 205.014L357.143 205.014L357.143 183.881L360.757 183.881L360.757 205.014ZM356.85 178.276C356.85 177.69 357.026 177.195 357.378 176.792C357.742 176.388 358.276 176.186 358.979 176.186C359.682 176.186 360.216 176.388 360.581 176.792C360.946 177.195 361.128 177.69 361.128 178.276C361.128 178.862 360.946 179.35 360.581 179.741C360.216 180.131 359.682 180.327 358.979 180.327C358.276 180.327 357.742 180.131 357.378 179.741C357.026 179.35 356.85 178.862 356.85 178.276ZM375.327 205.405C372.462 205.405 370.132 204.467 368.335 202.592C366.538 200.704 365.64 198.185 365.64 195.034L365.64 194.37C365.64 192.273 366.037 190.405 366.831 188.764C367.638 187.111 368.758 185.821 370.19 184.897C371.636 183.96 373.198 183.491 374.878 183.491C377.625 183.491 379.761 184.396 381.284 186.206C382.807 188.016 383.569 190.607 383.569 193.979L383.569 195.483L369.253 195.483C369.305 197.566 369.91 199.252 371.069 200.542C372.241 201.818 373.725 202.456 375.522 202.456C376.798 202.456 377.879 202.195 378.765 201.674C379.65 201.154 380.425 200.463 381.089 199.604L383.296 201.323C381.525 204.044 378.869 205.405 375.327 205.405ZM374.878 186.46C373.419 186.46 372.196 186.993 371.206 188.061C370.216 189.116 369.604 190.6 369.37 192.514L379.956 192.514L379.956 192.241C379.852 190.405 379.357 188.986 378.472 187.983C377.586 186.967 376.388 186.46 374.878 186.46ZM400.073 199.409C400.073 198.432 399.702 197.677 398.96 197.143C398.231 196.596 396.948 196.127 395.112 195.737C393.289 195.346 391.837 194.877 390.757 194.331C389.689 193.784 388.895 193.133 388.374 192.377C387.866 191.622 387.612 190.724 387.612 189.682C387.612 187.95 388.341 186.486 389.8 185.288C391.271 184.09 393.146 183.491 395.425 183.491C397.821 183.491 399.761 184.109 401.245 185.346C402.742 186.583 403.491 188.165 403.491 190.092L399.858 190.092C399.858 189.103 399.435 188.25 398.589 187.534C397.755 186.818 396.701 186.46 395.425 186.46C394.11 186.46 393.081 186.746 392.339 187.319C391.597 187.892 391.225 188.641 391.225 189.565C391.225 190.437 391.571 191.095 392.261 191.538C392.951 191.98 394.194 192.404 395.991 192.807C397.801 193.211 399.266 193.693 400.386 194.252C401.505 194.812 402.332 195.489 402.866 196.284C403.413 197.065 403.686 198.022 403.686 199.155C403.686 201.043 402.931 202.56 401.421 203.706C399.91 204.838 397.951 205.405 395.542 205.405C393.849 205.405 392.352 205.105 391.05 204.506C389.748 203.907 388.725 203.074 387.983 202.006C387.254 200.926 386.89 199.76 386.89 198.51L390.503 198.51C390.568 199.721 391.05 200.685 391.948 201.401C392.86 202.104 394.057 202.456 395.542 202.456C396.909 202.456 398.003 202.182 398.823 201.635C399.656 201.075 400.073 200.333 400.073 199.409ZM418.882 205.014L418.882 176.577L426.909 176.577C429.383 176.577 431.571 177.124 433.472 178.217C435.373 179.311 436.837 180.867 437.866 182.885C438.908 184.904 439.435 187.221 439.448 189.838L439.448 191.655C439.448 194.337 438.927 196.687 437.886 198.706C436.857 200.724 435.379 202.273 433.452 203.354C431.538 204.435 429.305 204.988 426.753 205.014L418.882 205.014ZM422.632 179.663L422.632 201.948L426.577 201.948C429.468 201.948 431.714 201.049 433.315 199.252C434.93 197.456 435.737 194.897 435.737 191.577L435.737 189.917C435.737 186.687 434.975 184.181 433.452 182.397C431.942 180.6 429.793 179.689 427.007 179.663L422.632 179.663ZM457.612 205.014C457.404 204.598 457.235 203.855 457.104 202.788C455.425 204.532 453.419 205.405 451.089 205.405C449.005 205.405 447.293 204.819 445.952 203.647C444.624 202.462 443.96 200.965 443.96 199.155C443.96 196.954 444.793 195.249 446.46 194.038C448.14 192.814 450.496 192.202 453.53 192.202L457.046 192.202L457.046 190.542C457.046 189.279 456.668 188.276 455.913 187.534C455.158 186.779 454.044 186.401 452.573 186.401C451.284 186.401 450.203 186.726 449.331 187.377C448.459 188.029 448.022 188.816 448.022 189.741L444.39 189.741C444.39 188.686 444.761 187.67 445.503 186.694C446.258 185.704 447.274 184.923 448.55 184.35C449.839 183.777 451.252 183.491 452.788 183.491C455.223 183.491 457.13 184.103 458.511 185.327C459.891 186.538 460.607 188.211 460.659 190.346L460.659 200.073C460.659 202.013 460.906 203.556 461.401 204.702L461.401 205.014L457.612 205.014ZM451.616 202.26C452.749 202.26 453.823 201.967 454.839 201.381C455.854 200.795 456.59 200.034 457.046 199.096L457.046 194.76L454.214 194.76C449.787 194.76 447.573 196.056 447.573 198.647C447.573 199.78 447.951 200.665 448.706 201.303C449.461 201.941 450.431 202.26 451.616 202.26ZM471.225 178.764L471.225 183.881L475.171 183.881L475.171 186.674L471.225 186.674L471.225 199.78C471.225 200.626 471.401 201.264 471.753 201.694C472.104 202.111 472.703 202.319 473.55 202.319C473.966 202.319 474.539 202.241 475.268 202.085L475.268 205.014C474.318 205.275 473.393 205.405 472.495 205.405C470.88 205.405 469.663 204.917 468.843 203.94C468.022 202.963 467.612 201.577 467.612 199.78L467.612 186.674L463.765 186.674L463.765 183.881L467.612 183.881L467.612 178.764L471.225 178.764ZM492.456 205.014C492.248 204.598 492.078 203.855 491.948 202.788C490.268 204.532 488.263 205.405 485.932 205.405C483.849 205.405 482.137 204.819 480.796 203.647C479.468 202.462 478.804 200.965 478.804 199.155C478.804 196.954 479.637 195.249 481.304 194.038C482.983 192.814 485.34 192.202 488.374 192.202L491.89 192.202L491.89 190.542C491.89 189.279 491.512 188.276 490.757 187.534C490.002 186.779 488.888 186.401 487.417 186.401C486.128 186.401 485.047 186.726 484.175 187.377C483.302 188.029 482.866 188.816 482.866 189.741L479.233 189.741C479.233 188.686 479.604 187.67 480.347 186.694C481.102 185.704 482.117 184.923 483.393 184.35C484.682 183.777 486.095 183.491 487.632 183.491C490.067 183.491 491.974 184.103 493.354 185.327C494.735 186.538 495.451 188.211 495.503 190.346L495.503 200.073C495.503 202.013 495.75 203.556 496.245 204.702L496.245 205.014L492.456 205.014ZM486.46 202.26C487.593 202.26 488.667 201.967 489.682 201.381C490.698 200.795 491.434 200.034 491.89 199.096L491.89 194.76L489.057 194.76C484.63 194.76 482.417 196.056 482.417 198.647C482.417 199.78 482.794 200.665 483.55 201.303C484.305 201.941 485.275 202.26 486.46 202.26ZM519.057 194.682C519.057 197.911 518.315 200.509 516.831 202.475C515.347 204.428 513.354 205.405 510.854 205.405C508.185 205.405 506.121 204.461 504.663 202.573L504.487 205.014L501.167 205.014L501.167 175.014L504.78 175.014L504.78 186.206C506.238 184.396 508.25 183.491 510.815 183.491C513.38 183.491 515.392 184.461 516.85 186.401C518.322 188.341 519.057 190.997 519.057 194.37L519.057 194.682ZM515.444 194.272C515.444 191.811 514.969 189.91 514.018 188.569C513.068 187.228 511.701 186.557 509.917 186.557C507.534 186.557 505.822 187.664 504.78 189.877L504.78 199.018C505.887 201.232 507.612 202.338 509.956 202.338C511.688 202.338 513.035 201.668 513.999 200.327C514.962 198.986 515.444 196.967 515.444 194.272ZM536.675 205.014C536.466 204.598 536.297 203.855 536.167 202.788C534.487 204.532 532.482 205.405 530.151 205.405C528.068 205.405 526.356 204.819 525.015 203.647C523.686 202.462 523.022 200.965 523.022 199.155C523.022 196.954 523.856 195.249 525.522 194.038C527.202 192.814 529.559 192.202 532.593 192.202L536.108 192.202L536.108 190.542C536.108 189.279 535.731 188.276 534.975 187.534C534.22 186.779 533.107 186.401 531.636 186.401C530.347 186.401 529.266 186.726 528.393 187.377C527.521 188.029 527.085 188.816 527.085 189.741L523.452 189.741C523.452 188.686 523.823 187.67 524.565 186.694C525.321 185.704 526.336 184.923 527.612 184.35C528.901 183.777 530.314 183.491 531.85 183.491C534.285 183.491 536.193 184.103 537.573 185.327C538.953 186.538 539.669 188.211 539.722 190.346L539.722 200.073C539.722 202.013 539.969 203.556 540.464 204.702L540.464 205.014L536.675 205.014ZM530.679 202.26C531.811 202.26 532.886 201.967 533.901 201.381C534.917 200.795 535.653 200.034 536.108 199.096L536.108 194.76L533.276 194.76C528.849 194.76 526.636 196.056 526.636 198.647C526.636 199.78 527.013 200.665 527.768 201.303C528.524 201.941 529.494 202.26 530.679 202.26ZM557.69 199.409C557.69 198.432 557.319 197.677 556.577 197.143C555.848 196.596 554.565 196.127 552.729 195.737C550.906 195.346 549.455 194.877 548.374 194.331C547.306 193.784 546.512 193.133 545.991 192.377C545.483 191.622 545.229 190.724 545.229 189.682C545.229 187.95 545.959 186.486 547.417 185.288C548.888 184.09 550.763 183.491 553.042 183.491C555.438 183.491 557.378 184.109 558.862 185.346C560.36 186.583 561.108 188.165 561.108 190.092L557.475 190.092C557.475 189.103 557.052 188.25 556.206 187.534C555.373 186.818 554.318 186.46 553.042 186.46C551.727 186.46 550.698 186.746 549.956 187.319C549.214 187.892 548.843 188.641 548.843 189.565C548.843 190.437 549.188 191.095 549.878 191.538C550.568 191.98 551.811 192.404 553.608 192.807C555.418 193.211 556.883 193.693 558.003 194.252C559.123 194.812 559.949 195.489 560.483 196.284C561.03 197.065 561.304 198.022 561.304 199.155C561.304 201.043 560.548 202.56 559.038 203.706C557.528 204.838 555.568 205.405 553.159 205.405C551.466 205.405 549.969 205.105 548.667 204.506C547.365 203.907 546.343 203.074 545.6 202.006C544.871 200.926 544.507 199.76 544.507 198.51L548.12 198.51C548.185 199.721 548.667 200.685 549.565 201.401C550.477 202.104 551.675 202.456 553.159 202.456C554.526 202.456 555.62 202.182 556.44 201.635C557.274 201.075 557.69 200.333 557.69 199.409ZM574.78 205.405C571.916 205.405 569.585 204.467 567.788 202.592C565.991 200.704 565.093 198.185 565.093 195.034L565.093 194.37C565.093 192.273 565.49 190.405 566.284 188.764C567.091 187.111 568.211 185.821 569.643 184.897C571.089 183.96 572.651 183.491 574.331 183.491C577.078 183.491 579.214 184.396 580.737 186.206C582.261 188.016 583.022 190.607 583.022 193.979L583.022 195.483L568.706 195.483C568.758 197.566 569.363 199.252 570.522 200.542C571.694 201.818 573.179 202.456 574.975 202.456C576.252 202.456 577.332 202.195 578.218 201.674C579.103 201.154 579.878 200.463 580.542 199.604L582.749 201.323C580.978 204.044 578.322 205.405 574.78 205.405ZM574.331 186.46C572.873 186.46 571.649 186.993 570.659 188.061C569.669 189.116 569.057 190.6 568.823 192.514L579.409 192.514L579.409 192.241C579.305 190.405 578.81 188.986 577.925 187.983C577.039 186.967 575.841 186.46 574.331 186.46ZM615.854 200.034L619.917 183.881L623.53 183.881L617.378 205.014L614.448 205.014L609.311 188.999L604.311 205.014L601.382 205.014L595.249 183.881L598.843 183.881L603.003 199.702L607.925 183.881L610.835 183.881L615.854 200.034ZM631.147 205.014L627.534 205.014L627.534 183.881L631.147 183.881L631.147 205.014ZM627.241 178.276C627.241 177.69 627.417 177.195 627.768 176.792C628.133 176.388 628.667 176.186 629.37 176.186C630.073 176.186 630.607 176.388 630.972 176.792C631.336 177.195 631.518 177.69 631.518 178.276C631.518 178.862 631.336 179.35 630.972 179.741C630.607 180.131 630.073 180.327 629.37 180.327C628.667 180.327 628.133 180.131 627.768 179.741C627.417 179.35 627.241 178.862 627.241 178.276ZM641.85 178.764L641.85 183.881L645.796 183.881L645.796 186.674L641.85 186.674L641.85 199.78C641.85 200.626 642.026 201.264 642.378 201.694C642.729 202.111 643.328 202.319 644.175 202.319C644.591 202.319 645.164 202.241 645.893 202.085L645.893 205.014C644.943 205.275 644.018 205.405 643.12 205.405C641.505 205.405 640.288 204.917 639.468 203.94C638.647 202.963 638.237 201.577 638.237 199.78L638.237 186.674L634.39 186.674L634.39 183.881L638.237 183.881L638.237 178.764L641.85 178.764ZM653.647 186.44C655.249 184.474 657.332 183.491 659.897 183.491C664.363 183.491 666.616 186.01 666.655 191.049L666.655 205.014L663.042 205.014L663.042 191.03C663.029 189.506 662.677 188.38 661.987 187.651C661.31 186.922 660.249 186.557 658.804 186.557C657.632 186.557 656.603 186.87 655.718 187.495C654.832 188.12 654.142 188.94 653.647 189.956L653.647 205.014L650.034 205.014L650.034 175.014L653.647 175.014L653.647 186.44ZM694.468 176.577L698.237 176.577L698.237 196.713C698.237 199.435 697.417 201.564 695.776 203.1C694.149 204.637 691.974 205.405 689.253 205.405C686.427 205.405 684.227 204.682 682.651 203.237C681.076 201.792 680.288 199.767 680.288 197.163L684.038 197.163C684.038 198.79 684.481 200.06 685.366 200.971C686.265 201.883 687.56 202.338 689.253 202.338C690.802 202.338 692.052 201.85 693.003 200.874C693.966 199.897 694.455 198.53 694.468 196.772L694.468 176.577ZM713.003 192.338C709.787 191.414 707.443 190.281 705.972 188.94C704.513 187.586 703.784 185.919 703.784 183.94C703.784 181.7 704.676 179.851 706.46 178.393C708.257 176.922 710.587 176.186 713.452 176.186C715.405 176.186 717.143 176.564 718.667 177.319C720.203 178.074 721.388 179.116 722.222 180.444C723.068 181.772 723.491 183.224 723.491 184.799L719.722 184.799C719.722 183.081 719.175 181.733 718.081 180.756C716.987 179.767 715.444 179.272 713.452 179.272C711.603 179.272 710.158 179.682 709.116 180.502C708.087 181.31 707.573 182.436 707.573 183.881C707.573 185.04 708.061 186.023 709.038 186.831C710.028 187.625 711.701 188.354 714.057 189.018C716.427 189.682 718.276 190.418 719.604 191.225C720.946 192.019 721.935 192.95 722.573 194.018C723.224 195.086 723.55 196.342 723.55 197.788C723.55 200.092 722.651 201.941 720.854 203.335C719.057 204.715 716.655 205.405 713.647 205.405C711.694 205.405 709.871 205.034 708.179 204.292C706.486 203.536 705.177 202.508 704.253 201.206C703.341 199.904 702.886 198.426 702.886 196.772L706.655 196.772C706.655 198.491 707.287 199.851 708.55 200.854C709.826 201.844 711.525 202.338 713.647 202.338C715.627 202.338 717.143 201.935 718.198 201.127C719.253 200.32 719.78 199.22 719.78 197.827C719.78 196.433 719.292 195.359 718.315 194.604C717.339 193.836 715.568 193.081 713.003 192.338ZM750.776 205.014C750.568 204.598 750.399 203.855 750.268 202.788C748.589 204.532 746.584 205.405 744.253 205.405C742.169 205.405 740.457 204.819 739.116 203.647C737.788 202.462 737.124 200.965 737.124 199.155C737.124 196.954 737.957 195.249 739.624 194.038C741.304 192.814 743.66 192.202 746.694 192.202L750.21 192.202L750.21 190.542C750.21 189.279 749.832 188.276 749.077 187.534C748.322 186.779 747.209 186.401 745.737 186.401C744.448 186.401 743.367 186.726 742.495 187.377C741.623 188.029 741.186 188.816 741.186 189.741L737.554 189.741C737.554 188.686 737.925 187.67 738.667 186.694C739.422 185.704 740.438 184.923 741.714 184.35C743.003 183.777 744.416 183.491 745.952 183.491C748.387 183.491 750.294 184.103 751.675 185.327C753.055 186.538 753.771 188.211 753.823 190.346L753.823 200.073C753.823 202.013 754.071 203.556 754.565 204.702L754.565 205.014L750.776 205.014ZM744.78 202.26C745.913 202.26 746.987 201.967 748.003 201.381C749.018 200.795 749.754 200.034 750.21 199.096L750.21 194.76L747.378 194.76C742.951 194.76 740.737 196.056 740.737 198.647C740.737 199.78 741.115 200.665 741.87 201.303C742.625 201.941 743.595 202.26 744.78 202.26ZM762.905 183.881L763.022 186.538C764.637 184.506 766.746 183.491 769.35 183.491C773.817 183.491 776.069 186.01 776.108 191.049L776.108 205.014L772.495 205.014L772.495 191.03C772.482 189.506 772.13 188.38 771.44 187.651C770.763 186.922 769.702 186.557 768.257 186.557C767.085 186.557 766.056 186.87 765.171 187.495C764.285 188.12 763.595 188.94 763.1 189.956L763.1 205.014L759.487 205.014L759.487 183.881L762.905 183.881ZM780.679 194.272C780.679 191.03 781.447 188.426 782.983 186.46C784.52 184.48 786.531 183.491 789.018 183.491C791.492 183.491 793.452 184.337 794.897 186.03L794.897 175.014L798.511 175.014L798.511 205.014L795.19 205.014L795.015 202.749C793.569 204.519 791.557 205.405 788.979 205.405C786.531 205.405 784.533 204.402 782.983 202.397C781.447 200.392 780.679 197.775 780.679 194.545L780.679 194.272ZM784.292 194.682C784.292 197.078 784.787 198.953 785.776 200.307C786.766 201.661 788.133 202.338 789.878 202.338C792.169 202.338 793.843 201.31 794.897 199.252L794.897 189.545C793.817 187.553 792.156 186.557 789.917 186.557C788.146 186.557 786.766 187.241 785.776 188.608C784.787 189.975 784.292 192 784.292 194.682ZM491.206 244.592L479.292 244.592L476.616 252.014L472.749 252.014L483.608 223.577L486.89 223.577L497.768 252.014L493.921 252.014L491.206 244.592ZM480.425 241.506L490.093 241.506L485.249 228.206L480.425 241.506ZM505.347 240.881L505.347 252.014L501.597 252.014L501.597 223.577L512.085 223.577C515.197 223.577 517.632 224.371 519.39 225.96C521.16 227.548 522.046 229.651 522.046 232.268C522.046 235.029 521.18 237.157 519.448 238.655C517.729 240.139 515.262 240.881 512.046 240.881L505.347 240.881ZM505.347 237.815L512.085 237.815C514.09 237.815 515.627 237.346 516.694 236.409C517.762 235.458 518.296 234.091 518.296 232.307C518.296 230.614 517.762 229.26 516.694 228.245C515.627 227.229 514.162 226.702 512.3 226.663L505.347 226.663L505.347 237.815ZM530.854 252.014L527.104 252.014L527.104 223.577L530.854 223.577L530.854 252.014ZM555.561 249.456C556.85 249.456 557.977 249.065 558.94 248.284C559.904 247.502 560.438 246.526 560.542 245.354L563.96 245.354C563.895 246.565 563.478 247.717 562.71 248.811C561.942 249.905 560.913 250.777 559.624 251.428C558.348 252.079 556.994 252.405 555.561 252.405C552.684 252.405 550.392 251.448 548.686 249.534C546.994 247.607 546.147 244.976 546.147 241.643L546.147 241.038C546.147 238.98 546.525 237.151 547.28 235.549C548.035 233.948 549.116 232.704 550.522 231.819C551.942 230.933 553.615 230.491 555.542 230.491C557.912 230.491 559.878 231.2 561.44 232.62C563.016 234.039 563.856 235.881 563.96 238.147L560.542 238.147C560.438 236.78 559.917 235.66 558.979 234.788C558.055 233.902 556.909 233.46 555.542 233.46C553.706 233.46 552.28 234.124 551.265 235.452C550.262 236.767 549.761 238.674 549.761 241.174L549.761 241.858C549.761 244.293 550.262 246.168 551.265 247.483C552.267 248.798 553.699 249.456 555.561 249.456ZM581.069 252.014C580.861 251.598 580.692 250.855 580.561 249.788C578.882 251.532 576.877 252.405 574.546 252.405C572.462 252.405 570.75 251.819 569.409 250.647C568.081 249.462 567.417 247.965 567.417 246.155C567.417 243.954 568.25 242.249 569.917 241.038C571.597 239.814 573.953 239.202 576.987 239.202L580.503 239.202L580.503 237.542C580.503 236.279 580.125 235.276 579.37 234.534C578.615 233.779 577.502 233.401 576.03 233.401C574.741 233.401 573.66 233.726 572.788 234.377C571.916 235.029 571.479 235.816 571.479 236.741L567.847 236.741C567.847 235.686 568.218 234.67 568.96 233.694C569.715 232.704 570.731 231.923 572.007 231.35C573.296 230.777 574.709 230.491 576.245 230.491C578.68 230.491 580.587 231.103 581.968 232.327C583.348 233.538 584.064 235.211 584.116 237.346L584.116 247.073C584.116 249.013 584.363 250.556 584.858 251.702L584.858 252.014L581.069 252.014ZM575.073 249.26C576.206 249.26 577.28 248.967 578.296 248.381C579.311 247.795 580.047 247.034 580.503 246.096L580.503 241.76L577.671 241.76C573.244 241.76 571.03 243.056 571.03 245.647C571.03 246.78 571.408 247.665 572.163 248.303C572.918 248.941 573.888 249.26 575.073 249.26ZM593.706 252.014L590.093 252.014L590.093 222.014L593.706 222.014L593.706 252.014ZM603.432 252.014L599.819 252.014L599.819 222.014L603.432 222.014L603.432 252.014Z" fill="white"/>
<defs>
<filter id="filter0_d" x="0.715332" y="1.01441" width="939.116" height="284.772" filterUnits="userSpaceOnUse" color-interpolation-filters="sRGB">
<feFlood flood-opacity="0" result="BackgroundImageFix"/>
<feColorMatrix in="SourceAlpha" type="matrix" values="0 0 0 0 0 0 0 0 0 0 0 0 0 0 0 0 0 0 127 0"/>
<feOffset dy="4"/>
<feGaussianBlur stdDeviation="2"/>
<feColorMatrix type="matrix" values="0 0 0 0 0 0 0 0 0 0 0 0 0 0 0 0 0 0 0.25 0"/>
<feBlend mode="normal" in2="BackgroundImageFix" result="effect1_dropShadow"/>
<feBlend mode="normal" in="SourceGraphic" in2="effect1_dropShadow" result="shape"/>
</filter>
</defs>
</svg>
