<svg width="940" height="482" viewBox="0 0 940 482" fill="none" xmlns="http://www.w3.org/2000/svg">
<rect x="4.35046" y="15.0141" width="928" height="460" fill="#73818C"/>
<g filter="url(#filter0_d)">
<path d="M933.865 277.786L895.413 241.476C856.958 205.503 780.058 132.376 702.922 91.5642C625.79 50.2465 548.422 41.2448 470.798 67.4278C393.17 94.1171 315.286 155.991 237.593 191.709C159.899 227.426 82.4088 235.3 43.6592 239.827L4.9121 244.017L6.68251 1.01441L45.3971 1.29647C84.1116 1.57852 161.541 2.14264 238.97 2.70675C316.399 3.27087 393.828 3.83498 471.257 4.39909C548.686 4.96321 626.115 5.52732 703.544 6.09144C780.974 6.65555 858.403 7.21966 897.117 7.50172L935.832 7.78378L933.865 277.786Z" fill="#5B73EA"/>
</g>
<path d="M320.522 193.881L320.522 205.014L316.772 205.014L316.772 176.577L327.261 176.577C330.373 176.577 332.807 177.371 334.565 178.96C336.336 180.548 337.222 182.651 337.222 185.268C337.222 188.029 336.356 190.157 334.624 191.655C332.905 193.139 330.438 193.881 327.222 193.881L320.522 193.881ZM320.522 190.815L327.261 190.815C329.266 190.815 330.802 190.346 331.87 189.409C332.938 188.458 333.472 187.091 333.472 185.307C333.472 183.614 332.938 182.26 331.87 181.245C330.802 180.229 329.337 179.702 327.475 179.663L320.522 179.663L320.522 190.815ZM354.253 205.014C354.044 204.598 353.875 203.855 353.745 202.788C352.065 204.532 350.06 205.405 347.729 205.405C345.646 205.405 343.934 204.819 342.593 203.647C341.265 202.462 340.6 200.965 340.6 199.155C340.6 196.954 341.434 195.249 343.1 194.038C344.78 192.814 347.137 192.202 350.171 192.202L353.686 192.202L353.686 190.542C353.686 189.279 353.309 188.276 352.554 187.534C351.798 186.779 350.685 186.401 349.214 186.401C347.925 186.401 346.844 186.726 345.972 187.377C345.099 188.029 344.663 188.816 344.663 189.741L341.03 189.741C341.03 188.686 341.401 187.67 342.143 186.694C342.899 185.704 343.914 184.923 345.19 184.35C346.479 183.777 347.892 183.491 349.429 183.491C351.863 183.491 353.771 184.103 355.151 185.327C356.531 186.538 357.248 188.211 357.3 190.346L357.3 200.073C357.3 202.013 357.547 203.556 358.042 204.702L358.042 205.014L354.253 205.014ZM348.257 202.26C349.39 202.26 350.464 201.967 351.479 201.381C352.495 200.795 353.231 200.034 353.686 199.096L353.686 194.76L350.854 194.76C346.427 194.76 344.214 196.056 344.214 198.647C344.214 199.78 344.591 200.665 345.347 201.303C346.102 201.941 347.072 202.26 348.257 202.26ZM362.104 194.272C362.104 190.978 362.866 188.361 364.39 186.42C365.913 184.467 367.931 183.491 370.444 183.491C373.022 183.491 375.034 184.402 376.479 186.225L376.655 183.881L379.956 183.881L379.956 204.506C379.956 207.241 379.142 209.396 377.515 210.971C375.9 212.547 373.725 213.335 370.991 213.335C369.468 213.335 367.977 213.009 366.518 212.358C365.06 211.707 363.947 210.815 363.179 209.682L365.054 207.514C366.603 209.428 368.498 210.385 370.737 210.385C372.495 210.385 373.862 209.891 374.839 208.901C375.828 207.911 376.323 206.518 376.323 204.721L376.323 202.905C374.878 204.571 372.905 205.405 370.405 205.405C367.931 205.405 365.926 204.409 364.39 202.417C362.866 200.424 362.104 197.71 362.104 194.272ZM365.737 194.682C365.737 197.065 366.225 198.94 367.202 200.307C368.179 201.661 369.546 202.338 371.304 202.338C373.582 202.338 375.255 201.303 376.323 199.233L376.323 189.585C375.216 187.566 373.556 186.557 371.343 186.557C369.585 186.557 368.211 187.241 367.222 188.608C366.232 189.975 365.737 192 365.737 194.682ZM389.35 205.014L385.737 205.014L385.737 183.881L389.35 183.881L389.35 205.014ZM385.444 178.276C385.444 177.69 385.62 177.195 385.972 176.792C386.336 176.388 386.87 176.186 387.573 176.186C388.276 176.186 388.81 176.388 389.175 176.792C389.539 177.195 389.722 177.69 389.722 178.276C389.722 178.862 389.539 179.35 389.175 179.741C388.81 180.131 388.276 180.327 387.573 180.327C386.87 180.327 386.336 180.131 385.972 179.741C385.62 179.35 385.444 178.862 385.444 178.276ZM398.569 183.881L398.686 186.538C400.301 184.506 402.41 183.491 405.015 183.491C409.481 183.491 411.733 186.01 411.772 191.049L411.772 205.014L408.159 205.014L408.159 191.03C408.146 189.506 407.794 188.38 407.104 187.651C406.427 186.922 405.366 186.557 403.921 186.557C402.749 186.557 401.72 186.87 400.835 187.495C399.949 188.12 399.259 188.94 398.765 189.956L398.765 205.014L395.151 205.014L395.151 183.881L398.569 183.881ZM430.268 205.014C430.06 204.598 429.891 203.855 429.761 202.788C428.081 204.532 426.076 205.405 423.745 205.405C421.662 205.405 419.949 204.819 418.608 203.647C417.28 202.462 416.616 200.965 416.616 199.155C416.616 196.954 417.449 195.249 419.116 194.038C420.796 192.814 423.153 192.202 426.186 192.202L429.702 192.202L429.702 190.542C429.702 189.279 429.324 188.276 428.569 187.534C427.814 186.779 426.701 186.401 425.229 186.401C423.94 186.401 422.86 186.726 421.987 187.377C421.115 188.029 420.679 188.816 420.679 189.741L417.046 189.741C417.046 188.686 417.417 187.67 418.159 186.694C418.914 185.704 419.93 184.923 421.206 184.35C422.495 183.777 423.908 183.491 425.444 183.491C427.879 183.491 429.787 184.103 431.167 185.327C432.547 186.538 433.263 188.211 433.315 190.346L433.315 200.073C433.315 202.013 433.563 203.556 434.057 204.702L434.057 205.014L430.268 205.014ZM424.272 202.26C425.405 202.26 426.479 201.967 427.495 201.381C428.511 200.795 429.246 200.034 429.702 199.096L429.702 194.76L426.87 194.76C422.443 194.76 420.229 196.056 420.229 198.647C420.229 199.78 420.607 200.665 421.362 201.303C422.117 201.941 423.087 202.26 424.272 202.26ZM443.882 178.764L443.882 183.881L447.827 183.881L447.827 186.674L443.882 186.674L443.882 199.78C443.882 200.626 444.057 201.264 444.409 201.694C444.761 202.111 445.36 202.319 446.206 202.319C446.623 202.319 447.196 202.241 447.925 202.085L447.925 205.014C446.974 205.275 446.05 205.405 445.151 205.405C443.537 205.405 442.319 204.917 441.499 203.94C440.679 202.963 440.268 201.577 440.268 199.78L440.268 186.674L436.421 186.674L436.421 183.881L440.268 183.881L440.268 178.764L443.882 178.764ZM455.991 205.014L452.378 205.014L452.378 183.881L455.991 183.881L455.991 205.014ZM452.085 178.276C452.085 177.69 452.261 177.195 452.612 176.792C452.977 176.388 453.511 176.186 454.214 176.186C454.917 176.186 455.451 176.388 455.815 176.792C456.18 177.195 456.362 177.69 456.362 178.276C456.362 178.862 456.18 179.35 455.815 179.741C455.451 180.131 454.917 180.327 454.214 180.327C453.511 180.327 452.977 180.131 452.612 179.741C452.261 179.35 452.085 178.862 452.085 178.276ZM460.835 194.252C460.835 192.182 461.238 190.32 462.046 188.667C462.866 187.013 463.999 185.737 465.444 184.838C466.903 183.94 468.563 183.491 470.425 183.491C473.302 183.491 475.627 184.487 477.397 186.479C479.181 188.471 480.073 191.121 480.073 194.428L480.073 194.682C480.073 196.739 479.676 198.588 478.882 200.229C478.1 201.857 476.974 203.126 475.503 204.038C474.044 204.949 472.365 205.405 470.464 205.405C467.599 205.405 465.275 204.409 463.491 202.417C461.72 200.424 460.835 197.788 460.835 194.506L460.835 194.252ZM464.468 194.682C464.468 197.026 465.008 198.907 466.089 200.327C467.182 201.746 468.641 202.456 470.464 202.456C472.3 202.456 473.758 201.739 474.839 200.307C475.919 198.862 476.46 196.844 476.46 194.252C476.46 191.935 475.906 190.06 474.8 188.627C473.706 187.182 472.248 186.46 470.425 186.46C468.641 186.46 467.202 187.169 466.108 188.588C465.015 190.008 464.468 192.039 464.468 194.682ZM488.022 183.881L488.14 186.538C489.754 184.506 491.863 183.491 494.468 183.491C498.934 183.491 501.186 186.01 501.225 191.049L501.225 205.014L497.612 205.014L497.612 191.03C497.599 189.506 497.248 188.38 496.557 187.651C495.88 186.922 494.819 186.557 493.374 186.557C492.202 186.557 491.173 186.87 490.288 187.495C489.403 188.12 488.712 188.94 488.218 189.956L488.218 205.014L484.604 205.014L484.604 183.881L488.022 183.881ZM535.307 200.034L539.37 183.881L542.983 183.881L536.831 205.014L533.901 205.014L528.765 188.999L523.765 205.014L520.835 205.014L514.702 183.881L518.296 183.881L522.456 199.702L527.378 183.881L530.288 183.881L535.307 200.034ZM550.6 205.014L546.987 205.014L546.987 183.881L550.6 183.881L550.6 205.014ZM546.694 178.276C546.694 177.69 546.87 177.195 547.222 176.792C547.586 176.388 548.12 176.186 548.823 176.186C549.526 176.186 550.06 176.388 550.425 176.792C550.789 177.195 550.972 177.69 550.972 178.276C550.972 178.862 550.789 179.35 550.425 179.741C550.06 180.131 549.526 180.327 548.823 180.327C548.12 180.327 547.586 180.131 547.222 179.741C546.87 179.35 546.694 178.862 546.694 178.276ZM561.304 178.764L561.304 183.881L565.249 183.881L565.249 186.674L561.304 186.674L561.304 199.78C561.304 200.626 561.479 201.264 561.831 201.694C562.182 202.111 562.781 202.319 563.628 202.319C564.044 202.319 564.617 202.241 565.347 202.085L565.347 205.014C564.396 205.275 563.472 205.405 562.573 205.405C560.959 205.405 559.741 204.917 558.921 203.94C558.1 202.963 557.69 201.577 557.69 199.78L557.69 186.674L553.843 186.674L553.843 183.881L557.69 183.881L557.69 178.764L561.304 178.764ZM573.1 186.44C574.702 184.474 576.785 183.491 579.35 183.491C583.817 183.491 586.069 186.01 586.108 191.049L586.108 205.014L582.495 205.014L582.495 191.03C582.482 189.506 582.13 188.38 581.44 187.651C580.763 186.922 579.702 186.557 578.257 186.557C577.085 186.557 576.056 186.87 575.171 187.495C574.285 188.12 573.595 188.94 573.1 189.956L573.1 205.014L569.487 205.014L569.487 175.014L573.1 175.014L573.1 186.44ZM609.917 202.456C611.206 202.456 612.332 202.065 613.296 201.284C614.259 200.502 614.793 199.526 614.897 198.354L618.315 198.354C618.25 199.565 617.834 200.717 617.065 201.811C616.297 202.905 615.268 203.777 613.979 204.428C612.703 205.079 611.349 205.405 609.917 205.405C607.039 205.405 604.748 204.448 603.042 202.534C601.349 200.607 600.503 197.976 600.503 194.643L600.503 194.038C600.503 191.98 600.88 190.151 601.636 188.549C602.391 186.948 603.472 185.704 604.878 184.819C606.297 183.933 607.97 183.491 609.897 183.491C612.267 183.491 614.233 184.2 615.796 185.62C617.371 187.039 618.211 188.881 618.315 191.147L614.897 191.147C614.793 189.78 614.272 188.66 613.335 187.788C612.41 186.902 611.265 186.46 609.897 186.46C608.061 186.46 606.636 187.124 605.62 188.452C604.617 189.767 604.116 191.674 604.116 194.174L604.116 194.858C604.116 197.293 604.617 199.168 605.62 200.483C606.623 201.798 608.055 202.456 609.917 202.456ZM621.421 194.252C621.421 192.182 621.824 190.32 622.632 188.667C623.452 187.013 624.585 185.737 626.03 184.838C627.488 183.94 629.149 183.491 631.011 183.491C633.888 183.491 636.212 184.487 637.983 186.479C639.767 188.471 640.659 191.121 640.659 194.428L640.659 194.682C640.659 196.739 640.262 198.588 639.468 200.229C638.686 201.857 637.56 203.126 636.089 204.038C634.63 204.949 632.951 205.405 631.05 205.405C628.185 205.405 625.861 204.409 624.077 202.417C622.306 200.424 621.421 197.788 621.421 194.506L621.421 194.252ZM625.054 194.682C625.054 197.026 625.594 198.907 626.675 200.327C627.768 201.746 629.227 202.456 631.05 202.456C632.886 202.456 634.344 201.739 635.425 200.307C636.505 198.862 637.046 196.844 637.046 194.252C637.046 191.935 636.492 190.06 635.386 188.627C634.292 187.182 632.834 186.46 631.011 186.46C629.227 186.46 627.788 187.169 626.694 188.588C625.6 190.008 625.054 192.039 625.054 194.682ZM648.589 183.881L648.686 186.225C650.236 184.402 652.326 183.491 654.956 183.491C657.912 183.491 659.923 184.624 660.991 186.889C661.694 185.874 662.606 185.053 663.725 184.428C664.858 183.803 666.193 183.491 667.729 183.491C672.365 183.491 674.722 185.945 674.8 190.854L674.8 205.014L671.186 205.014L671.186 191.069C671.186 189.558 670.841 188.432 670.151 187.69C669.461 186.935 668.302 186.557 666.675 186.557C665.334 186.557 664.22 186.961 663.335 187.768C662.449 188.562 661.935 189.637 661.792 190.991L661.792 205.014L658.159 205.014L658.159 191.167C658.159 188.094 656.655 186.557 653.647 186.557C651.278 186.557 649.656 187.566 648.784 189.585L648.784 205.014L645.171 205.014L645.171 183.881L648.589 183.881ZM698.12 194.682C698.12 197.898 697.384 200.489 695.913 202.456C694.442 204.422 692.449 205.405 689.936 205.405C687.371 205.405 685.353 204.591 683.882 202.963L683.882 213.139L680.268 213.139L680.268 183.881L683.569 183.881L683.745 186.225C685.216 184.402 687.261 183.491 689.878 183.491C692.417 183.491 694.422 184.448 695.893 186.362C697.378 188.276 698.12 190.939 698.12 194.35L698.12 194.682ZM694.507 194.272C694.507 191.889 693.999 190.008 692.983 188.627C691.968 187.247 690.574 186.557 688.804 186.557C686.616 186.557 684.975 187.527 683.882 189.467L683.882 199.565C684.962 201.492 686.616 202.456 688.843 202.456C690.574 202.456 691.948 201.772 692.964 200.405C693.992 199.025 694.507 196.98 694.507 194.272ZM706.655 205.014L703.042 205.014L703.042 175.014L706.655 175.014L706.655 205.014ZM721.225 205.405C718.361 205.405 716.03 204.467 714.233 202.592C712.436 200.704 711.538 198.185 711.538 195.034L711.538 194.37C711.538 192.273 711.935 190.405 712.729 188.764C713.537 187.111 714.656 185.821 716.089 184.897C717.534 183.96 719.097 183.491 720.776 183.491C723.524 183.491 725.659 184.396 727.182 186.206C728.706 188.016 729.468 190.607 729.468 193.979L729.468 195.483L715.151 195.483C715.203 197.566 715.809 199.252 716.968 200.542C718.14 201.818 719.624 202.456 721.421 202.456C722.697 202.456 723.778 202.195 724.663 201.674C725.548 201.154 726.323 200.463 726.987 199.604L729.194 201.323C727.423 204.044 724.767 205.405 721.225 205.405ZM720.776 186.46C719.318 186.46 718.094 186.993 717.104 188.061C716.115 189.116 715.503 190.6 715.268 192.514L725.854 192.514L725.854 192.241C725.75 190.405 725.255 188.986 724.37 187.983C723.485 186.967 722.287 186.46 720.776 186.46ZM738.569 178.764L738.569 183.881L742.515 183.881L742.515 186.674L738.569 186.674L738.569 199.78C738.569 200.626 738.745 201.264 739.097 201.694C739.448 202.111 740.047 202.319 740.893 202.319C741.31 202.319 741.883 202.241 742.612 202.085L742.612 205.014C741.662 205.275 740.737 205.405 739.839 205.405C738.224 205.405 737.007 204.917 736.186 203.94C735.366 202.963 734.956 201.577 734.956 199.78L734.956 186.674L731.108 186.674L731.108 183.881L734.956 183.881L734.956 178.764L738.569 178.764ZM755.522 205.405C752.658 205.405 750.327 204.467 748.53 202.592C746.733 200.704 745.835 198.185 745.835 195.034L745.835 194.37C745.835 192.273 746.232 190.405 747.026 188.764C747.834 187.111 748.953 185.821 750.386 184.897C751.831 183.96 753.393 183.491 755.073 183.491C757.821 183.491 759.956 184.396 761.479 186.206C763.003 188.016 763.765 190.607 763.765 193.979L763.765 195.483L749.448 195.483C749.5 197.566 750.106 199.252 751.265 200.542C752.436 201.818 753.921 202.456 755.718 202.456C756.994 202.456 758.074 202.195 758.96 201.674C759.845 201.154 760.62 200.463 761.284 199.604L763.491 201.323C761.72 204.044 759.064 205.405 755.522 205.405ZM755.073 186.46C753.615 186.46 752.391 186.993 751.401 188.061C750.412 189.116 749.8 190.6 749.565 192.514L760.151 192.514L760.151 192.241C760.047 190.405 759.552 188.986 758.667 187.983C757.781 186.967 756.584 186.46 755.073 186.46ZM293.159 234.124C292.612 234.032 292.02 233.987 291.382 233.987C289.012 233.987 287.404 234.996 286.557 237.014L286.557 252.014L282.944 252.014L282.944 230.881L286.46 230.881L286.518 233.323C287.703 231.435 289.383 230.491 291.557 230.491C292.261 230.491 292.794 230.582 293.159 230.764L293.159 234.124ZM295.151 241.252C295.151 239.182 295.555 237.32 296.362 235.667C297.182 234.013 298.315 232.737 299.761 231.838C301.219 230.94 302.879 230.491 304.741 230.491C307.619 230.491 309.943 231.487 311.714 233.479C313.498 235.471 314.39 238.121 314.39 241.428L314.39 241.682C314.39 243.739 313.992 245.588 313.198 247.229C312.417 248.857 311.291 250.126 309.819 251.038C308.361 251.949 306.681 252.405 304.78 252.405C301.916 252.405 299.591 251.409 297.807 249.417C296.037 247.424 295.151 244.788 295.151 241.506L295.151 241.252ZM298.784 241.682C298.784 244.026 299.324 245.907 300.405 247.327C301.499 248.746 302.957 249.456 304.78 249.456C306.616 249.456 308.074 248.739 309.155 247.307C310.236 245.862 310.776 243.844 310.776 241.252C310.776 238.935 310.223 237.06 309.116 235.627C308.022 234.182 306.564 233.46 304.741 233.46C302.957 233.46 301.518 234.169 300.425 235.588C299.331 237.008 298.784 239.039 298.784 241.682ZM331.968 249.924C330.561 251.578 328.498 252.405 325.776 252.405C323.524 252.405 321.805 251.754 320.62 250.452C319.448 249.137 318.856 247.196 318.843 244.631L318.843 230.881L322.456 230.881L322.456 244.534C322.456 247.737 323.758 249.338 326.362 249.338C329.123 249.338 330.959 248.31 331.87 246.252L331.87 230.881L335.483 230.881L335.483 252.014L332.046 252.014L331.968 249.924ZM345.893 225.764L345.893 230.881L349.839 230.881L349.839 233.674L345.893 233.674L345.893 246.78C345.893 247.626 346.069 248.264 346.421 248.694C346.772 249.111 347.371 249.319 348.218 249.319C348.634 249.319 349.207 249.241 349.936 249.085L349.936 252.014C348.986 252.275 348.061 252.405 347.163 252.405C345.548 252.405 344.331 251.917 343.511 250.94C342.69 249.963 342.28 248.577 342.28 246.78L342.28 233.674L338.432 233.674L338.432 230.881L342.28 230.881L342.28 225.764L345.893 225.764ZM358.003 252.014L354.39 252.014L354.39 230.881L358.003 230.881L358.003 252.014ZM354.097 225.276C354.097 224.69 354.272 224.195 354.624 223.792C354.988 223.388 355.522 223.186 356.225 223.186C356.929 223.186 357.462 223.388 357.827 223.792C358.192 224.195 358.374 224.69 358.374 225.276C358.374 225.862 358.192 226.35 357.827 226.741C357.462 227.131 356.929 227.327 356.225 227.327C355.522 227.327 354.988 227.131 354.624 226.741C354.272 226.35 354.097 225.862 354.097 225.276ZM367.222 230.881L367.339 233.538C368.953 231.506 371.063 230.491 373.667 230.491C378.133 230.491 380.386 233.01 380.425 238.049L380.425 252.014L376.811 252.014L376.811 238.03C376.798 236.506 376.447 235.38 375.757 234.651C375.08 233.922 374.018 233.557 372.573 233.557C371.401 233.557 370.373 233.87 369.487 234.495C368.602 235.12 367.912 235.94 367.417 236.956L367.417 252.014L363.804 252.014L363.804 230.881L367.222 230.881ZM385.015 241.272C385.015 237.978 385.776 235.361 387.3 233.42C388.823 231.467 390.841 230.491 393.354 230.491C395.932 230.491 397.944 231.402 399.39 233.225L399.565 230.881L402.866 230.881L402.866 251.506C402.866 254.241 402.052 256.396 400.425 257.971C398.81 259.547 396.636 260.335 393.901 260.335C392.378 260.335 390.887 260.009 389.429 259.358C387.97 258.707 386.857 257.815 386.089 256.682L387.964 254.514C389.513 256.428 391.408 257.385 393.647 257.385C395.405 257.385 396.772 256.891 397.749 255.901C398.738 254.911 399.233 253.518 399.233 251.721L399.233 249.905C397.788 251.571 395.815 252.405 393.315 252.405C390.841 252.405 388.836 251.409 387.3 249.417C385.776 247.424 385.015 244.71 385.015 241.272ZM388.647 241.682C388.647 244.065 389.136 245.94 390.112 247.307C391.089 248.661 392.456 249.338 394.214 249.338C396.492 249.338 398.166 248.303 399.233 246.233L399.233 236.585C398.127 234.566 396.466 233.557 394.253 233.557C392.495 233.557 391.121 234.241 390.132 235.608C389.142 236.975 388.647 239 388.647 241.682ZM422.182 252.014L418.569 252.014L418.569 230.881L422.182 230.881L422.182 252.014ZM418.276 225.276C418.276 224.69 418.452 224.195 418.804 223.792C419.168 223.388 419.702 223.186 420.405 223.186C421.108 223.186 421.642 223.388 422.007 223.792C422.371 224.195 422.554 224.69 422.554 225.276C422.554 225.862 422.371 226.35 422.007 226.741C421.642 227.131 421.108 227.327 420.405 227.327C419.702 227.327 419.168 227.131 418.804 226.741C418.452 226.35 418.276 225.862 418.276 225.276ZM431.401 230.881L431.518 233.538C433.133 231.506 435.242 230.491 437.847 230.491C442.313 230.491 444.565 233.01 444.604 238.049L444.604 252.014L440.991 252.014L440.991 238.03C440.978 236.506 440.627 235.38 439.936 234.651C439.259 233.922 438.198 233.557 436.753 233.557C435.581 233.557 434.552 233.87 433.667 234.495C432.781 235.12 432.091 235.94 431.597 236.956L431.597 252.014L427.983 252.014L427.983 230.881L431.401 230.881ZM470.972 240.51L464.292 240.51L464.292 252.014L460.522 252.014L460.522 223.577L469.936 223.577C473.14 223.577 475.6 224.306 477.319 225.764C479.051 227.223 479.917 229.345 479.917 232.131C479.917 233.902 479.435 235.445 478.472 236.76C477.521 238.075 476.193 239.058 474.487 239.71L481.167 251.78L481.167 252.014L477.143 252.014L470.972 240.51ZM464.292 237.444L470.054 237.444C471.916 237.444 473.393 236.962 474.487 235.999C475.594 235.035 476.147 233.746 476.147 232.131C476.147 230.374 475.62 229.026 474.565 228.088C473.524 227.151 472.013 226.676 470.034 226.663L464.292 226.663L464.292 237.444ZM493.393 252.405C490.529 252.405 488.198 251.467 486.401 249.592C484.604 247.704 483.706 245.185 483.706 242.034L483.706 241.37C483.706 239.273 484.103 237.405 484.897 235.764C485.705 234.111 486.824 232.821 488.257 231.897C489.702 230.96 491.265 230.491 492.944 230.491C495.692 230.491 497.827 231.396 499.35 233.206C500.874 235.016 501.636 237.607 501.636 240.979L501.636 242.483L487.319 242.483C487.371 244.566 487.977 246.252 489.136 247.542C490.307 248.818 491.792 249.456 493.589 249.456C494.865 249.456 495.946 249.195 496.831 248.674C497.716 248.154 498.491 247.463 499.155 246.604L501.362 248.323C499.591 251.044 496.935 252.405 493.393 252.405ZM492.944 233.46C491.486 233.46 490.262 233.993 489.272 235.061C488.283 236.116 487.671 237.6 487.436 239.514L498.022 239.514L498.022 239.241C497.918 237.405 497.423 235.986 496.538 234.983C495.653 233.967 494.455 233.46 492.944 233.46ZM518.882 252.014C518.673 251.598 518.504 250.855 518.374 249.788C516.694 251.532 514.689 252.405 512.358 252.405C510.275 252.405 508.563 251.819 507.222 250.647C505.893 249.462 505.229 247.965 505.229 246.155C505.229 243.954 506.063 242.249 507.729 241.038C509.409 239.814 511.766 239.202 514.8 239.202L518.315 239.202L518.315 237.542C518.315 236.279 517.938 235.276 517.182 234.534C516.427 233.779 515.314 233.401 513.843 233.401C512.554 233.401 511.473 233.726 510.6 234.377C509.728 235.029 509.292 235.816 509.292 236.741L505.659 236.741C505.659 235.686 506.03 234.67 506.772 233.694C507.528 232.704 508.543 231.923 509.819 231.35C511.108 230.777 512.521 230.491 514.057 230.491C516.492 230.491 518.4 231.103 519.78 232.327C521.16 233.538 521.877 235.211 521.929 237.346L521.929 247.073C521.929 249.013 522.176 250.556 522.671 251.702L522.671 252.014L518.882 252.014ZM512.886 249.26C514.018 249.26 515.093 248.967 516.108 248.381C517.124 247.795 517.86 247.034 518.315 246.096L518.315 241.76L515.483 241.76C511.056 241.76 508.843 243.056 508.843 245.647C508.843 246.78 509.22 247.665 509.975 248.303C510.731 248.941 511.701 249.26 512.886 249.26ZM536.069 249.456C537.358 249.456 538.485 249.065 539.448 248.284C540.412 247.502 540.946 246.526 541.05 245.354L544.468 245.354C544.403 246.565 543.986 247.717 543.218 248.811C542.449 249.905 541.421 250.777 540.132 251.428C538.856 252.079 537.502 252.405 536.069 252.405C533.192 252.405 530.9 251.448 529.194 249.534C527.502 247.607 526.655 244.976 526.655 241.643L526.655 241.038C526.655 238.98 527.033 237.151 527.788 235.549C528.543 233.948 529.624 232.704 531.03 231.819C532.449 230.933 534.123 230.491 536.05 230.491C538.419 230.491 540.386 231.2 541.948 232.62C543.524 234.039 544.363 235.881 544.468 238.147L541.05 238.147C540.946 236.78 540.425 235.66 539.487 234.788C538.563 233.902 537.417 233.46 536.05 233.46C534.214 233.46 532.788 234.124 531.772 235.452C530.77 236.767 530.268 238.674 530.268 241.174L530.268 241.858C530.268 244.293 530.77 246.168 531.772 247.483C532.775 248.798 534.207 249.456 536.069 249.456ZM553.432 225.764L553.432 230.881L557.378 230.881L557.378 233.674L553.432 233.674L553.432 246.78C553.432 247.626 553.608 248.264 553.96 248.694C554.311 249.111 554.91 249.319 555.757 249.319C556.173 249.319 556.746 249.241 557.475 249.085L557.475 252.014C556.525 252.275 555.6 252.405 554.702 252.405C553.087 252.405 551.87 251.917 551.05 250.94C550.229 249.963 549.819 248.577 549.819 246.78L549.819 233.674L545.972 233.674L545.972 230.881L549.819 230.881L549.819 225.764L553.432 225.764ZM584.585 252.014C584.377 251.598 584.207 250.855 584.077 249.788C582.397 251.532 580.392 252.405 578.061 252.405C575.978 252.405 574.266 251.819 572.925 250.647C571.597 249.462 570.932 247.965 570.932 246.155C570.932 243.954 571.766 242.249 573.432 241.038C575.112 239.814 577.469 239.202 580.503 239.202L584.018 239.202L584.018 237.542C584.018 236.279 583.641 235.276 582.886 234.534C582.13 233.779 581.017 233.401 579.546 233.401C578.257 233.401 577.176 233.726 576.304 234.377C575.431 235.029 574.995 235.816 574.995 236.741L571.362 236.741C571.362 235.686 571.733 234.67 572.475 233.694C573.231 232.704 574.246 231.923 575.522 231.35C576.811 230.777 578.224 230.491 579.761 230.491C582.196 230.491 584.103 231.103 585.483 232.327C586.863 233.538 587.58 235.211 587.632 237.346L587.632 247.073C587.632 249.013 587.879 250.556 588.374 251.702L588.374 252.014L584.585 252.014ZM578.589 249.26C579.722 249.26 580.796 248.967 581.811 248.381C582.827 247.795 583.563 247.034 584.018 246.096L584.018 241.76L581.186 241.76C576.759 241.76 574.546 243.056 574.546 245.647C574.546 246.78 574.923 247.665 575.679 248.303C576.434 248.941 577.404 249.26 578.589 249.26ZM596.714 230.881L596.831 233.538C598.446 231.506 600.555 230.491 603.159 230.491C607.625 230.491 609.878 233.01 609.917 238.049L609.917 252.014L606.304 252.014L606.304 238.03C606.291 236.506 605.939 235.38 605.249 234.651C604.572 233.922 603.511 233.557 602.065 233.557C600.893 233.557 599.865 233.87 598.979 234.495C598.094 235.12 597.404 235.94 596.909 236.956L596.909 252.014L593.296 252.014L593.296 230.881L596.714 230.881ZM614.487 241.272C614.487 238.03 615.255 235.426 616.792 233.46C618.328 231.48 620.34 230.491 622.827 230.491C625.301 230.491 627.261 231.337 628.706 233.03L628.706 222.014L632.319 222.014L632.319 252.014L628.999 252.014L628.823 249.749C627.378 251.519 625.366 252.405 622.788 252.405C620.34 252.405 618.341 251.402 616.792 249.397C615.255 247.392 614.487 244.775 614.487 241.545L614.487 241.272ZM618.1 241.682C618.1 244.078 618.595 245.953 619.585 247.307C620.574 248.661 621.942 249.338 623.686 249.338C625.978 249.338 627.651 248.31 628.706 246.252L628.706 236.545C627.625 234.553 625.965 233.557 623.725 233.557C621.955 233.557 620.574 234.241 619.585 235.608C618.595 236.975 618.1 239 618.1 241.682ZM648.432 252.014L648.432 223.577L657.729 223.577C660.815 223.577 663.133 224.215 664.682 225.491C666.245 226.767 667.026 228.655 667.026 231.155C667.026 232.483 666.649 233.661 665.893 234.69C665.138 235.706 664.11 236.493 662.807 237.053C664.344 237.483 665.555 238.303 666.44 239.514C667.339 240.712 667.788 242.144 667.788 243.811C667.788 246.363 666.961 248.368 665.307 249.827C663.654 251.285 661.317 252.014 658.296 252.014L648.432 252.014ZM652.182 238.713L652.182 248.948L658.374 248.948C660.119 248.948 661.492 248.499 662.495 247.6C663.511 246.689 664.018 245.439 664.018 243.85C664.018 240.426 662.156 238.713 658.432 238.713L652.182 238.713ZM652.182 235.706L657.847 235.706C659.487 235.706 660.796 235.295 661.772 234.475C662.762 233.655 663.257 232.542 663.257 231.135C663.257 229.573 662.801 228.44 661.89 227.737C660.978 227.021 659.591 226.663 657.729 226.663L652.182 226.663L652.182 235.706ZM685.835 252.014C685.627 251.598 685.457 250.855 685.327 249.788C683.647 251.532 681.642 252.405 679.311 252.405C677.228 252.405 675.516 251.819 674.175 250.647C672.847 249.462 672.182 247.965 672.182 246.155C672.182 243.954 673.016 242.249 674.682 241.038C676.362 239.814 678.719 239.202 681.753 239.202L685.268 239.202L685.268 237.542C685.268 236.279 684.891 235.276 684.136 234.534C683.38 233.779 682.267 233.401 680.796 233.401C679.507 233.401 678.426 233.726 677.554 234.377C676.681 235.029 676.245 235.816 676.245 236.741L672.612 236.741C672.612 235.686 672.983 234.67 673.725 233.694C674.481 232.704 675.496 231.923 676.772 231.35C678.061 230.777 679.474 230.491 681.011 230.491C683.446 230.491 685.353 231.103 686.733 232.327C688.113 233.538 688.83 235.211 688.882 237.346L688.882 247.073C688.882 249.013 689.129 250.556 689.624 251.702L689.624 252.014L685.835 252.014ZM679.839 249.26C680.972 249.26 682.046 248.967 683.061 248.381C684.077 247.795 684.813 247.034 685.268 246.096L685.268 241.76L682.436 241.76C678.009 241.76 675.796 243.056 675.796 245.647C675.796 246.78 676.173 247.665 676.929 248.303C677.684 248.941 678.654 249.26 679.839 249.26ZM703.022 249.456C704.311 249.456 705.438 249.065 706.401 248.284C707.365 247.502 707.899 246.526 708.003 245.354L711.421 245.354C711.356 246.565 710.939 247.717 710.171 248.811C709.403 249.905 708.374 250.777 707.085 251.428C705.809 252.079 704.455 252.405 703.022 252.405C700.145 252.405 697.853 251.448 696.147 249.534C694.455 247.607 693.608 244.976 693.608 241.643L693.608 241.038C693.608 238.98 693.986 237.151 694.741 235.549C695.496 233.948 696.577 232.704 697.983 231.819C699.403 230.933 701.076 230.491 703.003 230.491C705.373 230.491 707.339 231.2 708.901 232.62C710.477 234.039 711.317 235.881 711.421 238.147L708.003 238.147C707.899 236.78 707.378 235.66 706.44 234.788C705.516 233.902 704.37 233.46 703.003 233.46C701.167 233.46 699.741 234.124 698.725 235.452C697.723 236.767 697.222 238.674 697.222 241.174L697.222 241.858C697.222 244.293 697.723 246.168 698.725 247.483C699.728 248.798 701.16 249.456 703.022 249.456ZM721.382 242.229L719.116 244.592L719.116 252.014L715.503 252.014L715.503 222.014L719.116 222.014L719.116 240.159L721.05 237.835L727.632 230.881L732.026 230.881L723.804 239.71L732.983 252.014L728.745 252.014L721.382 242.229ZM744.136 252.405C741.271 252.405 738.94 251.467 737.143 249.592C735.347 247.704 734.448 245.185 734.448 242.034L734.448 241.37C734.448 239.273 734.845 237.405 735.64 235.764C736.447 234.111 737.567 232.821 738.999 231.897C740.444 230.96 742.007 230.491 743.686 230.491C746.434 230.491 748.569 231.396 750.093 233.206C751.616 235.016 752.378 237.607 752.378 240.979L752.378 242.483L738.061 242.483C738.113 244.566 738.719 246.252 739.878 247.542C741.05 248.818 742.534 249.456 744.331 249.456C745.607 249.456 746.688 249.195 747.573 248.674C748.459 248.154 749.233 247.463 749.897 246.604L752.104 248.323C750.334 251.044 747.677 252.405 744.136 252.405ZM743.686 233.46C742.228 233.46 741.004 233.993 740.015 235.061C739.025 236.116 738.413 237.6 738.179 239.514L748.765 239.514L748.765 239.241C748.66 237.405 748.166 235.986 747.28 234.983C746.395 233.967 745.197 233.46 743.686 233.46ZM759.995 230.881L760.112 233.538C761.727 231.506 763.836 230.491 766.44 230.491C770.906 230.491 773.159 233.01 773.198 238.049L773.198 252.014L769.585 252.014L769.585 238.03C769.572 236.506 769.22 235.38 768.53 234.651C767.853 233.922 766.792 233.557 765.347 233.557C764.175 233.557 763.146 233.87 762.261 234.495C761.375 235.12 760.685 235.94 760.19 236.956L760.19 252.014L756.577 252.014L756.577 230.881L759.995 230.881ZM777.768 241.272C777.768 238.03 778.537 235.426 780.073 233.46C781.61 231.48 783.621 230.491 786.108 230.491C788.582 230.491 790.542 231.337 791.987 233.03L791.987 222.014L795.6 222.014L795.6 252.014L792.28 252.014L792.104 249.749C790.659 251.519 788.647 252.405 786.069 252.405C783.621 252.405 781.623 251.402 780.073 249.397C778.537 247.392 777.768 244.775 777.768 241.545L777.768 241.272ZM781.382 241.682C781.382 244.078 781.877 245.953 782.866 247.307C783.856 248.661 785.223 249.338 786.968 249.338C789.259 249.338 790.932 248.31 791.987 246.252L791.987 236.545C790.906 234.553 789.246 233.557 787.007 233.557C785.236 233.557 783.856 234.241 782.866 235.608C781.877 236.975 781.382 239 781.382 241.682Z" fill="white"/>
<defs>
<filter id="filter0_d" x="0.715332" y="1.01441" width="939.116" height="284.772" filterUnits="userSpaceOnUse" color-interpolation-filters="sRGB">
<feFlood flood-opacity="0" result="BackgroundImageFix"/>
<feColorMatrix in="SourceAlpha" type="matrix" values="0 0 0 0 0 0 0 0 0 0 0 0 0 0 0 0 0 0 127 0"/>
<feOffset dy="4"/>
<feGaussianBlur stdDeviation="2"/>
<feColorMatrix type="matrix" values="0 0 0 0 0 0 0 0 0 0 0 0 0 0 0 0 0 0 0.25 0"/>
<feBlend mode="normal" in2="BackgroundImageFix" result="effect1_dropShadow"/>
<feBlend mode="normal" in="SourceGraphic" in2="effect1_dropShadow" result="shape"/>
</filter>
</defs>
</svg>
