<svg width="940" height="482" viewBox="0 0 940 482" fill="none" xmlns="http://www.w3.org/2000/svg">
<rect x="4.35046" y="15.0141" width="928" height="460" fill="#73818C"/>
<g filter="url(#filter0_d)">
<path d="M933.865 277.786L895.413 241.476C856.958 205.503 780.058 132.376 702.922 91.5642C625.79 50.2465 548.422 41.2448 470.798 67.4278C393.17 94.1171 315.286 155.991 237.593 191.709C159.899 227.426 82.4088 235.3 43.6592 239.827L4.9121 244.017L6.68251 1.01441L45.3971 1.29647C84.1116 1.57852 161.541 2.14264 238.97 2.70675C316.399 3.27087 393.828 3.83498 471.257 4.39909C548.686 4.96321 626.115 5.52732 703.544 6.09144C780.974 6.65555 858.403 7.21966 897.117 7.50172L935.832 7.78378L933.865 277.786Z" fill="#5B73EA"/>
</g>
<path d="M288.413 193.51L281.733 193.51L281.733 205.014L277.964 205.014L277.964 176.577L287.378 176.577C290.581 176.577 293.042 177.306 294.761 178.764C296.492 180.223 297.358 182.345 297.358 185.131C297.358 186.902 296.877 188.445 295.913 189.76C294.962 191.075 293.634 192.058 291.929 192.71L298.608 204.78L298.608 205.014L294.585 205.014L288.413 193.51ZM281.733 190.444L287.495 190.444C289.357 190.444 290.835 189.962 291.929 188.999C293.035 188.035 293.589 186.746 293.589 185.131C293.589 183.374 293.061 182.026 292.007 181.088C290.965 180.151 289.455 179.676 287.475 179.663L281.733 179.663L281.733 190.444ZM310.835 205.405C307.97 205.405 305.64 204.467 303.843 202.592C302.046 200.704 301.147 198.185 301.147 195.034L301.147 194.37C301.147 192.273 301.544 190.405 302.339 188.764C303.146 187.111 304.266 185.821 305.698 184.897C307.143 183.96 308.706 183.491 310.386 183.491C313.133 183.491 315.268 184.396 316.792 186.206C318.315 188.016 319.077 190.607 319.077 193.979L319.077 195.483L304.761 195.483C304.813 197.566 305.418 199.252 306.577 200.542C307.749 201.818 309.233 202.456 311.03 202.456C312.306 202.456 313.387 202.195 314.272 201.674C315.158 201.154 315.932 200.463 316.597 199.604L318.804 201.323C317.033 204.044 314.377 205.405 310.835 205.405ZM310.386 186.46C308.927 186.46 307.703 186.993 306.714 188.061C305.724 189.116 305.112 190.6 304.878 192.514L315.464 192.514L315.464 192.241C315.36 190.405 314.865 188.986 313.979 187.983C313.094 186.967 311.896 186.46 310.386 186.46ZM336.323 205.014C336.115 204.598 335.946 203.855 335.815 202.788C334.136 204.532 332.13 205.405 329.8 205.405C327.716 205.405 326.004 204.819 324.663 203.647C323.335 202.462 322.671 200.965 322.671 199.155C322.671 196.954 323.504 195.249 325.171 194.038C326.85 192.814 329.207 192.202 332.241 192.202L335.757 192.202L335.757 190.542C335.757 189.279 335.379 188.276 334.624 187.534C333.869 186.779 332.755 186.401 331.284 186.401C329.995 186.401 328.914 186.726 328.042 187.377C327.169 188.029 326.733 188.816 326.733 189.741L323.1 189.741C323.1 188.686 323.472 187.67 324.214 186.694C324.969 185.704 325.985 184.923 327.261 184.35C328.55 183.777 329.962 183.491 331.499 183.491C333.934 183.491 335.841 184.103 337.222 185.327C338.602 186.538 339.318 188.211 339.37 190.346L339.37 200.073C339.37 202.013 339.617 203.556 340.112 204.702L340.112 205.014L336.323 205.014ZM330.327 202.26C331.46 202.26 332.534 201.967 333.55 201.381C334.565 200.795 335.301 200.034 335.757 199.096L335.757 194.76L332.925 194.76C328.498 194.76 326.284 196.056 326.284 198.647C326.284 199.78 326.662 200.665 327.417 201.303C328.172 201.941 329.142 202.26 330.327 202.26ZM353.511 202.456C354.8 202.456 355.926 202.065 356.89 201.284C357.853 200.502 358.387 199.526 358.491 198.354L361.909 198.354C361.844 199.565 361.427 200.717 360.659 201.811C359.891 202.905 358.862 203.777 357.573 204.428C356.297 205.079 354.943 205.405 353.511 205.405C350.633 205.405 348.341 204.448 346.636 202.534C344.943 200.607 344.097 197.976 344.097 194.643L344.097 194.038C344.097 191.98 344.474 190.151 345.229 188.549C345.985 186.948 347.065 185.704 348.472 184.819C349.891 183.933 351.564 183.491 353.491 183.491C355.861 183.491 357.827 184.2 359.39 185.62C360.965 187.039 361.805 188.881 361.909 191.147L358.491 191.147C358.387 189.78 357.866 188.66 356.929 187.788C356.004 186.902 354.858 186.46 353.491 186.46C351.655 186.46 350.229 187.124 349.214 188.452C348.211 189.767 347.71 191.674 347.71 194.174L347.71 194.858C347.71 197.293 348.211 199.168 349.214 200.483C350.216 201.798 351.649 202.456 353.511 202.456ZM370.874 178.764L370.874 183.881L374.819 183.881L374.819 186.674L370.874 186.674L370.874 199.78C370.874 200.626 371.05 201.264 371.401 201.694C371.753 202.111 372.352 202.319 373.198 202.319C373.615 202.319 374.188 202.241 374.917 202.085L374.917 205.014C373.966 205.275 373.042 205.405 372.143 205.405C370.529 205.405 369.311 204.917 368.491 203.94C367.671 202.963 367.261 201.577 367.261 199.78L367.261 186.674L363.413 186.674L363.413 183.881L367.261 183.881L367.261 178.764L370.874 178.764ZM386.577 194.409L377.046 194.409L377.046 191.46L386.577 191.46L386.577 194.409ZM400.327 187.124C399.78 187.032 399.188 186.987 398.55 186.987C396.18 186.987 394.572 187.996 393.725 190.014L393.725 205.014L390.112 205.014L390.112 183.881L393.628 183.881L393.686 186.323C394.871 184.435 396.551 183.491 398.725 183.491C399.429 183.491 399.962 183.582 400.327 183.764L400.327 187.124ZM412.046 205.405C409.181 205.405 406.85 204.467 405.054 202.592C403.257 200.704 402.358 198.185 402.358 195.034L402.358 194.37C402.358 192.273 402.755 190.405 403.55 188.764C404.357 187.111 405.477 185.821 406.909 184.897C408.354 183.96 409.917 183.491 411.597 183.491C414.344 183.491 416.479 184.396 418.003 186.206C419.526 188.016 420.288 190.607 420.288 193.979L420.288 195.483L405.972 195.483C406.024 197.566 406.629 199.252 407.788 200.542C408.96 201.818 410.444 202.456 412.241 202.456C413.517 202.456 414.598 202.195 415.483 201.674C416.369 201.154 417.143 200.463 417.807 199.604L420.015 201.323C418.244 204.044 415.587 205.405 412.046 205.405ZM411.597 186.46C410.138 186.46 408.914 186.993 407.925 188.061C406.935 189.116 406.323 190.6 406.089 192.514L416.675 192.514L416.675 192.241C416.571 190.405 416.076 188.986 415.19 187.983C414.305 186.967 413.107 186.46 411.597 186.46ZM423.608 194.272C423.608 191.03 424.377 188.426 425.913 186.46C427.449 184.48 429.461 183.491 431.948 183.491C434.422 183.491 436.382 184.337 437.827 186.03L437.827 175.014L441.44 175.014L441.44 205.014L438.12 205.014L437.944 202.749C436.499 204.519 434.487 205.405 431.909 205.405C429.461 205.405 427.462 204.402 425.913 202.397C424.377 200.392 423.608 197.775 423.608 194.545L423.608 194.272ZM427.222 194.682C427.222 197.078 427.716 198.953 428.706 200.307C429.696 201.661 431.063 202.338 432.807 202.338C435.099 202.338 436.772 201.31 437.827 199.252L437.827 189.545C436.746 187.553 435.086 186.557 432.847 186.557C431.076 186.557 429.696 187.241 428.706 188.608C427.716 189.975 427.222 192 427.222 194.682ZM460.112 202.924C458.706 204.578 456.642 205.405 453.921 205.405C451.668 205.405 449.949 204.754 448.765 203.452C447.593 202.137 447 200.196 446.987 197.631L446.987 183.881L450.6 183.881L450.6 197.534C450.6 200.737 451.903 202.338 454.507 202.338C457.267 202.338 459.103 201.31 460.015 199.252L460.015 183.881L463.628 183.881L463.628 205.014L460.19 205.014L460.112 202.924ZM476.225 191.596L480.913 183.881L485.132 183.881L478.218 194.331L485.347 205.014L481.167 205.014L476.284 197.104L471.401 205.014L467.202 205.014L474.331 194.331L467.417 183.881L471.597 183.881L476.225 191.596ZM507.847 192.338C504.63 191.414 502.287 190.281 500.815 188.94C499.357 187.586 498.628 185.919 498.628 183.94C498.628 181.7 499.52 179.851 501.304 178.393C503.1 176.922 505.431 176.186 508.296 176.186C510.249 176.186 511.987 176.564 513.511 177.319C515.047 178.074 516.232 179.116 517.065 180.444C517.912 181.772 518.335 183.224 518.335 184.799L514.565 184.799C514.565 183.081 514.018 181.733 512.925 180.756C511.831 179.767 510.288 179.272 508.296 179.272C506.447 179.272 505.002 179.682 503.96 180.502C502.931 181.31 502.417 182.436 502.417 183.881C502.417 185.04 502.905 186.023 503.882 186.831C504.871 187.625 506.544 188.354 508.901 189.018C511.271 189.682 513.12 190.418 514.448 191.225C515.789 192.019 516.779 192.95 517.417 194.018C518.068 195.086 518.393 196.342 518.393 197.788C518.393 200.092 517.495 201.941 515.698 203.335C513.901 204.715 511.499 205.405 508.491 205.405C506.538 205.405 504.715 205.034 503.022 204.292C501.33 203.536 500.021 202.508 499.097 201.206C498.185 199.904 497.729 198.426 497.729 196.772L501.499 196.772C501.499 198.491 502.13 199.851 503.393 200.854C504.669 201.844 506.369 202.338 508.491 202.338C510.47 202.338 511.987 201.935 513.042 201.127C514.097 200.32 514.624 199.22 514.624 197.827C514.624 196.433 514.136 195.359 513.159 194.604C512.182 193.836 510.412 193.081 507.847 192.338ZM526.577 205.014L522.964 205.014L522.964 183.881L526.577 183.881L526.577 205.014ZM522.671 178.276C522.671 177.69 522.847 177.195 523.198 176.792C523.563 176.388 524.097 176.186 524.8 176.186C525.503 176.186 526.037 176.388 526.401 176.792C526.766 177.195 526.948 177.69 526.948 178.276C526.948 178.862 526.766 179.35 526.401 179.741C526.037 180.131 525.503 180.327 524.8 180.327C524.097 180.327 523.563 180.131 523.198 179.741C522.847 179.35 522.671 178.862 522.671 178.276ZM535.776 183.881L535.874 186.225C537.423 184.402 539.513 183.491 542.143 183.491C545.099 183.491 547.111 184.624 548.179 186.889C548.882 185.874 549.793 185.053 550.913 184.428C552.046 183.803 553.38 183.491 554.917 183.491C559.552 183.491 561.909 185.945 561.987 190.854L561.987 205.014L558.374 205.014L558.374 191.069C558.374 189.558 558.029 188.432 557.339 187.69C556.649 186.935 555.49 186.557 553.862 186.557C552.521 186.557 551.408 186.961 550.522 187.768C549.637 188.562 549.123 189.637 548.979 190.991L548.979 205.014L545.347 205.014L545.347 191.167C545.347 188.094 543.843 186.557 540.835 186.557C538.465 186.557 536.844 187.566 535.972 189.585L535.972 205.014L532.358 205.014L532.358 183.881L535.776 183.881ZM585.307 194.682C585.307 197.898 584.572 200.489 583.1 202.456C581.629 204.422 579.637 205.405 577.124 205.405C574.559 205.405 572.541 204.591 571.069 202.963L571.069 213.139L567.456 213.139L567.456 183.881L570.757 183.881L570.932 186.225C572.404 184.402 574.448 183.491 577.065 183.491C579.604 183.491 581.61 184.448 583.081 186.362C584.565 188.276 585.307 190.939 585.307 194.35L585.307 194.682ZM581.694 194.272C581.694 191.889 581.186 190.008 580.171 188.627C579.155 187.247 577.762 186.557 575.991 186.557C573.804 186.557 572.163 187.527 571.069 189.467L571.069 199.565C572.15 201.492 573.804 202.456 576.03 202.456C577.762 202.456 579.136 201.772 580.151 200.405C581.18 199.025 581.694 196.98 581.694 194.272ZM593.843 205.014L590.229 205.014L590.229 175.014L593.843 175.014L593.843 205.014ZM608.413 205.405C605.548 205.405 603.218 204.467 601.421 202.592C599.624 200.704 598.725 198.185 598.725 195.034L598.725 194.37C598.725 192.273 599.123 190.405 599.917 188.764C600.724 187.111 601.844 185.821 603.276 184.897C604.722 183.96 606.284 183.491 607.964 183.491C610.711 183.491 612.847 184.396 614.37 186.206C615.893 188.016 616.655 190.607 616.655 193.979L616.655 195.483L602.339 195.483C602.391 197.566 602.996 199.252 604.155 200.542C605.327 201.818 606.811 202.456 608.608 202.456C609.884 202.456 610.965 202.195 611.85 201.674C612.736 201.154 613.511 200.463 614.175 199.604L616.382 201.323C614.611 204.044 611.955 205.405 608.413 205.405ZM607.964 186.46C606.505 186.46 605.281 186.993 604.292 188.061C603.302 189.116 602.69 190.6 602.456 192.514L613.042 192.514L613.042 192.241C612.938 190.405 612.443 188.986 611.557 187.983C610.672 186.967 609.474 186.46 607.964 186.46ZM639.253 202.456C640.542 202.456 641.668 202.065 642.632 201.284C643.595 200.502 644.129 199.526 644.233 198.354L647.651 198.354C647.586 199.565 647.169 200.717 646.401 201.811C645.633 202.905 644.604 203.777 643.315 204.428C642.039 205.079 640.685 205.405 639.253 205.405C636.375 205.405 634.084 204.448 632.378 202.534C630.685 200.607 629.839 197.976 629.839 194.643L629.839 194.038C629.839 191.98 630.216 190.151 630.972 188.549C631.727 186.948 632.807 185.704 634.214 184.819C635.633 183.933 637.306 183.491 639.233 183.491C641.603 183.491 643.569 184.2 645.132 185.62C646.707 187.039 647.547 188.881 647.651 191.147L644.233 191.147C644.129 189.78 643.608 188.66 642.671 187.788C641.746 186.902 640.6 186.46 639.233 186.46C637.397 186.46 635.972 187.124 634.956 188.452C633.953 189.767 633.452 191.674 633.452 194.174L633.452 194.858C633.452 197.293 633.953 199.168 634.956 200.483C635.959 201.798 637.391 202.456 639.253 202.456ZM664.761 205.014C664.552 204.598 664.383 203.855 664.253 202.788C662.573 204.532 660.568 205.405 658.237 205.405C656.154 205.405 654.442 204.819 653.1 203.647C651.772 202.462 651.108 200.965 651.108 199.155C651.108 196.954 651.942 195.249 653.608 194.038C655.288 192.814 657.645 192.202 660.679 192.202L664.194 192.202L664.194 190.542C664.194 189.279 663.817 188.276 663.061 187.534C662.306 186.779 661.193 186.401 659.722 186.401C658.432 186.401 657.352 186.726 656.479 187.377C655.607 188.029 655.171 188.816 655.171 189.741L651.538 189.741C651.538 188.686 651.909 187.67 652.651 186.694C653.406 185.704 654.422 184.923 655.698 184.35C656.987 183.777 658.4 183.491 659.936 183.491C662.371 183.491 664.279 184.103 665.659 185.327C667.039 186.538 667.755 188.211 667.807 190.346L667.807 200.073C667.807 202.013 668.055 203.556 668.55 204.702L668.55 205.014L664.761 205.014ZM658.765 202.26C659.897 202.26 660.972 201.967 661.987 201.381C663.003 200.795 663.738 200.034 664.194 199.096L664.194 194.76L661.362 194.76C656.935 194.76 654.722 196.056 654.722 198.647C654.722 199.78 655.099 200.665 655.854 201.303C656.61 201.941 657.58 202.26 658.765 202.26ZM677.397 205.014L673.784 205.014L673.784 175.014L677.397 175.014L677.397 205.014ZM691.675 202.456C692.964 202.456 694.09 202.065 695.054 201.284C696.017 200.502 696.551 199.526 696.655 198.354L700.073 198.354C700.008 199.565 699.591 200.717 698.823 201.811C698.055 202.905 697.026 203.777 695.737 204.428C694.461 205.079 693.107 205.405 691.675 205.405C688.797 205.405 686.505 204.448 684.8 202.534C683.107 200.607 682.261 197.976 682.261 194.643L682.261 194.038C682.261 191.98 682.638 190.151 683.393 188.549C684.149 186.948 685.229 185.704 686.636 184.819C688.055 183.933 689.728 183.491 691.655 183.491C694.025 183.491 695.991 184.2 697.554 185.62C699.129 187.039 699.969 188.881 700.073 191.147L696.655 191.147C696.551 189.78 696.03 188.66 695.093 187.788C694.168 186.902 693.022 186.46 691.655 186.46C689.819 186.46 688.393 187.124 687.378 188.452C686.375 189.767 685.874 191.674 685.874 194.174L685.874 194.858C685.874 197.293 686.375 199.168 687.378 200.483C688.38 201.798 689.813 202.456 691.675 202.456ZM717.182 202.924C715.776 204.578 713.712 205.405 710.991 205.405C708.738 205.405 707.02 204.754 705.835 203.452C704.663 202.137 704.071 200.196 704.057 197.631L704.057 183.881L707.671 183.881L707.671 197.534C707.671 200.737 708.973 202.338 711.577 202.338C714.337 202.338 716.173 201.31 717.085 199.252L717.085 183.881L720.698 183.881L720.698 205.014L717.261 205.014L717.182 202.924ZM730.132 205.014L726.518 205.014L726.518 175.014L730.132 175.014L730.132 205.014ZM748.979 205.014C748.771 204.598 748.602 203.855 748.472 202.788C746.792 204.532 744.787 205.405 742.456 205.405C740.373 205.405 738.66 204.819 737.319 203.647C735.991 202.462 735.327 200.965 735.327 199.155C735.327 196.954 736.16 195.249 737.827 194.038C739.507 192.814 741.863 192.202 744.897 192.202L748.413 192.202L748.413 190.542C748.413 189.279 748.035 188.276 747.28 187.534C746.525 186.779 745.412 186.401 743.94 186.401C742.651 186.401 741.571 186.726 740.698 187.377C739.826 188.029 739.39 188.816 739.39 189.741L735.757 189.741C735.757 188.686 736.128 187.67 736.87 186.694C737.625 185.704 738.641 184.923 739.917 184.35C741.206 183.777 742.619 183.491 744.155 183.491C746.59 183.491 748.498 184.103 749.878 185.327C751.258 186.538 751.974 188.211 752.026 190.346L752.026 200.073C752.026 202.013 752.274 203.556 752.768 204.702L752.768 205.014L748.979 205.014ZM742.983 202.26C744.116 202.26 745.19 201.967 746.206 201.381C747.222 200.795 747.957 200.034 748.413 199.096L748.413 194.76L745.581 194.76C741.154 194.76 738.94 196.056 738.94 198.647C738.94 199.78 739.318 200.665 740.073 201.303C740.828 201.941 741.798 202.26 742.983 202.26ZM762.593 178.764L762.593 183.881L766.538 183.881L766.538 186.674L762.593 186.674L762.593 199.78C762.593 200.626 762.768 201.264 763.12 201.694C763.472 202.111 764.071 202.319 764.917 202.319C765.334 202.319 765.906 202.241 766.636 202.085L766.636 205.014C765.685 205.275 764.761 205.405 763.862 205.405C762.248 205.405 761.03 204.917 760.21 203.94C759.39 202.963 758.979 201.577 758.979 199.78L758.979 186.674L755.132 186.674L755.132 183.881L758.979 183.881L758.979 178.764L762.593 178.764ZM769.429 194.252C769.429 192.182 769.832 190.32 770.64 188.667C771.46 187.013 772.593 185.737 774.038 184.838C775.496 183.94 777.156 183.491 779.018 183.491C781.896 183.491 784.22 184.487 785.991 186.479C787.775 188.471 788.667 191.121 788.667 194.428L788.667 194.682C788.667 196.739 788.27 198.588 787.475 200.229C786.694 201.857 785.568 203.126 784.097 204.038C782.638 204.949 780.959 205.405 779.057 205.405C776.193 205.405 773.869 204.409 772.085 202.417C770.314 200.424 769.429 197.788 769.429 194.506L769.429 194.252ZM773.061 194.682C773.061 197.026 773.602 198.907 774.682 200.327C775.776 201.746 777.235 202.456 779.057 202.456C780.893 202.456 782.352 201.739 783.432 200.307C784.513 198.862 785.054 196.844 785.054 194.252C785.054 191.935 784.5 190.06 783.393 188.627C782.3 187.182 780.841 186.46 779.018 186.46C777.235 186.46 775.796 187.169 774.702 188.588C773.608 190.008 773.061 192.039 773.061 194.682ZM803.413 187.124C802.866 187.032 802.274 186.987 801.636 186.987C799.266 186.987 797.658 187.996 796.811 190.014L796.811 205.014L793.198 205.014L793.198 183.881L796.714 183.881L796.772 186.323C797.957 184.435 799.637 183.491 801.811 183.491C802.515 183.491 803.048 183.582 803.413 183.764L803.413 187.124Z" fill="white"/>
<defs>
<filter id="filter0_d" x="0.715332" y="1.01441" width="939.116" height="284.772" filterUnits="userSpaceOnUse" color-interpolation-filters="sRGB">
<feFlood flood-opacity="0" result="BackgroundImageFix"/>
<feColorMatrix in="SourceAlpha" type="matrix" values="0 0 0 0 0 0 0 0 0 0 0 0 0 0 0 0 0 0 127 0"/>
<feOffset dy="4"/>
<feGaussianBlur stdDeviation="2"/>
<feColorMatrix type="matrix" values="0 0 0 0 0 0 0 0 0 0 0 0 0 0 0 0 0 0 0.25 0"/>
<feBlend mode="normal" in2="BackgroundImageFix" result="effect1_dropShadow"/>
<feBlend mode="normal" in="SourceGraphic" in2="effect1_dropShadow" result="shape"/>
</filter>
</defs>
</svg>
