<svg width="940" height="482" viewBox="0 0 940 482" fill="none" xmlns="http://www.w3.org/2000/svg">
<rect x="4.35046" y="15.0141" width="928" height="460" fill="#73818C"/>
<g filter="url(#filter0_d)">
<path d="M933.865 277.786L895.413 241.476C856.958 205.503 780.058 132.376 702.922 91.5642C625.79 50.2465 548.422 41.2448 470.798 67.4278C393.17 94.1171 315.286 155.991 237.593 191.709C159.899 227.426 82.4089 235.3 43.6593 239.827L4.91217 244.017L6.68257 1.01441L45.3971 1.29647C84.1117 1.57852 161.541 2.14264 238.97 2.70675C316.399 3.27087 393.828 3.83498 471.257 4.39909C548.686 4.96321 626.115 5.52732 703.544 6.09144C780.974 6.65555 858.403 7.21966 897.117 7.50172L935.832 7.78378L933.865 277.786Z" fill="#5B73EA"/>
</g>
<path d="M290.933 179.663L281.792 179.663L281.792 205.014L278.061 205.014L278.061 179.663L268.94 179.663L268.94 176.577L290.933 176.577L290.933 179.663ZM300.093 199.721L305.015 183.881L308.882 183.881L300.386 208.276C299.071 211.792 296.981 213.549 294.116 213.549L293.433 213.491L292.085 213.237L292.085 210.307L293.061 210.385C294.285 210.385 295.236 210.138 295.913 209.643C296.603 209.148 297.17 208.243 297.612 206.928L298.413 204.78L290.874 183.881L294.819 183.881L300.093 199.721ZM329.976 194.682C329.976 197.898 329.24 200.489 327.768 202.456C326.297 204.422 324.305 205.405 321.792 205.405C319.227 205.405 317.209 204.591 315.737 202.963L315.737 213.139L312.124 213.139L312.124 183.881L315.425 183.881L315.601 186.225C317.072 184.402 319.116 183.491 321.733 183.491C324.272 183.491 326.278 184.448 327.749 186.362C329.233 188.276 329.976 190.939 329.976 194.35L329.976 194.682ZM326.362 194.272C326.362 191.889 325.854 190.008 324.839 188.627C323.823 187.247 322.43 186.557 320.659 186.557C318.472 186.557 316.831 187.527 315.737 189.467L315.737 199.565C316.818 201.492 318.472 202.456 320.698 202.456C322.43 202.456 323.804 201.772 324.819 200.405C325.848 199.025 326.362 196.98 326.362 194.272ZM343.354 205.405C340.49 205.405 338.159 204.467 336.362 202.592C334.565 200.704 333.667 198.185 333.667 195.034L333.667 194.37C333.667 192.273 334.064 190.405 334.858 188.764C335.666 187.111 336.785 185.821 338.218 184.897C339.663 183.96 341.226 183.491 342.905 183.491C345.653 183.491 347.788 184.396 349.311 186.206C350.835 188.016 351.597 190.607 351.597 193.979L351.597 195.483L337.28 195.483C337.332 197.566 337.938 199.252 339.097 200.542C340.268 201.818 341.753 202.456 343.55 202.456C344.826 202.456 345.907 202.195 346.792 201.674C347.677 201.154 348.452 200.463 349.116 199.604L351.323 201.323C349.552 204.044 346.896 205.405 343.354 205.405ZM342.905 186.46C341.447 186.46 340.223 186.993 339.233 188.061C338.244 189.116 337.632 190.6 337.397 192.514L347.983 192.514L347.983 192.241C347.879 190.405 347.384 188.986 346.499 187.983C345.614 186.967 344.416 186.46 342.905 186.46ZM384.429 200.034L388.491 183.881L392.104 183.881L385.952 205.014L383.022 205.014L377.886 188.999L372.886 205.014L369.956 205.014L363.823 183.881L367.417 183.881L371.577 199.702L376.499 183.881L379.409 183.881L384.429 200.034ZM406.011 187.124C405.464 187.032 404.871 186.987 404.233 186.987C401.864 186.987 400.255 187.996 399.409 190.014L399.409 205.014L395.796 205.014L395.796 183.881L399.311 183.881L399.37 186.323C400.555 184.435 402.235 183.491 404.409 183.491C405.112 183.491 405.646 183.582 406.011 183.764L406.011 187.124ZM413.276 205.014L409.663 205.014L409.663 183.881L413.276 183.881L413.276 205.014ZM409.37 178.276C409.37 177.69 409.546 177.195 409.897 176.792C410.262 176.388 410.796 176.186 411.499 176.186C412.202 176.186 412.736 176.388 413.101 176.792C413.465 177.195 413.647 177.69 413.647 178.276C413.647 178.862 413.465 179.35 413.101 179.741C412.736 180.131 412.202 180.327 411.499 180.327C410.796 180.327 410.262 180.131 409.897 179.741C409.546 179.35 409.37 178.862 409.37 178.276ZM423.979 178.764L423.979 183.881L427.925 183.881L427.925 186.674L423.979 186.674L423.979 199.78C423.979 200.626 424.155 201.264 424.507 201.694C424.858 202.111 425.457 202.319 426.304 202.319C426.72 202.319 427.293 202.241 428.022 202.085L428.022 205.014C427.072 205.275 426.147 205.405 425.249 205.405C423.634 205.405 422.417 204.917 421.597 203.94C420.776 202.963 420.366 201.577 420.366 199.78L420.366 186.674L416.518 186.674L416.518 183.881L420.366 183.881L420.366 178.764L423.979 178.764ZM440.933 205.405C438.068 205.405 435.737 204.467 433.94 202.592C432.143 200.704 431.245 198.185 431.245 195.034L431.245 194.37C431.245 192.273 431.642 190.405 432.436 188.764C433.244 187.111 434.364 185.821 435.796 184.897C437.241 183.96 438.804 183.491 440.483 183.491C443.231 183.491 445.366 184.396 446.89 186.206C448.413 188.016 449.175 190.607 449.175 193.979L449.175 195.483L434.858 195.483C434.91 197.566 435.516 199.252 436.675 200.542C437.847 201.818 439.331 202.456 441.128 202.456C442.404 202.456 443.485 202.195 444.37 201.674C445.255 201.154 446.03 200.463 446.694 199.604L448.901 201.323C447.13 204.044 444.474 205.405 440.933 205.405ZM440.483 186.46C439.025 186.46 437.801 186.993 436.811 188.061C435.822 189.116 435.21 190.6 434.976 192.514L445.561 192.514L445.561 192.241C445.457 190.405 444.963 188.986 444.077 187.983C443.192 186.967 441.994 186.46 440.483 186.46ZM463.589 187.124C463.042 187.032 462.449 186.987 461.811 186.987C459.442 186.987 457.834 187.996 456.987 190.014L456.987 205.014L453.374 205.014L453.374 183.881L456.89 183.881L456.948 186.323C458.133 184.435 459.813 183.491 461.987 183.491C462.69 183.491 463.224 183.582 463.589 183.764L463.589 187.124ZM495.561 200.034L499.624 183.881L503.237 183.881L497.085 205.014L494.155 205.014L489.018 188.999L484.018 205.014L481.089 205.014L474.956 183.881L478.55 183.881L482.71 199.702L487.632 183.881L490.542 183.881L495.561 200.034ZM510.854 205.014L507.241 205.014L507.241 183.881L510.854 183.881L510.854 205.014ZM506.948 178.276C506.948 177.69 507.124 177.195 507.476 176.792C507.84 176.388 508.374 176.186 509.077 176.186C509.78 176.186 510.314 176.388 510.679 176.792C511.043 177.195 511.226 177.69 511.226 178.276C511.226 178.862 511.043 179.35 510.679 179.741C510.314 180.131 509.78 180.327 509.077 180.327C508.374 180.327 507.84 180.131 507.476 179.741C507.124 179.35 506.948 178.862 506.948 178.276ZM521.558 178.764L521.558 183.881L525.503 183.881L525.503 186.674L521.558 186.674L521.558 199.78C521.558 200.626 521.733 201.264 522.085 201.694C522.436 202.111 523.035 202.319 523.882 202.319C524.298 202.319 524.871 202.241 525.601 202.085L525.601 205.014C524.65 205.275 523.726 205.405 522.827 205.405C521.213 205.405 519.995 204.917 519.175 203.94C518.354 202.963 517.944 201.577 517.944 199.78L517.944 186.674L514.097 186.674L514.097 183.881L517.944 183.881L517.944 178.764L521.558 178.764ZM533.354 186.44C534.956 184.474 537.039 183.491 539.604 183.491C544.071 183.491 546.323 186.01 546.362 191.049L546.362 205.014L542.749 205.014L542.749 191.03C542.736 189.506 542.384 188.38 541.694 187.651C541.017 186.922 539.956 186.557 538.511 186.557C537.339 186.557 536.31 186.87 535.425 187.495C534.539 188.12 533.849 188.94 533.354 189.956L533.354 205.014L529.741 205.014L529.741 175.014L533.354 175.014L533.354 186.44ZM574.175 176.577L577.944 176.577L577.944 196.713C577.944 199.435 577.124 201.564 575.483 203.1C573.856 204.637 571.681 205.405 568.96 205.405C566.134 205.405 563.934 204.682 562.358 203.237C560.783 201.792 559.995 199.767 559.995 197.163L563.745 197.163C563.745 198.79 564.188 200.06 565.073 200.971C565.972 201.883 567.267 202.338 568.96 202.338C570.509 202.338 571.759 201.85 572.71 200.874C573.673 199.897 574.162 198.53 574.175 196.772L574.175 176.577ZM596.811 205.014C596.603 204.598 596.434 203.855 596.304 202.788C594.624 204.532 592.619 205.405 590.288 205.405C588.205 205.405 586.492 204.819 585.151 203.647C583.823 202.462 583.159 200.965 583.159 199.155C583.159 196.954 583.992 195.249 585.659 194.038C587.339 192.814 589.696 192.202 592.729 192.202L596.245 192.202L596.245 190.542C596.245 189.279 595.867 188.276 595.112 187.534C594.357 186.779 593.244 186.401 591.772 186.401C590.483 186.401 589.403 186.726 588.53 187.377C587.658 188.029 587.222 188.816 587.222 189.741L583.589 189.741C583.589 188.686 583.96 187.67 584.702 186.694C585.457 185.704 586.473 184.923 587.749 184.35C589.038 183.777 590.451 183.491 591.987 183.491C594.422 183.491 596.33 184.103 597.71 185.327C599.09 186.538 599.806 188.211 599.858 190.346L599.858 200.073C599.858 202.013 600.106 203.556 600.601 204.702L600.601 205.014L596.811 205.014ZM590.815 202.26C591.948 202.26 593.022 201.967 594.038 201.381C595.054 200.795 595.789 200.034 596.245 199.096L596.245 194.76L593.413 194.76C588.986 194.76 586.772 196.056 586.772 198.647C586.772 199.78 587.15 200.665 587.905 201.303C588.66 201.941 589.63 202.26 590.815 202.26ZM612.183 200.112L617.417 183.881L621.108 183.881L613.53 205.014L610.776 205.014L603.12 183.881L606.811 183.881L612.183 200.112ZM637.319 205.014C637.111 204.598 636.942 203.855 636.811 202.788C635.132 204.532 633.127 205.405 630.796 205.405C628.713 205.405 627 204.819 625.659 203.647C624.331 202.462 623.667 200.965 623.667 199.155C623.667 196.954 624.5 195.249 626.167 194.038C627.847 192.814 630.203 192.202 633.237 192.202L636.753 192.202L636.753 190.542C636.753 189.279 636.375 188.276 635.62 187.534C634.865 186.779 633.752 186.401 632.28 186.401C630.991 186.401 629.91 186.726 629.038 187.377C628.166 188.029 627.729 188.816 627.729 189.741L624.097 189.741C624.097 188.686 624.468 187.67 625.21 186.694C625.965 185.704 626.981 184.923 628.257 184.35C629.546 183.777 630.959 183.491 632.495 183.491C634.93 183.491 636.838 184.103 638.218 185.327C639.598 186.538 640.314 188.211 640.366 190.346L640.366 200.073C640.366 202.013 640.614 203.556 641.108 204.702L641.108 205.014L637.319 205.014ZM631.323 202.26C632.456 202.26 633.53 201.967 634.546 201.381C635.561 200.795 636.297 200.034 636.753 199.096L636.753 194.76L633.921 194.76C629.494 194.76 627.28 196.056 627.28 198.647C627.28 199.78 627.658 200.665 628.413 201.303C629.168 201.941 630.138 202.26 631.323 202.26ZM654.976 192.338C651.759 191.414 649.416 190.281 647.944 188.94C646.486 187.586 645.757 185.919 645.757 183.94C645.757 181.7 646.649 179.851 648.433 178.393C650.229 176.922 652.56 176.186 655.425 176.186C657.378 176.186 659.116 176.564 660.64 177.319C662.176 178.074 663.361 179.116 664.194 180.444C665.041 181.772 665.464 183.224 665.464 184.799L661.694 184.799C661.694 183.081 661.147 181.733 660.054 180.756C658.96 179.767 657.417 179.272 655.425 179.272C653.576 179.272 652.13 179.682 651.089 180.502C650.06 181.31 649.546 182.436 649.546 183.881C649.546 185.04 650.034 186.023 651.011 186.831C652 187.625 653.673 188.354 656.03 189.018C658.4 189.682 660.249 190.418 661.577 191.225C662.918 192.019 663.908 192.95 664.546 194.018C665.197 195.086 665.522 196.342 665.522 197.788C665.522 200.092 664.624 201.941 662.827 203.335C661.03 204.715 658.628 205.405 655.62 205.405C653.667 205.405 651.844 205.034 650.151 204.292C648.459 203.536 647.15 202.508 646.226 201.206C645.314 199.904 644.858 198.426 644.858 196.772L648.628 196.772C648.628 198.491 649.259 199.851 650.522 200.854C651.798 201.844 653.498 202.338 655.62 202.338C657.599 202.338 659.116 201.935 660.171 201.127C661.226 200.32 661.753 199.22 661.753 197.827C661.753 196.433 661.265 195.359 660.288 194.604C659.311 193.836 657.541 193.081 654.976 192.338ZM679.995 187.124C679.448 187.032 678.856 186.987 678.218 186.987C675.848 186.987 674.24 187.996 673.393 190.014L673.393 205.014L669.78 205.014L669.78 183.881L673.296 183.881L673.354 186.323C674.539 184.435 676.219 183.491 678.393 183.491C679.097 183.491 679.63 183.582 679.995 183.764L679.995 187.124ZM687.261 205.014L683.647 205.014L683.647 183.881L687.261 183.881L687.261 205.014ZM683.354 178.276C683.354 177.69 683.53 177.195 683.882 176.792C684.246 176.388 684.78 176.186 685.483 176.186C686.186 176.186 686.72 176.388 687.085 176.792C687.449 177.195 687.632 177.69 687.632 178.276C687.632 178.862 687.449 179.35 687.085 179.741C686.72 180.131 686.186 180.327 685.483 180.327C684.78 180.327 684.246 180.131 683.882 179.741C683.53 179.35 683.354 178.862 683.354 178.276ZM710.913 194.682C710.913 197.898 710.177 200.489 708.706 202.456C707.235 204.422 705.242 205.405 702.729 205.405C700.164 205.405 698.146 204.591 696.675 202.963L696.675 213.139L693.061 213.139L693.061 183.881L696.362 183.881L696.538 186.225C698.009 184.402 700.054 183.491 702.671 183.491C705.21 183.491 707.215 184.448 708.686 186.362C710.171 188.276 710.913 190.939 710.913 194.35L710.913 194.682ZM707.3 194.272C707.3 191.889 706.792 190.008 705.776 188.627C704.761 187.247 703.367 186.557 701.597 186.557C699.409 186.557 697.768 187.527 696.675 189.467L696.675 199.565C697.755 201.492 699.409 202.456 701.636 202.456C703.367 202.456 704.741 201.772 705.757 200.405C706.785 199.025 707.3 196.98 707.3 194.272ZM720.425 178.764L720.425 183.881L724.37 183.881L724.37 186.674L720.425 186.674L720.425 199.78C720.425 200.626 720.601 201.264 720.952 201.694C721.304 202.111 721.903 202.319 722.749 202.319C723.166 202.319 723.739 202.241 724.468 202.085L724.468 205.014C723.517 205.275 722.593 205.405 721.694 205.405C720.08 205.405 718.862 204.917 718.042 203.94C717.222 202.963 716.811 201.577 716.811 199.78L716.811 186.674L712.964 186.674L712.964 183.881L716.811 183.881L716.811 178.764L720.425 178.764ZM757.241 200.034L761.304 183.881L764.917 183.881L758.765 205.014L755.835 205.014L750.698 188.999L745.698 205.014L742.768 205.014L736.636 183.881L740.229 183.881L744.39 199.702L749.311 183.881L752.222 183.881L757.241 200.034ZM772.534 205.014L768.921 205.014L768.921 183.881L772.534 183.881L772.534 205.014ZM768.628 178.276C768.628 177.69 768.804 177.195 769.155 176.792C769.52 176.388 770.054 176.186 770.757 176.186C771.46 176.186 771.994 176.388 772.358 176.792C772.723 177.195 772.905 177.69 772.905 178.276C772.905 178.862 772.723 179.35 772.358 179.741C771.994 180.131 771.46 180.327 770.757 180.327C770.054 180.327 769.52 180.131 769.155 179.741C768.804 179.35 768.628 178.862 768.628 178.276ZM783.237 178.764L783.237 183.881L787.183 183.881L787.183 186.674L783.237 186.674L783.237 199.78C783.237 200.626 783.413 201.264 783.765 201.694C784.116 202.111 784.715 202.319 785.561 202.319C785.978 202.319 786.551 202.241 787.28 202.085L787.28 205.014C786.33 205.275 785.405 205.405 784.507 205.405C782.892 205.405 781.675 204.917 780.854 203.94C780.034 202.963 779.624 201.577 779.624 199.78L779.624 186.674L775.776 186.674L775.776 183.881L779.624 183.881L779.624 178.764L783.237 178.764ZM795.034 186.44C796.636 184.474 798.719 183.491 801.284 183.491C805.75 183.491 808.003 186.01 808.042 191.049L808.042 205.014L804.429 205.014L804.429 191.03C804.416 189.506 804.064 188.38 803.374 187.651C802.697 186.922 801.636 186.557 800.19 186.557C799.018 186.557 797.99 186.87 797.104 187.495C796.219 188.12 795.529 188.94 795.034 189.956L795.034 205.014L791.421 205.014L791.421 175.014L795.034 175.014L795.034 186.44ZM293.569 252.014C293.361 251.598 293.192 250.855 293.061 249.788C291.382 251.532 289.377 252.405 287.046 252.405C284.963 252.405 283.25 251.819 281.909 250.647C280.581 249.462 279.917 247.965 279.917 246.155C279.917 243.954 280.75 242.249 282.417 241.038C284.097 239.814 286.453 239.202 289.487 239.202L293.003 239.202L293.003 237.542C293.003 236.279 292.625 235.276 291.87 234.534C291.115 233.779 290.002 233.401 288.53 233.401C287.241 233.401 286.16 233.726 285.288 234.377C284.416 235.029 283.979 235.816 283.979 236.741L280.347 236.741C280.347 235.686 280.718 234.67 281.46 233.694C282.215 232.704 283.231 231.923 284.507 231.35C285.796 230.777 287.209 230.491 288.745 230.491C291.18 230.491 293.088 231.103 294.468 232.327C295.848 233.538 296.564 235.211 296.616 237.346L296.616 247.073C296.616 249.013 296.864 250.556 297.358 251.702L297.358 252.014L293.569 252.014ZM287.573 249.26C288.706 249.26 289.78 248.967 290.796 248.381C291.811 247.795 292.547 247.034 293.003 246.096L293.003 241.76L290.171 241.76C285.744 241.76 283.53 243.056 283.53 245.647C283.53 246.78 283.908 247.665 284.663 248.303C285.418 248.941 286.388 249.26 287.573 249.26ZM305.698 230.881L305.815 233.538C307.43 231.506 309.539 230.491 312.143 230.491C316.61 230.491 318.862 233.01 318.901 238.049L318.901 252.014L315.288 252.014L315.288 238.03C315.275 236.506 314.923 235.38 314.233 234.651C313.556 233.922 312.495 233.557 311.05 233.557C309.878 233.557 308.849 233.87 307.964 234.495C307.078 235.12 306.388 235.94 305.893 236.956L305.893 252.014L302.28 252.014L302.28 230.881L305.698 230.881ZM347.319 252.014C347.111 251.598 346.942 250.855 346.811 249.788C345.132 251.532 343.127 252.405 340.796 252.405C338.713 252.405 337 251.819 335.659 250.647C334.331 249.462 333.667 247.965 333.667 246.155C333.667 243.954 334.5 242.249 336.167 241.038C337.847 239.814 340.203 239.202 343.237 239.202L346.753 239.202L346.753 237.542C346.753 236.279 346.375 235.276 345.62 234.534C344.865 233.779 343.752 233.401 342.28 233.401C340.991 233.401 339.91 233.726 339.038 234.377C338.166 235.029 337.729 235.816 337.729 236.741L334.097 236.741C334.097 235.686 334.468 234.67 335.21 233.694C335.965 232.704 336.981 231.923 338.257 231.35C339.546 230.777 340.959 230.491 342.495 230.491C344.93 230.491 346.838 231.103 348.218 232.327C349.598 233.538 350.314 235.211 350.366 237.346L350.366 247.073C350.366 249.013 350.614 250.556 351.108 251.702L351.108 252.014L347.319 252.014ZM341.323 249.26C342.456 249.26 343.53 248.967 344.546 248.381C345.561 247.795 346.297 247.034 346.753 246.096L346.753 241.76L343.921 241.76C339.494 241.76 337.28 243.056 337.28 245.647C337.28 246.78 337.658 247.665 338.413 248.303C339.168 248.941 340.138 249.26 341.323 249.26ZM355.151 241.272C355.151 238.03 355.92 235.426 357.456 233.46C358.992 231.48 361.004 230.491 363.491 230.491C365.965 230.491 367.925 231.337 369.37 233.03L369.37 222.014L372.983 222.014L372.983 252.014L369.663 252.014L369.487 249.749C368.042 251.519 366.03 252.405 363.452 252.405C361.004 252.405 359.005 251.402 357.456 249.397C355.92 247.392 355.151 244.775 355.151 241.545L355.151 241.272ZM358.765 241.682C358.765 244.078 359.259 245.953 360.249 247.307C361.239 248.661 362.606 249.338 364.351 249.338C366.642 249.338 368.315 248.31 369.37 246.252L369.37 236.545C368.289 234.553 366.629 233.557 364.39 233.557C362.619 233.557 361.239 234.241 360.249 235.608C359.259 236.975 358.765 239 358.765 241.682ZM377.729 241.272C377.729 238.03 378.498 235.426 380.034 233.46C381.571 231.48 383.582 230.491 386.069 230.491C388.543 230.491 390.503 231.337 391.948 233.03L391.948 222.014L395.561 222.014L395.561 252.014L392.241 252.014L392.065 249.749C390.62 251.519 388.608 252.405 386.03 252.405C383.582 252.405 381.584 251.402 380.034 249.397C378.498 247.392 377.729 244.775 377.729 241.545L377.729 241.272ZM381.343 241.682C381.343 244.078 381.838 245.953 382.827 247.307C383.817 248.661 385.184 249.338 386.929 249.338C389.22 249.338 390.893 248.31 391.948 246.252L391.948 236.545C390.867 234.553 389.207 233.557 386.968 233.557C385.197 233.557 383.817 234.241 382.827 235.608C381.838 236.975 381.343 239 381.343 241.682ZM405.112 252.014L401.499 252.014L401.499 230.881L405.112 230.881L405.112 252.014ZM401.206 225.276C401.206 224.69 401.382 224.195 401.733 223.792C402.098 223.388 402.632 223.186 403.335 223.186C404.038 223.186 404.572 223.388 404.936 223.792C405.301 224.195 405.483 224.69 405.483 225.276C405.483 225.862 405.301 226.35 404.936 226.741C404.572 227.131 404.038 227.327 403.335 227.327C402.632 227.327 402.098 227.131 401.733 226.741C401.382 226.35 401.206 225.862 401.206 225.276ZM415.815 225.764L415.815 230.881L419.761 230.881L419.761 233.674L415.815 233.674L415.815 246.78C415.815 247.626 415.991 248.264 416.343 248.694C416.694 249.111 417.293 249.319 418.14 249.319C418.556 249.319 419.129 249.241 419.858 249.085L419.858 252.014C418.908 252.275 417.983 252.405 417.085 252.405C415.47 252.405 414.253 251.917 413.433 250.94C412.612 249.963 412.202 248.577 412.202 246.78L412.202 233.674L408.354 233.674L408.354 230.881L412.202 230.881L412.202 225.764L415.815 225.764ZM427.925 252.014L424.311 252.014L424.311 230.881L427.925 230.881L427.925 252.014ZM424.018 225.276C424.018 224.69 424.194 224.195 424.546 223.792C424.91 223.388 425.444 223.186 426.147 223.186C426.851 223.186 427.384 223.388 427.749 223.792C428.114 224.195 428.296 224.69 428.296 225.276C428.296 225.862 428.114 226.35 427.749 226.741C427.384 227.131 426.851 227.327 426.147 227.327C425.444 227.327 424.91 227.131 424.546 226.741C424.194 226.35 424.018 225.862 424.018 225.276ZM432.768 241.252C432.768 239.182 433.172 237.32 433.979 235.667C434.8 234.013 435.933 232.737 437.378 231.838C438.836 230.94 440.496 230.491 442.358 230.491C445.236 230.491 447.56 231.487 449.331 233.479C451.115 235.471 452.007 238.121 452.007 241.428L452.007 241.682C452.007 243.739 451.61 245.588 450.815 247.229C450.034 248.857 448.908 250.126 447.436 251.038C445.978 251.949 444.298 252.405 442.397 252.405C439.533 252.405 437.209 251.409 435.425 249.417C433.654 247.424 432.768 244.788 432.768 241.506L432.768 241.252ZM436.401 241.682C436.401 244.026 436.942 245.907 438.022 247.327C439.116 248.746 440.574 249.456 442.397 249.456C444.233 249.456 445.692 248.739 446.772 247.307C447.853 245.862 448.393 243.844 448.393 241.252C448.393 238.935 447.84 237.06 446.733 235.627C445.64 234.182 444.181 233.46 442.358 233.46C440.574 233.46 439.136 234.169 438.042 235.588C436.948 237.008 436.401 239.039 436.401 241.682ZM459.956 230.881L460.073 233.538C461.688 231.506 463.797 230.491 466.401 230.491C470.867 230.491 473.12 233.01 473.159 238.049L473.159 252.014L469.546 252.014L469.546 238.03C469.533 236.506 469.181 235.38 468.491 234.651C467.814 233.922 466.753 233.557 465.308 233.557C464.136 233.557 463.107 233.87 462.222 234.495C461.336 235.12 460.646 235.94 460.151 236.956L460.151 252.014L456.538 252.014L456.538 230.881L459.956 230.881ZM491.655 252.014C491.447 251.598 491.278 250.855 491.147 249.788C489.468 251.532 487.463 252.405 485.132 252.405C483.048 252.405 481.336 251.819 479.995 250.647C478.667 249.462 478.003 247.965 478.003 246.155C478.003 243.954 478.836 242.249 480.503 241.038C482.183 239.814 484.539 239.202 487.573 239.202L491.089 239.202L491.089 237.542C491.089 236.279 490.711 235.276 489.956 234.534C489.201 233.779 488.088 233.401 486.616 233.401C485.327 233.401 484.246 233.726 483.374 234.377C482.502 235.029 482.065 235.816 482.065 236.741L478.433 236.741C478.433 235.686 478.804 234.67 479.546 233.694C480.301 232.704 481.317 231.923 482.593 231.35C483.882 230.777 485.295 230.491 486.831 230.491C489.266 230.491 491.173 231.103 492.554 232.327C493.934 233.538 494.65 235.211 494.702 237.346L494.702 247.073C494.702 249.013 494.949 250.556 495.444 251.702L495.444 252.014L491.655 252.014ZM485.659 249.26C486.792 249.26 487.866 248.967 488.882 248.381C489.897 247.795 490.633 247.034 491.089 246.096L491.089 241.76L488.257 241.76C483.83 241.76 481.616 243.056 481.616 245.647C481.616 246.78 481.994 247.665 482.749 248.303C483.504 248.941 484.474 249.26 485.659 249.26ZM504.292 252.014L500.679 252.014L500.679 222.014L504.292 222.014L504.292 252.014ZM521.792 252.014L521.792 233.674L518.452 233.674L518.452 230.881L521.792 230.881L521.792 228.713C521.792 226.448 522.397 224.696 523.608 223.46C524.819 222.223 526.532 221.604 528.745 221.604C529.578 221.604 530.405 221.715 531.226 221.936L531.03 224.866C530.418 224.749 529.767 224.69 529.077 224.69C527.905 224.69 527 225.035 526.362 225.725C525.724 226.402 525.405 227.379 525.405 228.655L525.405 230.881L529.917 230.881L529.917 233.674L525.405 233.674L525.405 252.014L521.792 252.014ZM542.222 252.405C539.357 252.405 537.026 251.467 535.229 249.592C533.433 247.704 532.534 245.185 532.534 242.034L532.534 241.37C532.534 239.273 532.931 237.405 533.726 235.764C534.533 234.111 535.653 232.821 537.085 231.897C538.53 230.96 540.093 230.491 541.772 230.491C544.52 230.491 546.655 231.396 548.179 233.206C549.702 235.016 550.464 237.607 550.464 240.979L550.464 242.483L536.147 242.483C536.199 244.566 536.805 246.252 537.964 247.542C539.136 248.818 540.62 249.456 542.417 249.456C543.693 249.456 544.774 249.195 545.659 248.674C546.545 248.154 547.319 247.463 547.983 246.604L550.19 248.323C548.42 251.044 545.763 252.405 542.222 252.405ZM541.772 233.46C540.314 233.46 539.09 233.993 538.101 235.061C537.111 236.116 536.499 237.6 536.265 239.514L546.851 239.514L546.851 239.241C546.746 237.405 546.252 235.986 545.366 234.983C544.481 233.967 543.283 233.46 541.772 233.46ZM567.71 252.014C567.502 251.598 567.332 250.855 567.202 249.788C565.522 251.532 563.517 252.405 561.186 252.405C559.103 252.405 557.391 251.819 556.05 250.647C554.722 249.462 554.058 247.965 554.058 246.155C554.058 243.954 554.891 242.249 556.558 241.038C558.237 239.814 560.594 239.202 563.628 239.202L567.143 239.202L567.143 237.542C567.143 236.279 566.766 235.276 566.011 234.534C565.255 233.779 564.142 233.401 562.671 233.401C561.382 233.401 560.301 233.726 559.429 234.377C558.556 235.029 558.12 235.816 558.12 236.741L554.487 236.741C554.487 235.686 554.858 234.67 555.601 233.694C556.356 232.704 557.371 231.923 558.647 231.35C559.936 230.777 561.349 230.491 562.886 230.491C565.321 230.491 567.228 231.103 568.608 232.327C569.989 233.538 570.705 235.211 570.757 237.346L570.757 247.073C570.757 249.013 571.004 250.556 571.499 251.702L571.499 252.014L567.71 252.014ZM561.714 249.26C562.847 249.26 563.921 248.967 564.936 248.381C565.952 247.795 566.688 247.034 567.143 246.096L567.143 241.76L564.311 241.76C559.884 241.76 557.671 243.056 557.671 245.647C557.671 246.78 558.048 247.665 558.804 248.303C559.559 248.941 560.529 249.26 561.714 249.26ZM581.323 225.764L581.323 230.881L585.268 230.881L585.268 233.674L581.323 233.674L581.323 246.78C581.323 247.626 581.499 248.264 581.851 248.694C582.202 249.111 582.801 249.319 583.647 249.319C584.064 249.319 584.637 249.241 585.366 249.085L585.366 252.014C584.416 252.275 583.491 252.405 582.593 252.405C580.978 252.405 579.761 251.917 578.94 250.94C578.12 249.963 577.71 248.577 577.71 246.78L577.71 233.674L573.862 233.674L573.862 230.881L577.71 230.881L577.71 225.764L581.323 225.764ZM602.554 249.924C601.147 251.578 599.084 252.405 596.362 252.405C594.11 252.405 592.391 251.754 591.206 250.452C590.034 249.137 589.442 247.196 589.429 244.631L589.429 230.881L593.042 230.881L593.042 244.534C593.042 247.737 594.344 249.338 596.948 249.338C599.709 249.338 601.545 248.31 602.456 246.252L602.456 230.881L606.069 230.881L606.069 252.014L602.632 252.014L602.554 249.924ZM621.792 234.124C621.245 234.032 620.653 233.987 620.015 233.987C617.645 233.987 616.037 234.996 615.19 237.014L615.19 252.014L611.577 252.014L611.577 230.881L615.093 230.881L615.151 233.323C616.336 231.435 618.016 230.491 620.19 230.491C620.893 230.491 621.427 230.582 621.792 230.764L621.792 234.124ZM633.511 252.405C630.646 252.405 628.315 251.467 626.518 249.592C624.722 247.704 623.823 245.185 623.823 242.034L623.823 241.37C623.823 239.273 624.22 237.405 625.015 235.764C625.822 234.111 626.942 232.821 628.374 231.897C629.819 230.96 631.382 230.491 633.061 230.491C635.809 230.491 637.944 231.396 639.468 233.206C640.991 235.016 641.753 237.607 641.753 240.979L641.753 242.483L627.436 242.483C627.489 244.566 628.094 246.252 629.253 247.542C630.425 248.818 631.909 249.456 633.706 249.456C634.982 249.456 636.063 249.195 636.948 248.674C637.834 248.154 638.608 247.463 639.272 246.604L641.479 248.323C639.709 251.044 637.052 252.405 633.511 252.405ZM633.061 233.46C631.603 233.46 630.379 233.993 629.39 235.061C628.4 236.116 627.788 237.6 627.554 239.514L638.14 239.514L638.14 239.241C638.035 237.405 637.541 235.986 636.655 234.983C635.77 233.967 634.572 233.46 633.061 233.46ZM654.917 241.252C654.917 239.182 655.321 237.32 656.128 235.667C656.948 234.013 658.081 232.737 659.526 231.838C660.985 230.94 662.645 230.491 664.507 230.491C667.384 230.491 669.709 231.487 671.479 233.479C673.263 235.471 674.155 238.121 674.155 241.428L674.155 241.682C674.155 243.739 673.758 245.588 672.964 247.229C672.183 248.857 671.056 250.126 669.585 251.038C668.127 251.949 666.447 252.405 664.546 252.405C661.681 252.405 659.357 251.409 657.573 249.417C655.802 247.424 654.917 244.788 654.917 241.506L654.917 241.252ZM658.55 241.682C658.55 244.026 659.09 245.907 660.171 247.327C661.265 248.746 662.723 249.456 664.546 249.456C666.382 249.456 667.84 248.739 668.921 247.307C670.002 245.862 670.542 243.844 670.542 241.252C670.542 238.935 669.989 237.06 668.882 235.627C667.788 234.182 666.33 233.46 664.507 233.46C662.723 233.46 661.284 234.169 660.19 235.588C659.097 237.008 658.55 239.039 658.55 241.682ZM680.464 252.014L680.464 233.674L677.124 233.674L677.124 230.881L680.464 230.881L680.464 228.713C680.464 226.448 681.069 224.696 682.28 223.46C683.491 222.223 685.203 221.604 687.417 221.604C688.25 221.604 689.077 221.715 689.897 221.936L689.702 224.866C689.09 224.749 688.439 224.69 687.749 224.69C686.577 224.69 685.672 225.035 685.034 225.725C684.396 226.402 684.077 227.379 684.077 228.655L684.077 230.881L688.589 230.881L688.589 233.674L684.077 233.674L684.077 252.014L680.464 252.014ZM723.999 242.991C723.647 245.999 722.534 248.323 720.659 249.963C718.797 251.591 716.317 252.405 713.218 252.405C709.858 252.405 707.163 251.2 705.132 248.792C703.114 246.383 702.104 243.16 702.104 239.124L702.104 236.389C702.104 233.746 702.573 231.422 703.511 229.417C704.461 227.411 705.802 225.875 707.534 224.807C709.266 223.726 711.271 223.186 713.55 223.186C716.571 223.186 718.992 224.032 720.815 225.725C722.638 227.405 723.699 229.736 723.999 232.717L720.229 232.717C719.904 230.452 719.194 228.811 718.101 227.795C717.02 226.78 715.503 226.272 713.55 226.272C711.154 226.272 709.272 227.157 707.905 228.928C706.551 230.699 705.874 233.219 705.874 236.487L705.874 239.241C705.874 242.327 706.518 244.781 707.808 246.604C709.097 248.427 710.9 249.338 713.218 249.338C715.301 249.338 716.896 248.87 718.003 247.932C719.123 246.982 719.865 245.335 720.229 242.991L723.999 242.991ZM744.839 244.592L732.925 244.592L730.249 252.014L726.382 252.014L737.241 223.577L740.522 223.577L751.401 252.014L747.554 252.014L744.839 244.592ZM734.058 241.506L743.726 241.506L738.882 228.206L734.058 241.506ZM758.979 240.881L758.979 252.014L755.229 252.014L755.229 223.577L765.718 223.577C768.83 223.577 771.265 224.371 773.022 225.96C774.793 227.548 775.679 229.651 775.679 232.268C775.679 235.029 774.813 237.157 773.081 238.655C771.362 240.139 768.895 240.881 765.679 240.881L758.979 240.881ZM758.979 237.815L765.718 237.815C767.723 237.815 769.259 237.346 770.327 236.409C771.395 235.458 771.929 234.091 771.929 232.307C771.929 230.614 771.395 229.26 770.327 228.245C769.259 227.229 767.795 226.702 765.933 226.663L758.979 226.663L758.979 237.815ZM788.843 239.338C785.627 238.414 783.283 237.281 781.811 235.94C780.353 234.586 779.624 232.919 779.624 230.94C779.624 228.7 780.516 226.851 782.3 225.393C784.097 223.922 786.427 223.186 789.292 223.186C791.245 223.186 792.983 223.564 794.507 224.319C796.043 225.074 797.228 226.116 798.061 227.444C798.908 228.772 799.331 230.224 799.331 231.799L795.561 231.799C795.561 230.081 795.015 228.733 793.921 227.756C792.827 226.767 791.284 226.272 789.292 226.272C787.443 226.272 785.998 226.682 784.956 227.502C783.927 228.31 783.413 229.436 783.413 230.881C783.413 232.04 783.901 233.023 784.878 233.831C785.867 234.625 787.541 235.354 789.897 236.018C792.267 236.682 794.116 237.418 795.444 238.225C796.785 239.019 797.775 239.95 798.413 241.018C799.064 242.086 799.39 243.342 799.39 244.788C799.39 247.092 798.491 248.941 796.694 250.335C794.897 251.715 792.495 252.405 789.487 252.405C787.534 252.405 785.711 252.034 784.018 251.292C782.326 250.536 781.017 249.508 780.093 248.206C779.181 246.904 778.726 245.426 778.726 243.772L782.495 243.772C782.495 245.491 783.127 246.851 784.39 247.854C785.666 248.844 787.365 249.338 789.487 249.338C791.466 249.338 792.983 248.935 794.038 248.127C795.093 247.32 795.62 246.22 795.62 244.827C795.62 243.433 795.132 242.359 794.155 241.604C793.179 240.836 791.408 240.081 788.843 239.338Z" fill="white"/>
<defs>
<filter id="filter0_d" x="0.715454" y="1.01441" width="939.116" height="284.772" filterUnits="userSpaceOnUse" color-interpolation-filters="sRGB">
<feFlood flood-opacity="0" result="BackgroundImageFix"/>
<feColorMatrix in="SourceAlpha" type="matrix" values="0 0 0 0 0 0 0 0 0 0 0 0 0 0 0 0 0 0 127 0"/>
<feOffset dy="4"/>
<feGaussianBlur stdDeviation="2"/>
<feColorMatrix type="matrix" values="0 0 0 0 0 0 0 0 0 0 0 0 0 0 0 0 0 0 0.25 0"/>
<feBlend mode="normal" in2="BackgroundImageFix" result="effect1_dropShadow"/>
<feBlend mode="normal" in="SourceGraphic" in2="effect1_dropShadow" result="shape"/>
</filter>
</defs>
</svg>
