<svg width="940" height="482" viewBox="0 0 940 482" fill="none" xmlns="http://www.w3.org/2000/svg">
<rect x="4.35046" y="15.0141" width="928" height="460" fill="#73818C"/>
<g filter="url(#filter0_d)">
<path d="M933.865 277.786L895.413 241.476C856.958 205.503 780.058 132.376 702.922 91.5642C625.79 50.2465 548.422 41.2448 470.798 67.4278C393.17 94.1171 315.286 155.991 237.593 191.709C159.899 227.426 82.4088 235.3 43.6592 239.827L4.9121 244.017L6.68251 1.01441L45.3971 1.29647C84.1116 1.57852 161.541 2.14264 238.97 2.70675C316.399 3.27087 393.828 3.83498 471.257 4.39909C548.686 4.96321 626.115 5.52732 703.544 6.09144C780.974 6.65555 858.403 7.21966 897.117 7.50172L935.832 7.78378L933.865 277.786Z" fill="#5B73EA"/>
</g>
<path d="M315.854 200.034L323.979 176.577L328.081 176.577L317.534 205.014L314.214 205.014L303.686 176.577L307.768 176.577L315.854 200.034ZM339.253 205.405C336.388 205.405 334.057 204.467 332.261 202.592C330.464 200.704 329.565 198.185 329.565 195.034L329.565 194.37C329.565 192.273 329.962 190.405 330.757 188.764C331.564 187.111 332.684 185.821 334.116 184.897C335.561 183.96 337.124 183.491 338.804 183.491C341.551 183.491 343.686 184.396 345.21 186.206C346.733 188.016 347.495 190.607 347.495 193.979L347.495 195.483L333.179 195.483C333.231 197.566 333.836 199.252 334.995 200.542C336.167 201.818 337.651 202.456 339.448 202.456C340.724 202.456 341.805 202.195 342.69 201.674C343.576 201.154 344.35 200.463 345.015 199.604L347.222 201.323C345.451 204.044 342.794 205.405 339.253 205.405ZM338.804 186.46C337.345 186.46 336.121 186.993 335.132 188.061C334.142 189.116 333.53 190.6 333.296 192.514L343.882 192.514L343.882 192.241C343.778 190.405 343.283 188.986 342.397 187.983C341.512 186.967 340.314 186.46 338.804 186.46ZM355.112 183.881L355.229 186.538C356.844 184.506 358.953 183.491 361.557 183.491C366.024 183.491 368.276 186.01 368.315 191.049L368.315 205.014L364.702 205.014L364.702 191.03C364.689 189.506 364.337 188.38 363.647 187.651C362.97 186.922 361.909 186.557 360.464 186.557C359.292 186.557 358.263 186.87 357.378 187.495C356.492 188.12 355.802 188.94 355.307 189.956L355.307 205.014L351.694 205.014L351.694 183.881L355.112 183.881ZM372.886 194.272C372.886 191.03 373.654 188.426 375.19 186.46C376.727 184.48 378.738 183.491 381.225 183.491C383.699 183.491 385.659 184.337 387.104 186.03L387.104 175.014L390.718 175.014L390.718 205.014L387.397 205.014L387.222 202.749C385.776 204.519 383.765 205.405 381.186 205.405C378.738 205.405 376.74 204.402 375.19 202.397C373.654 200.392 372.886 197.775 372.886 194.545L372.886 194.272ZM376.499 194.682C376.499 197.078 376.994 198.953 377.983 200.307C378.973 201.661 380.34 202.338 382.085 202.338C384.377 202.338 386.05 201.31 387.104 199.252L387.104 189.545C386.024 187.553 384.363 186.557 382.124 186.557C380.353 186.557 378.973 187.241 377.983 188.608C376.994 189.975 376.499 192 376.499 194.682ZM400.268 205.014L396.655 205.014L396.655 183.881L400.268 183.881L400.268 205.014ZM396.362 178.276C396.362 177.69 396.538 177.195 396.89 176.792C397.254 176.388 397.788 176.186 398.491 176.186C399.194 176.186 399.728 176.388 400.093 176.792C400.457 177.195 400.64 177.69 400.64 178.276C400.64 178.862 400.457 179.35 400.093 179.741C399.728 180.131 399.194 180.327 398.491 180.327C397.788 180.327 397.254 180.131 396.89 179.741C396.538 179.35 396.362 178.862 396.362 178.276ZM409.487 183.881L409.604 186.538C411.219 184.506 413.328 183.491 415.932 183.491C420.399 183.491 422.651 186.01 422.69 191.049L422.69 205.014L419.077 205.014L419.077 191.03C419.064 189.506 418.712 188.38 418.022 187.651C417.345 186.922 416.284 186.557 414.839 186.557C413.667 186.557 412.638 186.87 411.753 187.495C410.867 188.12 410.177 188.94 409.682 189.956L409.682 205.014L406.069 205.014L406.069 183.881L409.487 183.881ZM427.28 194.272C427.28 190.978 428.042 188.361 429.565 186.42C431.089 184.467 433.107 183.491 435.62 183.491C438.198 183.491 440.21 184.402 441.655 186.225L441.831 183.881L445.132 183.881L445.132 204.506C445.132 207.241 444.318 209.396 442.69 210.971C441.076 212.547 438.901 213.335 436.167 213.335C434.643 213.335 433.153 213.009 431.694 212.358C430.236 211.707 429.123 210.815 428.354 209.682L430.229 207.514C431.779 209.428 433.673 210.385 435.913 210.385C437.671 210.385 439.038 209.891 440.015 208.901C441.004 207.911 441.499 206.518 441.499 204.721L441.499 202.905C440.054 204.571 438.081 205.405 435.581 205.405C433.107 205.405 431.102 204.409 429.565 202.417C428.042 200.424 427.28 197.71 427.28 194.272ZM430.913 194.682C430.913 197.065 431.401 198.94 432.378 200.307C433.354 201.661 434.722 202.338 436.479 202.338C438.758 202.338 440.431 201.303 441.499 199.233L441.499 189.585C440.392 187.566 438.732 186.557 436.518 186.557C434.761 186.557 433.387 187.241 432.397 188.608C431.408 189.975 430.913 192 430.913 194.682ZM465.932 176.577L475.229 199.78L484.526 176.577L489.39 176.577L489.39 205.014L485.64 205.014L485.64 193.94L485.991 181.987L476.655 205.014L473.784 205.014L464.468 182.045L464.839 193.94L464.839 205.014L461.089 205.014L461.089 176.577L465.932 176.577ZM508.491 205.014C508.283 204.598 508.113 203.855 507.983 202.788C506.304 204.532 504.298 205.405 501.968 205.405C499.884 205.405 498.172 204.819 496.831 203.647C495.503 202.462 494.839 200.965 494.839 199.155C494.839 196.954 495.672 195.249 497.339 194.038C499.018 192.814 501.375 192.202 504.409 192.202L507.925 192.202L507.925 190.542C507.925 189.279 507.547 188.276 506.792 187.534C506.037 186.779 504.923 186.401 503.452 186.401C502.163 186.401 501.082 186.726 500.21 187.377C499.337 188.029 498.901 188.816 498.901 189.741L495.268 189.741C495.268 188.686 495.64 187.67 496.382 186.694C497.137 185.704 498.153 184.923 499.429 184.35C500.718 183.777 502.13 183.491 503.667 183.491C506.102 183.491 508.009 184.103 509.39 185.327C510.77 186.538 511.486 188.211 511.538 190.346L511.538 200.073C511.538 202.013 511.785 203.556 512.28 204.702L512.28 205.014L508.491 205.014ZM502.495 202.26C503.628 202.26 504.702 201.967 505.718 201.381C506.733 200.795 507.469 200.034 507.925 199.096L507.925 194.76L505.093 194.76C500.666 194.76 498.452 196.056 498.452 198.647C498.452 199.78 498.83 200.665 499.585 201.303C500.34 201.941 501.31 202.26 502.495 202.26ZM525.679 202.456C526.968 202.456 528.094 202.065 529.057 201.284C530.021 200.502 530.555 199.526 530.659 198.354L534.077 198.354C534.012 199.565 533.595 200.717 532.827 201.811C532.059 202.905 531.03 203.777 529.741 204.428C528.465 205.079 527.111 205.405 525.679 205.405C522.801 205.405 520.509 204.448 518.804 202.534C517.111 200.607 516.265 197.976 516.265 194.643L516.265 194.038C516.265 191.98 516.642 190.151 517.397 188.549C518.153 186.948 519.233 185.704 520.64 184.819C522.059 183.933 523.732 183.491 525.659 183.491C528.029 183.491 529.995 184.2 531.557 185.62C533.133 187.039 533.973 188.881 534.077 191.147L530.659 191.147C530.555 189.78 530.034 188.66 529.097 187.788C528.172 186.902 527.026 186.46 525.659 186.46C523.823 186.46 522.397 187.124 521.382 188.452C520.379 189.767 519.878 191.674 519.878 194.174L519.878 194.858C519.878 197.293 520.379 199.168 521.382 200.483C522.384 201.798 523.817 202.456 525.679 202.456ZM541.753 186.44C543.354 184.474 545.438 183.491 548.003 183.491C552.469 183.491 554.722 186.01 554.761 191.049L554.761 205.014L551.147 205.014L551.147 191.03C551.134 189.506 550.783 188.38 550.093 187.651C549.416 186.922 548.354 186.557 546.909 186.557C545.737 186.557 544.709 186.87 543.823 187.495C542.938 188.12 542.248 188.94 541.753 189.956L541.753 205.014L538.14 205.014L538.14 175.014L541.753 175.014L541.753 186.44ZM564.097 205.014L560.483 205.014L560.483 183.881L564.097 183.881L564.097 205.014ZM560.19 178.276C560.19 177.69 560.366 177.195 560.718 176.792C561.082 176.388 561.616 176.186 562.319 176.186C563.022 176.186 563.556 176.388 563.921 176.792C564.285 177.195 564.468 177.69 564.468 178.276C564.468 178.862 564.285 179.35 563.921 179.741C563.556 180.131 563.022 180.327 562.319 180.327C561.616 180.327 561.082 180.131 560.718 179.741C560.366 179.35 560.19 178.862 560.19 178.276ZM573.315 183.881L573.432 186.538C575.047 184.506 577.156 183.491 579.761 183.491C584.227 183.491 586.479 186.01 586.518 191.049L586.518 205.014L582.905 205.014L582.905 191.03C582.892 189.506 582.541 188.38 581.85 187.651C581.173 186.922 580.112 186.557 578.667 186.557C577.495 186.557 576.466 186.87 575.581 187.495C574.696 188.12 574.005 188.94 573.511 189.956L573.511 205.014L569.897 205.014L569.897 183.881L573.315 183.881ZM600.737 205.405C597.873 205.405 595.542 204.467 593.745 202.592C591.948 200.704 591.05 198.185 591.05 195.034L591.05 194.37C591.05 192.273 591.447 190.405 592.241 188.764C593.048 187.111 594.168 185.821 595.6 184.897C597.046 183.96 598.608 183.491 600.288 183.491C603.035 183.491 605.171 184.396 606.694 186.206C608.218 188.016 608.979 190.607 608.979 193.979L608.979 195.483L594.663 195.483C594.715 197.566 595.321 199.252 596.479 200.542C597.651 201.818 599.136 202.456 600.932 202.456C602.209 202.456 603.289 202.195 604.175 201.674C605.06 201.154 605.835 200.463 606.499 199.604L608.706 201.323C606.935 204.044 604.279 205.405 600.737 205.405ZM600.288 186.46C598.83 186.46 597.606 186.993 596.616 188.061C595.627 189.116 595.015 190.6 594.78 192.514L605.366 192.514L605.366 192.241C605.262 190.405 604.767 188.986 603.882 187.983C602.996 186.967 601.798 186.46 600.288 186.46ZM636.147 205.014C635.939 204.598 635.77 203.855 635.64 202.788C633.96 204.532 631.955 205.405 629.624 205.405C627.541 205.405 625.828 204.819 624.487 203.647C623.159 202.462 622.495 200.965 622.495 199.155C622.495 196.954 623.328 195.249 624.995 194.038C626.675 192.814 629.031 192.202 632.065 192.202L635.581 192.202L635.581 190.542C635.581 189.279 635.203 188.276 634.448 187.534C633.693 186.779 632.58 186.401 631.108 186.401C629.819 186.401 628.738 186.726 627.866 187.377C626.994 188.029 626.557 188.816 626.557 189.741L622.925 189.741C622.925 188.686 623.296 187.67 624.038 186.694C624.793 185.704 625.809 184.923 627.085 184.35C628.374 183.777 629.787 183.491 631.323 183.491C633.758 183.491 635.666 184.103 637.046 185.327C638.426 186.538 639.142 188.211 639.194 190.346L639.194 200.073C639.194 202.013 639.442 203.556 639.936 204.702L639.936 205.014L636.147 205.014ZM630.151 202.26C631.284 202.26 632.358 201.967 633.374 201.381C634.39 200.795 635.125 200.034 635.581 199.096L635.581 194.76L632.749 194.76C628.322 194.76 626.108 196.056 626.108 198.647C626.108 199.78 626.486 200.665 627.241 201.303C627.996 201.941 628.966 202.26 630.151 202.26ZM657.163 199.409C657.163 198.432 656.792 197.677 656.05 197.143C655.321 196.596 654.038 196.127 652.202 195.737C650.379 195.346 648.927 194.877 647.847 194.331C646.779 193.784 645.985 193.133 645.464 192.377C644.956 191.622 644.702 190.724 644.702 189.682C644.702 187.95 645.431 186.486 646.89 185.288C648.361 184.09 650.236 183.491 652.515 183.491C654.91 183.491 656.85 184.109 658.335 185.346C659.832 186.583 660.581 188.165 660.581 190.092L656.948 190.092C656.948 189.103 656.525 188.25 655.679 187.534C654.845 186.818 653.791 186.46 652.515 186.46C651.199 186.46 650.171 186.746 649.429 187.319C648.686 187.892 648.315 188.641 648.315 189.565C648.315 190.437 648.66 191.095 649.35 191.538C650.041 191.98 651.284 192.404 653.081 192.807C654.891 193.211 656.356 193.693 657.475 194.252C658.595 194.812 659.422 195.489 659.956 196.284C660.503 197.065 660.776 198.022 660.776 199.155C660.776 201.043 660.021 202.56 658.511 203.706C657 204.838 655.041 205.405 652.632 205.405C650.939 205.405 649.442 205.105 648.14 204.506C646.837 203.907 645.815 203.074 645.073 202.006C644.344 200.926 643.979 199.76 643.979 198.51L647.593 198.51C647.658 199.721 648.14 200.685 649.038 201.401C649.949 202.104 651.147 202.456 652.632 202.456C653.999 202.456 655.093 202.182 655.913 201.635C656.746 201.075 657.163 200.333 657.163 199.409ZM696.89 195.991C696.538 198.999 695.425 201.323 693.55 202.963C691.688 204.591 689.207 205.405 686.108 205.405C682.749 205.405 680.054 204.2 678.022 201.792C676.004 199.383 674.995 196.16 674.995 192.124L674.995 189.389C674.995 186.746 675.464 184.422 676.401 182.417C677.352 180.411 678.693 178.875 680.425 177.807C682.156 176.726 684.162 176.186 686.44 176.186C689.461 176.186 691.883 177.032 693.706 178.725C695.529 180.405 696.59 182.736 696.89 185.717L693.12 185.717C692.794 183.452 692.085 181.811 690.991 180.795C689.91 179.78 688.393 179.272 686.44 179.272C684.044 179.272 682.163 180.157 680.796 181.928C679.442 183.699 678.765 186.219 678.765 189.487L678.765 192.241C678.765 195.327 679.409 197.781 680.698 199.604C681.987 201.427 683.791 202.338 686.108 202.338C688.192 202.338 689.787 201.87 690.893 200.932C692.013 199.982 692.755 198.335 693.12 195.991L696.89 195.991ZM712.456 193.51L705.776 193.51L705.776 205.014L702.007 205.014L702.007 176.577L711.421 176.577C714.624 176.577 717.085 177.306 718.804 178.764C720.535 180.223 721.401 182.345 721.401 185.131C721.401 186.902 720.919 188.445 719.956 189.76C719.005 191.075 717.677 192.058 715.972 192.71L722.651 204.78L722.651 205.014L718.628 205.014L712.456 193.51ZM705.776 190.444L711.538 190.444C713.4 190.444 714.878 189.962 715.972 188.999C717.078 188.035 717.632 186.746 717.632 185.131C717.632 183.374 717.104 182.026 716.05 181.088C715.008 180.151 713.498 179.676 711.518 179.663L705.776 179.663L705.776 190.444ZM746.694 176.577L746.694 195.913C746.681 198.595 745.835 200.789 744.155 202.495C742.488 204.2 740.223 205.157 737.358 205.366L736.362 205.405C733.25 205.405 730.77 204.565 728.921 202.885C727.072 201.206 726.134 198.894 726.108 195.952L726.108 176.577L729.819 176.577L729.819 195.835C729.819 197.892 730.386 199.493 731.518 200.639C732.651 201.772 734.266 202.338 736.362 202.338C738.485 202.338 740.106 201.772 741.225 200.639C742.358 199.506 742.925 197.911 742.925 195.854L742.925 176.577L746.694 176.577ZM752.612 205.014L752.612 176.577L760.64 176.577C763.113 176.577 765.301 177.124 767.202 178.217C769.103 179.311 770.568 180.867 771.597 182.885C772.638 184.904 773.166 187.221 773.179 189.838L773.179 191.655C773.179 194.337 772.658 196.687 771.616 198.706C770.587 200.724 769.11 202.273 767.182 203.354C765.268 204.435 763.035 204.988 760.483 205.014L752.612 205.014ZM756.362 179.663L756.362 201.948L760.307 201.948C763.198 201.948 765.444 201.049 767.046 199.252C768.66 197.456 769.468 194.897 769.468 191.577L769.468 189.917C769.468 186.687 768.706 184.181 767.182 182.397C765.672 180.6 763.524 179.689 760.737 179.663L756.362 179.663ZM330.288 247.034L334.35 230.881L337.964 230.881L331.811 252.014L328.882 252.014L323.745 235.999L318.745 252.014L315.815 252.014L309.682 230.881L313.276 230.881L317.436 246.702L322.358 230.881L325.268 230.881L330.288 247.034ZM345.581 252.014L341.968 252.014L341.968 230.881L345.581 230.881L345.581 252.014ZM341.675 225.276C341.675 224.69 341.85 224.195 342.202 223.792C342.567 223.388 343.1 223.186 343.804 223.186C344.507 223.186 345.041 223.388 345.405 223.792C345.77 224.195 345.952 224.69 345.952 225.276C345.952 225.862 345.77 226.35 345.405 226.741C345.041 227.131 344.507 227.327 343.804 227.327C343.1 227.327 342.567 227.131 342.202 226.741C341.85 226.35 341.675 225.862 341.675 225.276ZM356.284 225.764L356.284 230.881L360.229 230.881L360.229 233.674L356.284 233.674L356.284 246.78C356.284 247.626 356.46 248.264 356.811 248.694C357.163 249.111 357.762 249.319 358.608 249.319C359.025 249.319 359.598 249.241 360.327 249.085L360.327 252.014C359.377 252.275 358.452 252.405 357.554 252.405C355.939 252.405 354.722 251.917 353.901 250.94C353.081 249.963 352.671 248.577 352.671 246.78L352.671 233.674L348.823 233.674L348.823 230.881L352.671 230.881L352.671 225.764L356.284 225.764ZM368.081 233.44C369.682 231.474 371.766 230.491 374.331 230.491C378.797 230.491 381.05 233.01 381.089 238.049L381.089 252.014L377.475 252.014L377.475 238.03C377.462 236.506 377.111 235.38 376.421 234.651C375.744 233.922 374.682 233.557 373.237 233.557C372.065 233.557 371.037 233.87 370.151 234.495C369.266 235.12 368.576 235.94 368.081 236.956L368.081 252.014L364.468 252.014L364.468 222.014L368.081 222.014L368.081 233.44ZM396.987 252.014L396.987 223.577L405.015 223.577C407.488 223.577 409.676 224.124 411.577 225.217C413.478 226.311 414.943 227.867 415.972 229.885C417.013 231.904 417.541 234.221 417.554 236.838L417.554 238.655C417.554 241.337 417.033 243.687 415.991 245.706C414.962 247.724 413.485 249.273 411.557 250.354C409.643 251.435 407.41 251.988 404.858 252.014L396.987 252.014ZM400.737 226.663L400.737 248.948L404.682 248.948C407.573 248.948 409.819 248.049 411.421 246.252C413.035 244.456 413.843 241.897 413.843 238.577L413.843 236.917C413.843 233.687 413.081 231.181 411.557 229.397C410.047 227.6 407.899 226.689 405.112 226.663L400.737 226.663ZM435.718 252.014C435.509 251.598 435.34 250.855 435.21 249.788C433.53 251.532 431.525 252.405 429.194 252.405C427.111 252.405 425.399 251.819 424.057 250.647C422.729 249.462 422.065 247.965 422.065 246.155C422.065 243.954 422.899 242.249 424.565 241.038C426.245 239.814 428.602 239.202 431.636 239.202L435.151 239.202L435.151 237.542C435.151 236.279 434.774 235.276 434.018 234.534C433.263 233.779 432.15 233.401 430.679 233.401C429.39 233.401 428.309 233.726 427.436 234.377C426.564 235.029 426.128 235.816 426.128 236.741L422.495 236.741C422.495 235.686 422.866 234.67 423.608 233.694C424.363 232.704 425.379 231.923 426.655 231.35C427.944 230.777 429.357 230.491 430.893 230.491C433.328 230.491 435.236 231.103 436.616 232.327C437.996 233.538 438.712 235.211 438.765 237.346L438.765 247.073C438.765 249.013 439.012 250.556 439.507 251.702L439.507 252.014L435.718 252.014ZM429.722 249.26C430.854 249.26 431.929 248.967 432.944 248.381C433.96 247.795 434.696 247.034 435.151 246.096L435.151 241.76L432.319 241.76C427.892 241.76 425.679 243.056 425.679 245.647C425.679 246.78 426.056 247.665 426.811 248.303C427.567 248.941 428.537 249.26 429.722 249.26ZM449.331 225.764L449.331 230.881L453.276 230.881L453.276 233.674L449.331 233.674L449.331 246.78C449.331 247.626 449.507 248.264 449.858 248.694C450.21 249.111 450.809 249.319 451.655 249.319C452.072 249.319 452.645 249.241 453.374 249.085L453.374 252.014C452.423 252.275 451.499 252.405 450.6 252.405C448.986 252.405 447.768 251.917 446.948 250.94C446.128 249.963 445.718 248.577 445.718 246.78L445.718 233.674L441.87 233.674L441.87 230.881L445.718 230.881L445.718 225.764L449.331 225.764ZM475.405 241.682C475.405 244.911 474.663 247.509 473.179 249.475C471.694 251.428 469.702 252.405 467.202 252.405C464.533 252.405 462.469 251.461 461.011 249.573L460.835 252.014L457.515 252.014L457.515 222.014L461.128 222.014L461.128 233.206C462.586 231.396 464.598 230.491 467.163 230.491C469.728 230.491 471.74 231.461 473.198 233.401C474.669 235.341 475.405 237.997 475.405 241.37L475.405 241.682ZM471.792 241.272C471.792 238.811 471.317 236.91 470.366 235.569C469.416 234.228 468.048 233.557 466.265 233.557C463.882 233.557 462.169 234.664 461.128 236.877L461.128 246.018C462.235 248.232 463.96 249.338 466.304 249.338C468.035 249.338 469.383 248.668 470.347 247.327C471.31 245.986 471.792 243.967 471.792 241.272ZM493.022 252.014C492.814 251.598 492.645 250.855 492.515 249.788C490.835 251.532 488.83 252.405 486.499 252.405C484.416 252.405 482.703 251.819 481.362 250.647C480.034 249.462 479.37 247.965 479.37 246.155C479.37 243.954 480.203 242.249 481.87 241.038C483.55 239.814 485.906 239.202 488.94 239.202L492.456 239.202L492.456 237.542C492.456 236.279 492.078 235.276 491.323 234.534C490.568 233.779 489.455 233.401 487.983 233.401C486.694 233.401 485.613 233.726 484.741 234.377C483.869 235.029 483.432 235.816 483.432 236.741L479.8 236.741C479.8 235.686 480.171 234.67 480.913 233.694C481.668 232.704 482.684 231.923 483.96 231.35C485.249 230.777 486.662 230.491 488.198 230.491C490.633 230.491 492.541 231.103 493.921 232.327C495.301 233.538 496.017 235.211 496.069 237.346L496.069 247.073C496.069 249.013 496.317 250.556 496.811 251.702L496.811 252.014L493.022 252.014ZM487.026 249.26C488.159 249.26 489.233 248.967 490.249 248.381C491.265 247.795 492 247.034 492.456 246.096L492.456 241.76L489.624 241.76C485.197 241.76 482.983 243.056 482.983 245.647C482.983 246.78 483.361 247.665 484.116 248.303C484.871 248.941 485.841 249.26 487.026 249.26ZM514.038 246.409C514.038 245.432 513.667 244.677 512.925 244.143C512.196 243.596 510.913 243.127 509.077 242.737C507.254 242.346 505.802 241.877 504.722 241.331C503.654 240.784 502.86 240.133 502.339 239.377C501.831 238.622 501.577 237.724 501.577 236.682C501.577 234.95 502.306 233.486 503.765 232.288C505.236 231.09 507.111 230.491 509.39 230.491C511.785 230.491 513.725 231.109 515.21 232.346C516.707 233.583 517.456 235.165 517.456 237.092L513.823 237.092C513.823 236.103 513.4 235.25 512.554 234.534C511.72 233.818 510.666 233.46 509.39 233.46C508.074 233.46 507.046 233.746 506.304 234.319C505.561 234.892 505.19 235.641 505.19 236.565C505.19 237.437 505.535 238.095 506.225 238.538C506.916 238.98 508.159 239.404 509.956 239.807C511.766 240.211 513.231 240.693 514.35 241.252C515.47 241.812 516.297 242.489 516.831 243.284C517.378 244.065 517.651 245.022 517.651 246.155C517.651 248.043 516.896 249.56 515.386 250.706C513.875 251.838 511.916 252.405 509.507 252.405C507.814 252.405 506.317 252.105 505.015 251.506C503.712 250.907 502.69 250.074 501.948 249.006C501.219 247.926 500.854 246.76 500.854 245.51L504.468 245.51C504.533 246.721 505.015 247.685 505.913 248.401C506.824 249.104 508.022 249.456 509.507 249.456C510.874 249.456 511.968 249.182 512.788 248.635C513.621 248.075 514.038 247.333 514.038 246.409ZM531.128 252.405C528.263 252.405 525.932 251.467 524.136 249.592C522.339 247.704 521.44 245.185 521.44 242.034L521.44 241.37C521.44 239.273 521.837 237.405 522.632 235.764C523.439 234.111 524.559 232.821 525.991 231.897C527.436 230.96 528.999 230.491 530.679 230.491C533.426 230.491 535.561 231.396 537.085 233.206C538.608 235.016 539.37 237.607 539.37 240.979L539.37 242.483L525.054 242.483C525.106 244.566 525.711 246.252 526.87 247.542C528.042 248.818 529.526 249.456 531.323 249.456C532.599 249.456 533.68 249.195 534.565 248.674C535.451 248.154 536.225 247.463 536.89 246.604L539.097 248.323C537.326 251.044 534.669 252.405 531.128 252.405ZM530.679 233.46C529.22 233.46 527.996 233.993 527.007 235.061C526.017 236.116 525.405 237.6 525.171 239.514L535.757 239.514L535.757 239.241C535.653 237.405 535.158 235.986 534.272 234.983C533.387 233.967 532.189 233.46 530.679 233.46ZM574.975 242.991C574.624 245.999 573.511 248.323 571.636 249.963C569.774 251.591 567.293 252.405 564.194 252.405C560.835 252.405 558.14 251.2 556.108 248.792C554.09 246.383 553.081 243.16 553.081 239.124L553.081 236.389C553.081 233.746 553.55 231.422 554.487 229.417C555.438 227.411 556.779 225.875 558.511 224.807C560.242 223.726 562.248 223.186 564.526 223.186C567.547 223.186 569.969 224.032 571.792 225.725C573.615 227.405 574.676 229.736 574.975 232.717L571.206 232.717C570.88 230.452 570.171 228.811 569.077 227.795C567.996 226.78 566.479 226.272 564.526 226.272C562.13 226.272 560.249 227.157 558.882 228.928C557.528 230.699 556.85 233.219 556.85 236.487L556.85 239.241C556.85 242.327 557.495 244.781 558.784 246.604C560.073 248.427 561.877 249.338 564.194 249.338C566.278 249.338 567.873 248.87 568.979 247.932C570.099 246.982 570.841 245.335 571.206 242.991L574.975 242.991ZM578.589 241.252C578.589 239.182 578.992 237.32 579.8 235.667C580.62 234.013 581.753 232.737 583.198 231.838C584.656 230.94 586.317 230.491 588.179 230.491C591.056 230.491 593.38 231.487 595.151 233.479C596.935 235.471 597.827 238.121 597.827 241.428L597.827 241.682C597.827 243.739 597.43 245.588 596.636 247.229C595.854 248.857 594.728 250.126 593.257 251.038C591.798 251.949 590.119 252.405 588.218 252.405C585.353 252.405 583.029 251.409 581.245 249.417C579.474 247.424 578.589 244.788 578.589 241.506L578.589 241.252ZM582.222 241.682C582.222 244.026 582.762 245.907 583.843 247.327C584.936 248.746 586.395 249.456 588.218 249.456C590.054 249.456 591.512 248.739 592.593 247.307C593.673 245.862 594.214 243.844 594.214 241.252C594.214 238.935 593.66 237.06 592.554 235.627C591.46 234.182 590.002 233.46 588.179 233.46C586.395 233.46 584.956 234.169 583.862 235.588C582.768 237.008 582.222 239.039 582.222 241.682ZM605.776 230.881L605.893 233.538C607.508 231.506 609.617 230.491 612.222 230.491C616.688 230.491 618.94 233.01 618.979 238.049L618.979 252.014L615.366 252.014L615.366 238.03C615.353 236.506 615.002 235.38 614.311 234.651C613.634 233.922 612.573 233.557 611.128 233.557C609.956 233.557 608.927 233.87 608.042 234.495C607.156 235.12 606.466 235.94 605.972 236.956L605.972 252.014L602.358 252.014L602.358 230.881L605.776 230.881ZM627.847 230.881L627.964 233.538C629.578 231.506 631.688 230.491 634.292 230.491C638.758 230.491 641.011 233.01 641.05 238.049L641.05 252.014L637.436 252.014L637.436 238.03C637.423 236.506 637.072 235.38 636.382 234.651C635.705 233.922 634.643 233.557 633.198 233.557C632.026 233.557 630.998 233.87 630.112 234.495C629.227 235.12 628.537 235.94 628.042 236.956L628.042 252.014L624.429 252.014L624.429 230.881L627.847 230.881ZM655.268 252.405C652.404 252.405 650.073 251.467 648.276 249.592C646.479 247.704 645.581 245.185 645.581 242.034L645.581 241.37C645.581 239.273 645.978 237.405 646.772 235.764C647.58 234.111 648.699 232.821 650.132 231.897C651.577 230.96 653.14 230.491 654.819 230.491C657.567 230.491 659.702 231.396 661.225 233.206C662.749 235.016 663.511 237.607 663.511 240.979L663.511 242.483L649.194 242.483C649.246 244.566 649.852 246.252 651.011 247.542C652.182 248.818 653.667 249.456 655.464 249.456C656.74 249.456 657.821 249.195 658.706 248.674C659.591 248.154 660.366 247.463 661.03 246.604L663.237 248.323C661.466 251.044 658.81 252.405 655.268 252.405ZM654.819 233.46C653.361 233.46 652.137 233.993 651.147 235.061C650.158 236.116 649.546 237.6 649.311 239.514L659.897 239.514L659.897 239.241C659.793 237.405 659.298 235.986 658.413 234.983C657.528 233.967 656.33 233.46 654.819 233.46ZM676.186 249.456C677.475 249.456 678.602 249.065 679.565 248.284C680.529 247.502 681.063 246.526 681.167 245.354L684.585 245.354C684.52 246.565 684.103 247.717 683.335 248.811C682.567 249.905 681.538 250.777 680.249 251.428C678.973 252.079 677.619 252.405 676.186 252.405C673.309 252.405 671.017 251.448 669.311 249.534C667.619 247.607 666.772 244.976 666.772 241.643L666.772 241.038C666.772 238.98 667.15 237.151 667.905 235.549C668.66 233.948 669.741 232.704 671.147 231.819C672.567 230.933 674.24 230.491 676.167 230.491C678.537 230.491 680.503 231.2 682.065 232.62C683.641 234.039 684.481 235.881 684.585 238.147L681.167 238.147C681.063 236.78 680.542 235.66 679.604 234.788C678.68 233.902 677.534 233.46 676.167 233.46C674.331 233.46 672.905 234.124 671.89 235.452C670.887 236.767 670.386 238.674 670.386 241.174L670.386 241.858C670.386 244.293 670.887 246.168 671.89 247.483C672.892 248.798 674.324 249.456 676.186 249.456ZM693.55 225.764L693.55 230.881L697.495 230.881L697.495 233.674L693.55 233.674L693.55 246.78C693.55 247.626 693.725 248.264 694.077 248.694C694.429 249.111 695.028 249.319 695.874 249.319C696.291 249.319 696.863 249.241 697.593 249.085L697.593 252.014C696.642 252.275 695.718 252.405 694.819 252.405C693.205 252.405 691.987 251.917 691.167 250.94C690.347 249.963 689.936 248.577 689.936 246.78L689.936 233.674L686.089 233.674L686.089 230.881L689.936 230.881L689.936 225.764L693.55 225.764ZM705.659 252.014L702.046 252.014L702.046 230.881L705.659 230.881L705.659 252.014ZM701.753 225.276C701.753 224.69 701.929 224.195 702.28 223.792C702.645 223.388 703.179 223.186 703.882 223.186C704.585 223.186 705.119 223.388 705.483 223.792C705.848 224.195 706.03 224.69 706.03 225.276C706.03 225.862 705.848 226.35 705.483 226.741C705.119 227.131 704.585 227.327 703.882 227.327C703.179 227.327 702.645 227.131 702.28 226.741C701.929 226.35 701.753 225.862 701.753 225.276ZM718.432 247.112L723.667 230.881L727.358 230.881L719.78 252.014L717.026 252.014L709.37 230.881L713.061 230.881L718.432 247.112ZM734.761 252.014L731.147 252.014L731.147 230.881L734.761 230.881L734.761 252.014ZM730.854 225.276C730.854 224.69 731.03 224.195 731.382 223.792C731.746 223.388 732.28 223.186 732.983 223.186C733.686 223.186 734.22 223.388 734.585 223.792C734.949 224.195 735.132 224.69 735.132 225.276C735.132 225.862 734.949 226.35 734.585 226.741C734.22 227.131 733.686 227.327 732.983 227.327C732.28 227.327 731.746 227.131 731.382 226.741C731.03 226.35 730.854 225.862 730.854 225.276ZM745.464 225.764L745.464 230.881L749.409 230.881L749.409 233.674L745.464 233.674L745.464 246.78C745.464 247.626 745.64 248.264 745.991 248.694C746.343 249.111 746.942 249.319 747.788 249.319C748.205 249.319 748.778 249.241 749.507 249.085L749.507 252.014C748.556 252.275 747.632 252.405 746.733 252.405C745.119 252.405 743.901 251.917 743.081 250.94C742.261 249.963 741.85 248.577 741.85 246.78L741.85 233.674L738.003 233.674L738.003 230.881L741.85 230.881L741.85 225.764L745.464 225.764ZM760.561 246.721L765.483 230.881L769.35 230.881L760.854 255.276C759.539 258.792 757.449 260.549 754.585 260.549L753.901 260.491L752.554 260.237L752.554 257.307L753.53 257.385C754.754 257.385 755.705 257.138 756.382 256.643C757.072 256.148 757.638 255.243 758.081 253.928L758.882 251.78L751.343 230.881L755.288 230.881L760.561 246.721Z" fill="white"/>
<defs>
<filter id="filter0_d" x="0.715332" y="1.01441" width="939.116" height="284.772" filterUnits="userSpaceOnUse" color-interpolation-filters="sRGB">
<feFlood flood-opacity="0" result="BackgroundImageFix"/>
<feColorMatrix in="SourceAlpha" type="matrix" values="0 0 0 0 0 0 0 0 0 0 0 0 0 0 0 0 0 0 127 0"/>
<feOffset dy="4"/>
<feGaussianBlur stdDeviation="2"/>
<feColorMatrix type="matrix" values="0 0 0 0 0 0 0 0 0 0 0 0 0 0 0 0 0 0 0.25 0"/>
<feBlend mode="normal" in2="BackgroundImageFix" result="effect1_dropShadow"/>
<feBlend mode="normal" in="SourceGraphic" in2="effect1_dropShadow" result="shape"/>
</filter>
</defs>
</svg>
