<svg width="940" height="482" viewBox="0 0 940 482" fill="none" xmlns="http://www.w3.org/2000/svg">
<rect x="4.35046" y="15.0141" width="928" height="460" fill="#73818C"/>
<g filter="url(#filter0_d)">
<path d="M933.865 277.786L895.413 241.476C856.958 205.503 780.058 132.376 702.922 91.5642C625.79 50.2465 548.422 41.2448 470.798 67.4278C393.17 94.1171 315.286 155.991 237.593 191.709C159.899 227.426 82.4088 235.3 43.6592 239.827L4.9121 244.017L6.68251 1.01441L45.3971 1.29647C84.1116 1.57852 161.541 2.14264 238.97 2.70675C316.399 3.27087 393.828 3.83498 471.257 4.39909C548.686 4.96321 626.115 5.52732 703.544 6.09144C780.974 6.65555 858.403 7.21966 897.117 7.50172L935.832 7.78378L933.865 277.786Z" fill="#5B73EA"/>
</g>
<path d="M312.378 193.881L312.378 205.014L308.628 205.014L308.628 176.577L319.116 176.577C322.228 176.577 324.663 177.371 326.421 178.96C328.192 180.548 329.077 182.651 329.077 185.268C329.077 188.029 328.211 190.157 326.479 191.655C324.761 193.139 322.293 193.881 319.077 193.881L312.378 193.881ZM312.378 190.815L319.116 190.815C321.121 190.815 322.658 190.346 323.725 189.409C324.793 188.458 325.327 187.091 325.327 185.307C325.327 183.614 324.793 182.26 323.725 181.245C322.658 180.229 321.193 179.702 319.331 179.663L312.378 179.663L312.378 190.815ZM343.511 187.124C342.964 187.032 342.371 186.987 341.733 186.987C339.363 186.987 337.755 187.996 336.909 190.014L336.909 205.014L333.296 205.014L333.296 183.881L336.811 183.881L336.87 186.323C338.055 184.435 339.735 183.491 341.909 183.491C342.612 183.491 343.146 183.582 343.511 183.764L343.511 187.124ZM345.503 194.252C345.503 192.182 345.906 190.32 346.714 188.667C347.534 187.013 348.667 185.737 350.112 184.838C351.571 183.94 353.231 183.491 355.093 183.491C357.97 183.491 360.294 184.487 362.065 186.479C363.849 188.471 364.741 191.121 364.741 194.428L364.741 194.682C364.741 196.739 364.344 198.588 363.55 200.229C362.768 201.857 361.642 203.126 360.171 204.038C358.712 204.949 357.033 205.405 355.132 205.405C352.267 205.405 349.943 204.409 348.159 202.417C346.388 200.424 345.503 197.788 345.503 194.506L345.503 194.252ZM349.136 194.682C349.136 197.026 349.676 198.907 350.757 200.327C351.85 201.746 353.309 202.456 355.132 202.456C356.968 202.456 358.426 201.739 359.507 200.307C360.587 198.862 361.128 196.844 361.128 194.252C361.128 191.935 360.574 190.06 359.468 188.627C358.374 187.182 356.916 186.46 355.093 186.46C353.309 186.46 351.87 187.169 350.776 188.588C349.682 190.008 349.136 192.039 349.136 194.682ZM370.483 205.014L370.483 186.674L367.143 186.674L367.143 183.881L370.483 183.881L370.483 182.085C370.483 179.728 371.154 177.892 372.495 176.577C373.849 175.262 375.757 174.604 378.218 174.604C379.676 174.604 381.518 175.001 383.745 175.795L383.14 178.842C381.512 178.191 379.962 177.866 378.491 177.866C376.942 177.866 375.822 178.217 375.132 178.92C374.455 179.611 374.116 180.652 374.116 182.045L374.116 183.881L378.432 183.881L378.432 186.674L374.116 186.674L374.116 205.014L370.483 205.014ZM385.542 205.014L381.909 205.014L381.909 183.881L385.542 183.881L385.542 205.014ZM395.347 205.014L391.733 205.014L391.733 175.014L395.347 175.014L395.347 205.014ZM409.917 205.405C407.052 205.405 404.722 204.467 402.925 202.592C401.128 200.704 400.229 198.185 400.229 195.034L400.229 194.37C400.229 192.273 400.627 190.405 401.421 188.764C402.228 187.111 403.348 185.821 404.78 184.897C406.225 183.96 407.788 183.491 409.468 183.491C412.215 183.491 414.35 184.396 415.874 186.206C417.397 188.016 418.159 190.607 418.159 193.979L418.159 195.483L403.843 195.483C403.895 197.566 404.5 199.252 405.659 200.542C406.831 201.818 408.315 202.456 410.112 202.456C411.388 202.456 412.469 202.195 413.354 201.674C414.24 201.154 415.015 200.463 415.679 199.604L417.886 201.323C416.115 204.044 413.459 205.405 409.917 205.405ZM409.468 186.46C408.009 186.46 406.785 186.993 405.796 188.061C404.806 189.116 404.194 190.6 403.96 192.514L414.546 192.514L414.546 192.241C414.442 190.405 413.947 188.986 413.061 187.983C412.176 186.967 410.978 186.46 409.468 186.46ZM434.057 205.014L434.057 186.674L430.718 186.674L430.718 183.881L434.057 183.881L434.057 181.713C434.057 179.448 434.663 177.696 435.874 176.46C437.085 175.223 438.797 174.604 441.011 174.604C441.844 174.604 442.671 174.715 443.491 174.936L443.296 177.866C442.684 177.749 442.033 177.69 441.343 177.69C440.171 177.69 439.266 178.035 438.628 178.725C437.99 179.402 437.671 180.379 437.671 181.655L437.671 183.881L442.182 183.881L442.182 186.674L437.671 186.674L437.671 205.014L434.057 205.014ZM445.229 194.252C445.229 192.182 445.633 190.32 446.44 188.667C447.261 187.013 448.393 185.737 449.839 184.838C451.297 183.94 452.957 183.491 454.819 183.491C457.697 183.491 460.021 184.487 461.792 186.479C463.576 188.471 464.468 191.121 464.468 194.428L464.468 194.682C464.468 196.739 464.071 198.588 463.276 200.229C462.495 201.857 461.369 203.126 459.897 204.038C458.439 204.949 456.759 205.405 454.858 205.405C451.994 205.405 449.669 204.409 447.886 202.417C446.115 200.424 445.229 197.788 445.229 194.506L445.229 194.252ZM448.862 194.682C448.862 197.026 449.403 198.907 450.483 200.327C451.577 201.746 453.035 202.456 454.858 202.456C456.694 202.456 458.153 201.739 459.233 200.307C460.314 198.862 460.854 196.844 460.854 194.252C460.854 191.935 460.301 190.06 459.194 188.627C458.1 187.182 456.642 186.46 454.819 186.46C453.035 186.46 451.597 187.169 450.503 188.588C449.409 190.008 448.862 192.039 448.862 194.682ZM479.214 187.124C478.667 187.032 478.074 186.987 477.436 186.987C475.067 186.987 473.459 187.996 472.612 190.014L472.612 205.014L468.999 205.014L468.999 183.881L472.515 183.881L472.573 186.323C473.758 184.435 475.438 183.491 477.612 183.491C478.315 183.491 478.849 183.582 479.214 183.764L479.214 187.124ZM499.175 196.049L499.722 199.799L500.522 196.42L506.147 176.577L509.311 176.577L514.8 196.42L515.581 199.858L516.186 196.03L520.6 176.577L524.37 176.577L517.475 205.014L514.057 205.014L508.198 184.292L507.749 182.124L507.3 184.292L501.225 205.014L497.807 205.014L490.932 176.577L494.682 176.577L499.175 196.049ZM526.401 194.252C526.401 192.182 526.805 190.32 527.612 188.667C528.432 187.013 529.565 185.737 531.011 184.838C532.469 183.94 534.129 183.491 535.991 183.491C538.869 183.491 541.193 184.487 542.964 186.479C544.748 188.471 545.64 191.121 545.64 194.428L545.64 194.682C545.64 196.739 545.242 198.588 544.448 200.229C543.667 201.857 542.541 203.126 541.069 204.038C539.611 204.949 537.931 205.405 536.03 205.405C533.166 205.405 530.841 204.409 529.057 202.417C527.287 200.424 526.401 197.788 526.401 194.506L526.401 194.252ZM530.034 194.682C530.034 197.026 530.574 198.907 531.655 200.327C532.749 201.746 534.207 202.456 536.03 202.456C537.866 202.456 539.324 201.739 540.405 200.307C541.486 198.862 542.026 196.844 542.026 194.252C542.026 191.935 541.473 190.06 540.366 188.627C539.272 187.182 537.814 186.46 535.991 186.46C534.207 186.46 532.768 187.169 531.675 188.588C530.581 190.008 530.034 192.039 530.034 194.682ZM553.589 183.881L553.706 186.538C555.321 184.506 557.43 183.491 560.034 183.491C564.5 183.491 566.753 186.01 566.792 191.049L566.792 205.014L563.179 205.014L563.179 191.03C563.166 189.506 562.814 188.38 562.124 187.651C561.447 186.922 560.386 186.557 558.94 186.557C557.768 186.557 556.74 186.87 555.854 187.495C554.969 188.12 554.279 188.94 553.784 189.956L553.784 205.014L550.171 205.014L550.171 183.881L553.589 183.881ZM571.362 194.272C571.362 191.03 572.13 188.426 573.667 186.46C575.203 184.48 577.215 183.491 579.702 183.491C582.176 183.491 584.136 184.337 585.581 186.03L585.581 175.014L589.194 175.014L589.194 205.014L585.874 205.014L585.698 202.749C584.253 204.519 582.241 205.405 579.663 205.405C577.215 205.405 575.216 204.402 573.667 202.397C572.13 200.392 571.362 197.775 571.362 194.545L571.362 194.272ZM574.975 194.682C574.975 197.078 575.47 198.953 576.46 200.307C577.449 201.661 578.817 202.338 580.561 202.338C582.853 202.338 584.526 201.31 585.581 199.252L585.581 189.545C584.5 187.553 582.84 186.557 580.6 186.557C578.83 186.557 577.449 187.241 576.46 188.608C575.47 189.975 574.975 192 574.975 194.682ZM603.589 205.405C600.724 205.405 598.393 204.467 596.597 202.592C594.8 200.704 593.901 198.185 593.901 195.034L593.901 194.37C593.901 192.273 594.298 190.405 595.093 188.764C595.9 187.111 597.02 185.821 598.452 184.897C599.897 183.96 601.46 183.491 603.14 183.491C605.887 183.491 608.022 184.396 609.546 186.206C611.069 188.016 611.831 190.607 611.831 193.979L611.831 195.483L597.515 195.483C597.567 197.566 598.172 199.252 599.331 200.542C600.503 201.818 601.987 202.456 603.784 202.456C605.06 202.456 606.141 202.195 607.026 201.674C607.912 201.154 608.686 200.463 609.35 199.604L611.557 201.323C609.787 204.044 607.13 205.405 603.589 205.405ZM603.14 186.46C601.681 186.46 600.457 186.993 599.468 188.061C598.478 189.116 597.866 190.6 597.632 192.514L608.218 192.514L608.218 192.241C608.113 190.405 607.619 188.986 606.733 187.983C605.848 186.967 604.65 186.46 603.14 186.46ZM626.245 187.124C625.698 187.032 625.106 186.987 624.468 186.987C622.098 186.987 620.49 187.996 619.643 190.014L619.643 205.014L616.03 205.014L616.03 183.881L619.546 183.881L619.604 186.323C620.789 184.435 622.469 183.491 624.643 183.491C625.347 183.491 625.88 183.582 626.245 183.764L626.245 187.124ZM646.206 196.049L646.753 199.799L647.554 196.42L653.179 176.577L656.343 176.577L661.831 196.42L662.612 199.858L663.218 196.03L667.632 176.577L671.401 176.577L664.507 205.014L661.089 205.014L655.229 184.292L654.78 182.124L654.331 184.292L648.257 205.014L644.839 205.014L637.964 176.577L641.714 176.577L646.206 196.049ZM673.432 194.252C673.432 192.182 673.836 190.32 674.643 188.667C675.464 187.013 676.597 185.737 678.042 184.838C679.5 183.94 681.16 183.491 683.022 183.491C685.9 183.491 688.224 184.487 689.995 186.479C691.779 188.471 692.671 191.121 692.671 194.428L692.671 194.682C692.671 196.739 692.274 198.588 691.479 200.229C690.698 201.857 689.572 203.126 688.1 204.038C686.642 204.949 684.962 205.405 683.061 205.405C680.197 205.405 677.873 204.409 676.089 202.417C674.318 200.424 673.432 197.788 673.432 194.506L673.432 194.252ZM677.065 194.682C677.065 197.026 677.606 198.907 678.686 200.327C679.78 201.746 681.238 202.456 683.061 202.456C684.897 202.456 686.356 201.739 687.436 200.307C688.517 198.862 689.057 196.844 689.057 194.252C689.057 191.935 688.504 190.06 687.397 188.627C686.304 187.182 684.845 186.46 683.022 186.46C681.238 186.46 679.8 187.169 678.706 188.588C677.612 190.008 677.065 192.039 677.065 194.682ZM700.6 183.881L700.698 186.225C702.248 184.402 704.337 183.491 706.968 183.491C709.923 183.491 711.935 184.624 713.003 186.889C713.706 185.874 714.617 185.053 715.737 184.428C716.87 183.803 718.205 183.491 719.741 183.491C724.377 183.491 726.733 185.945 726.811 190.854L726.811 205.014L723.198 205.014L723.198 191.069C723.198 189.558 722.853 188.432 722.163 187.69C721.473 186.935 720.314 186.557 718.686 186.557C717.345 186.557 716.232 186.961 715.347 187.768C714.461 188.562 713.947 189.637 713.804 190.991L713.804 205.014L710.171 205.014L710.171 191.167C710.171 188.094 708.667 186.557 705.659 186.557C703.289 186.557 701.668 187.566 700.796 189.585L700.796 205.014L697.182 205.014L697.182 183.881L700.6 183.881ZM745.327 205.014C745.119 204.598 744.949 203.855 744.819 202.788C743.14 204.532 741.134 205.405 738.804 205.405C736.72 205.405 735.008 204.819 733.667 203.647C732.339 202.462 731.675 200.965 731.675 199.155C731.675 196.954 732.508 195.249 734.175 194.038C735.854 192.814 738.211 192.202 741.245 192.202L744.761 192.202L744.761 190.542C744.761 189.279 744.383 188.276 743.628 187.534C742.873 186.779 741.759 186.401 740.288 186.401C738.999 186.401 737.918 186.726 737.046 187.377C736.173 188.029 735.737 188.816 735.737 189.741L732.104 189.741C732.104 188.686 732.475 187.67 733.218 186.694C733.973 185.704 734.988 184.923 736.265 184.35C737.554 183.777 738.966 183.491 740.503 183.491C742.938 183.491 744.845 184.103 746.225 185.327C747.606 186.538 748.322 188.211 748.374 190.346L748.374 200.073C748.374 202.013 748.621 203.556 749.116 204.702L749.116 205.014L745.327 205.014ZM739.331 202.26C740.464 202.26 741.538 201.967 742.554 201.381C743.569 200.795 744.305 200.034 744.761 199.096L744.761 194.76L741.929 194.76C737.502 194.76 735.288 196.056 735.288 198.647C735.288 199.78 735.666 200.665 736.421 201.303C737.176 201.941 738.146 202.26 739.331 202.26ZM757.456 183.881L757.573 186.538C759.188 184.506 761.297 183.491 763.901 183.491C768.367 183.491 770.62 186.01 770.659 191.049L770.659 205.014L767.046 205.014L767.046 191.03C767.033 189.506 766.681 188.38 765.991 187.651C765.314 186.922 764.253 186.557 762.807 186.557C761.636 186.557 760.607 186.87 759.722 187.495C758.836 188.12 758.146 188.94 757.651 189.956L757.651 205.014L754.038 205.014L754.038 183.881L757.456 183.881ZM419.272 247.034L423.335 230.881L426.948 230.881L420.796 252.014L417.866 252.014L412.729 235.999L407.729 252.014L404.8 252.014L398.667 230.881L402.261 230.881L406.421 246.702L411.343 230.881L414.253 230.881L419.272 247.034ZM434.565 252.014L430.952 252.014L430.952 230.881L434.565 230.881L434.565 252.014ZM430.659 225.276C430.659 224.69 430.835 224.195 431.186 223.792C431.551 223.388 432.085 223.186 432.788 223.186C433.491 223.186 434.025 223.388 434.39 223.792C434.754 224.195 434.936 224.69 434.936 225.276C434.936 225.862 434.754 226.35 434.39 226.741C434.025 227.131 433.491 227.327 432.788 227.327C432.085 227.327 431.551 227.131 431.186 226.741C430.835 226.35 430.659 225.862 430.659 225.276ZM445.268 225.764L445.268 230.881L449.214 230.881L449.214 233.674L445.268 233.674L445.268 246.78C445.268 247.626 445.444 248.264 445.796 248.694C446.147 249.111 446.746 249.319 447.593 249.319C448.009 249.319 448.582 249.241 449.311 249.085L449.311 252.014C448.361 252.275 447.436 252.405 446.538 252.405C444.923 252.405 443.706 251.917 442.886 250.94C442.065 249.963 441.655 248.577 441.655 246.78L441.655 233.674L437.807 233.674L437.807 230.881L441.655 230.881L441.655 225.764L445.268 225.764ZM457.065 233.44C458.667 231.474 460.75 230.491 463.315 230.491C467.781 230.491 470.034 233.01 470.073 238.049L470.073 252.014L466.46 252.014L466.46 238.03C466.447 236.506 466.095 235.38 465.405 234.651C464.728 233.922 463.667 233.557 462.222 233.557C461.05 233.557 460.021 233.87 459.136 234.495C458.25 235.12 457.56 235.94 457.065 236.956L457.065 252.014L453.452 252.014L453.452 222.014L457.065 222.014L457.065 233.44ZM489.018 233.44C490.62 231.474 492.703 230.491 495.268 230.491C499.735 230.491 501.987 233.01 502.026 238.049L502.026 252.014L498.413 252.014L498.413 238.03C498.4 236.506 498.048 235.38 497.358 234.651C496.681 233.922 495.62 233.557 494.175 233.557C493.003 233.557 491.974 233.87 491.089 234.495C490.203 235.12 489.513 235.94 489.018 236.956L489.018 252.014L485.405 252.014L485.405 222.014L489.018 222.014L489.018 233.44ZM512.339 225.764L512.339 230.881L516.284 230.881L516.284 233.674L512.339 233.674L512.339 246.78C512.339 247.626 512.515 248.264 512.866 248.694C513.218 249.111 513.817 249.319 514.663 249.319C515.08 249.319 515.653 249.241 516.382 249.085L516.382 252.014C515.431 252.275 514.507 252.405 513.608 252.405C511.994 252.405 510.776 251.917 509.956 250.94C509.136 249.963 508.725 248.577 508.725 246.78L508.725 233.674L504.878 233.674L504.878 230.881L508.725 230.881L508.725 225.764L512.339 225.764ZM523.921 230.881L524.018 233.225C525.568 231.402 527.658 230.491 530.288 230.491C533.244 230.491 535.255 231.624 536.323 233.889C537.026 232.874 537.938 232.053 539.057 231.428C540.19 230.803 541.525 230.491 543.061 230.491C547.697 230.491 550.054 232.945 550.132 237.854L550.132 252.014L546.518 252.014L546.518 238.069C546.518 236.558 546.173 235.432 545.483 234.69C544.793 233.935 543.634 233.557 542.007 233.557C540.666 233.557 539.552 233.961 538.667 234.768C537.781 235.562 537.267 236.637 537.124 237.991L537.124 252.014L533.491 252.014L533.491 238.167C533.491 235.094 531.987 233.557 528.979 233.557C526.61 233.557 524.988 234.566 524.116 236.585L524.116 252.014L520.503 252.014L520.503 230.881L523.921 230.881ZM559.526 252.014L555.913 252.014L555.913 222.014L559.526 222.014L559.526 252.014ZM574.487 244.377C574.487 243.01 574.865 241.754 575.62 240.608C576.388 239.462 577.847 238.127 579.995 236.604C578.732 235.068 577.886 233.831 577.456 232.893C577.026 231.956 576.811 231.025 576.811 230.1C576.811 227.939 577.449 226.246 578.725 225.022C580.002 223.798 581.733 223.186 583.921 223.186C585.874 223.186 587.488 223.759 588.765 224.905C590.041 226.038 590.679 227.47 590.679 229.202C590.679 230.348 590.386 231.409 589.8 232.385C589.227 233.349 588.218 234.364 586.772 235.432L584.682 236.975L591.011 244.534C591.896 242.841 592.339 240.96 592.339 238.889L595.6 238.889C595.6 242.21 594.8 244.963 593.198 247.151L597.261 252.014L592.925 252.014L591.03 249.768C590.067 250.627 588.934 251.285 587.632 251.741C586.343 252.183 585.028 252.405 583.686 252.405C580.913 252.405 578.686 251.669 577.007 250.198C575.327 248.726 574.487 246.786 574.487 244.377ZM583.686 249.456C585.6 249.456 587.352 248.726 588.94 247.268L582.007 238.967L581.362 239.436C579.188 241.038 578.1 242.685 578.1 244.377C578.1 245.914 578.595 247.144 579.585 248.069C580.587 248.993 581.955 249.456 583.686 249.456ZM580.425 229.983C580.425 231.233 581.193 232.795 582.729 234.67L585.034 233.049C585.919 232.424 586.525 231.832 586.85 231.272C587.176 230.699 587.339 230.009 587.339 229.202C587.339 228.329 587.013 227.607 586.362 227.034C585.711 226.448 584.891 226.155 583.901 226.155C582.834 226.155 581.987 226.519 581.362 227.249C580.737 227.965 580.425 228.876 580.425 229.983ZM631.538 242.991C631.186 245.999 630.073 248.323 628.198 249.963C626.336 251.591 623.856 252.405 620.757 252.405C617.397 252.405 614.702 251.2 612.671 248.792C610.653 246.383 609.643 243.16 609.643 239.124L609.643 236.389C609.643 233.746 610.112 231.422 611.05 229.417C612 227.411 613.341 225.875 615.073 224.807C616.805 223.726 618.81 223.186 621.089 223.186C624.11 223.186 626.531 224.032 628.354 225.725C630.177 227.405 631.238 229.736 631.538 232.717L627.768 232.717C627.443 230.452 626.733 228.811 625.64 227.795C624.559 226.78 623.042 226.272 621.089 226.272C618.693 226.272 616.811 227.157 615.444 228.928C614.09 230.699 613.413 233.219 613.413 236.487L613.413 239.241C613.413 242.327 614.057 244.781 615.347 246.604C616.636 248.427 618.439 249.338 620.757 249.338C622.84 249.338 624.435 248.87 625.542 247.932C626.662 246.982 627.404 245.335 627.768 242.991L631.538 242.991ZM645.054 239.338C641.837 238.414 639.494 237.281 638.022 235.94C636.564 234.586 635.835 232.919 635.835 230.94C635.835 228.7 636.727 226.851 638.511 225.393C640.307 223.922 642.638 223.186 645.503 223.186C647.456 223.186 649.194 223.564 650.718 224.319C652.254 225.074 653.439 226.116 654.272 227.444C655.119 228.772 655.542 230.224 655.542 231.799L651.772 231.799C651.772 230.081 651.225 228.733 650.132 227.756C649.038 226.767 647.495 226.272 645.503 226.272C643.654 226.272 642.209 226.682 641.167 227.502C640.138 228.31 639.624 229.436 639.624 230.881C639.624 232.04 640.112 233.023 641.089 233.831C642.078 234.625 643.752 235.354 646.108 236.018C648.478 236.682 650.327 237.418 651.655 238.225C652.996 239.019 653.986 239.95 654.624 241.018C655.275 242.086 655.6 243.342 655.6 244.788C655.6 247.092 654.702 248.941 652.905 250.335C651.108 251.715 648.706 252.405 645.698 252.405C643.745 252.405 641.922 252.034 640.229 251.292C638.537 250.536 637.228 249.508 636.304 248.206C635.392 246.904 634.936 245.426 634.936 243.772L638.706 243.772C638.706 245.491 639.337 246.851 640.6 247.854C641.877 248.844 643.576 249.338 645.698 249.338C647.677 249.338 649.194 248.935 650.249 248.127C651.304 247.32 651.831 246.22 651.831 244.827C651.831 243.433 651.343 242.359 650.366 241.604C649.39 240.836 647.619 240.081 645.054 239.338ZM668.804 239.338C665.587 238.414 663.244 237.281 661.772 235.94C660.314 234.586 659.585 232.919 659.585 230.94C659.585 228.7 660.477 226.851 662.261 225.393C664.057 223.922 666.388 223.186 669.253 223.186C671.206 223.186 672.944 223.564 674.468 224.319C676.004 225.074 677.189 226.116 678.022 227.444C678.869 228.772 679.292 230.224 679.292 231.799L675.522 231.799C675.522 230.081 674.975 228.733 673.882 227.756C672.788 226.767 671.245 226.272 669.253 226.272C667.404 226.272 665.959 226.682 664.917 227.502C663.888 228.31 663.374 229.436 663.374 230.881C663.374 232.04 663.862 233.023 664.839 233.831C665.828 234.625 667.502 235.354 669.858 236.018C672.228 236.682 674.077 237.418 675.405 238.225C676.746 239.019 677.736 239.95 678.374 241.018C679.025 242.086 679.35 243.342 679.35 244.788C679.35 247.092 678.452 248.941 676.655 250.335C674.858 251.715 672.456 252.405 669.448 252.405C667.495 252.405 665.672 252.034 663.979 251.292C662.287 250.536 660.978 249.508 660.054 248.206C659.142 246.904 658.686 245.426 658.686 243.772L662.456 243.772C662.456 245.491 663.087 246.851 664.35 247.854C665.627 248.844 667.326 249.338 669.448 249.338C671.427 249.338 672.944 248.935 673.999 248.127C675.054 247.32 675.581 246.22 675.581 244.827C675.581 243.433 675.093 242.359 674.116 241.604C673.14 240.836 671.369 240.081 668.804 239.338Z" fill="white"/>
<defs>
<filter id="filter0_d" x="0.715332" y="1.01441" width="939.116" height="284.772" filterUnits="userSpaceOnUse" color-interpolation-filters="sRGB">
<feFlood flood-opacity="0" result="BackgroundImageFix"/>
<feColorMatrix in="SourceAlpha" type="matrix" values="0 0 0 0 0 0 0 0 0 0 0 0 0 0 0 0 0 0 127 0"/>
<feOffset dy="4"/>
<feGaussianBlur stdDeviation="2"/>
<feColorMatrix type="matrix" values="0 0 0 0 0 0 0 0 0 0 0 0 0 0 0 0 0 0 0.25 0"/>
<feBlend mode="normal" in2="BackgroundImageFix" result="effect1_dropShadow"/>
<feBlend mode="normal" in="SourceGraphic" in2="effect1_dropShadow" result="shape"/>
</filter>
</defs>
</svg>
