<svg width="940" height="482" viewBox="0 0 940 482" fill="none" xmlns="http://www.w3.org/2000/svg">
<rect x="4.35046" y="15.0141" width="928" height="460" fill="#73818C"/>
<g filter="url(#filter0_d)">
<path d="M933.865 277.786L895.413 241.476C856.958 205.503 780.058 132.376 702.922 91.5642C625.79 50.2465 548.422 41.2448 470.798 67.4278C393.17 94.1171 315.286 155.991 237.593 191.709C159.899 227.426 82.4088 235.3 43.6592 239.827L4.9121 244.017L6.68251 1.01441L45.3971 1.29647C84.1116 1.57852 161.541 2.14264 238.97 2.70675C316.399 3.27087 393.828 3.83498 471.257 4.39909C548.686 4.96321 626.115 5.52732 703.544 6.09144C780.974 6.65555 858.403 7.21966 897.117 7.50172L935.832 7.78378L933.865 277.786Z" fill="#5B73EA"/>
</g>
<path d="M321.05 197.592L309.136 197.592L306.46 205.014L302.593 205.014L313.452 176.577L316.733 176.577L327.612 205.014L323.765 205.014L321.05 197.592ZM310.268 194.506L319.936 194.506L315.093 181.206L310.268 194.506ZM358.686 194.682C358.686 197.911 357.944 200.509 356.46 202.475C354.975 204.428 352.983 205.405 350.483 205.405C347.814 205.405 345.75 204.461 344.292 202.573L344.116 205.014L340.796 205.014L340.796 175.014L344.409 175.014L344.409 186.206C345.867 184.396 347.879 183.491 350.444 183.491C353.009 183.491 355.021 184.461 356.479 186.401C357.951 188.341 358.686 190.997 358.686 194.37L358.686 194.682ZM355.073 194.272C355.073 191.811 354.598 189.91 353.647 188.569C352.697 187.228 351.33 186.557 349.546 186.557C347.163 186.557 345.451 187.664 344.409 189.877L344.409 199.018C345.516 201.232 347.241 202.338 349.585 202.338C351.317 202.338 352.664 201.668 353.628 200.327C354.591 198.986 355.073 196.967 355.073 194.272ZM372.026 205.405C369.162 205.405 366.831 204.467 365.034 202.592C363.237 200.704 362.339 198.185 362.339 195.034L362.339 194.37C362.339 192.273 362.736 190.405 363.53 188.764C364.337 187.111 365.457 185.821 366.89 184.897C368.335 183.96 369.897 183.491 371.577 183.491C374.324 183.491 376.46 184.396 377.983 186.206C379.507 188.016 380.268 190.607 380.268 193.979L380.268 195.483L365.952 195.483C366.004 197.566 366.61 199.252 367.768 200.542C368.94 201.818 370.425 202.456 372.222 202.456C373.498 202.456 374.578 202.195 375.464 201.674C376.349 201.154 377.124 200.463 377.788 199.604L379.995 201.323C378.224 204.044 375.568 205.405 372.026 205.405ZM371.577 186.46C370.119 186.46 368.895 186.993 367.905 188.061C366.916 189.116 366.304 190.6 366.069 192.514L376.655 192.514L376.655 192.241C376.551 190.405 376.056 188.986 375.171 187.983C374.285 186.967 373.087 186.46 371.577 186.46ZM389.37 178.764L389.37 183.881L393.315 183.881L393.315 186.674L389.37 186.674L389.37 199.78C389.37 200.626 389.546 201.264 389.897 201.694C390.249 202.111 390.848 202.319 391.694 202.319C392.111 202.319 392.684 202.241 393.413 202.085L393.413 205.014C392.462 205.275 391.538 205.405 390.64 205.405C389.025 205.405 387.807 204.917 386.987 203.94C386.167 202.963 385.757 201.577 385.757 199.78L385.757 186.674L381.909 186.674L381.909 183.881L385.757 183.881L385.757 178.764L389.37 178.764ZM402.456 178.764L402.456 183.881L406.401 183.881L406.401 186.674L402.456 186.674L402.456 199.78C402.456 200.626 402.632 201.264 402.983 201.694C403.335 202.111 403.934 202.319 404.78 202.319C405.197 202.319 405.77 202.241 406.499 202.085L406.499 205.014C405.548 205.275 404.624 205.405 403.725 205.405C402.111 205.405 400.893 204.917 400.073 203.94C399.253 202.963 398.843 201.577 398.843 199.78L398.843 186.674L394.995 186.674L394.995 183.881L398.843 183.881L398.843 178.764L402.456 178.764ZM419.409 205.405C416.544 205.405 414.214 204.467 412.417 202.592C410.62 200.704 409.722 198.185 409.722 195.034L409.722 194.37C409.722 192.273 410.119 190.405 410.913 188.764C411.72 187.111 412.84 185.821 414.272 184.897C415.718 183.96 417.28 183.491 418.96 183.491C421.707 183.491 423.843 184.396 425.366 186.206C426.89 188.016 427.651 190.607 427.651 193.979L427.651 195.483L413.335 195.483C413.387 197.566 413.992 199.252 415.151 200.542C416.323 201.818 417.807 202.456 419.604 202.456C420.88 202.456 421.961 202.195 422.847 201.674C423.732 201.154 424.507 200.463 425.171 199.604L427.378 201.323C425.607 204.044 422.951 205.405 419.409 205.405ZM418.96 186.46C417.502 186.46 416.278 186.993 415.288 188.061C414.298 189.116 413.686 190.6 413.452 192.514L424.038 192.514L424.038 192.241C423.934 190.405 423.439 188.986 422.554 187.983C421.668 186.967 420.47 186.46 418.96 186.46ZM442.065 187.124C441.518 187.032 440.926 186.987 440.288 186.987C437.918 186.987 436.31 187.996 435.464 190.014L435.464 205.014L431.85 205.014L431.85 183.881L435.366 183.881L435.425 186.323C436.61 184.435 438.289 183.491 440.464 183.491C441.167 183.491 441.701 183.582 442.065 183.764L442.065 187.124ZM460.229 178.764L460.229 183.881L464.175 183.881L464.175 186.674L460.229 186.674L460.229 199.78C460.229 200.626 460.405 201.264 460.757 201.694C461.108 202.111 461.707 202.319 462.554 202.319C462.97 202.319 463.543 202.241 464.272 202.085L464.272 205.014C463.322 205.275 462.397 205.405 461.499 205.405C459.884 205.405 458.667 204.917 457.847 203.94C457.026 202.963 456.616 201.577 456.616 199.78L456.616 186.674L452.768 186.674L452.768 183.881L456.616 183.881L456.616 178.764L460.229 178.764ZM481.46 202.924C480.054 204.578 477.99 205.405 475.268 205.405C473.016 205.405 471.297 204.754 470.112 203.452C468.94 202.137 468.348 200.196 468.335 197.631L468.335 183.881L471.948 183.881L471.948 197.534C471.948 200.737 473.25 202.338 475.854 202.338C478.615 202.338 480.451 201.31 481.362 199.252L481.362 183.881L484.975 183.881L484.975 205.014L481.538 205.014L481.46 202.924ZM508.374 194.682C508.374 197.911 507.632 200.509 506.147 202.475C504.663 204.428 502.671 205.405 500.171 205.405C497.502 205.405 495.438 204.461 493.979 202.573L493.804 205.014L490.483 205.014L490.483 175.014L494.097 175.014L494.097 186.206C495.555 184.396 497.567 183.491 500.132 183.491C502.697 183.491 504.709 184.461 506.167 186.401C507.638 188.341 508.374 190.997 508.374 194.37L508.374 194.682ZM504.761 194.272C504.761 191.811 504.285 189.91 503.335 188.569C502.384 187.228 501.017 186.557 499.233 186.557C496.85 186.557 495.138 187.664 494.097 189.877L494.097 199.018C495.203 201.232 496.929 202.338 499.272 202.338C501.004 202.338 502.352 201.668 503.315 200.327C504.279 198.986 504.761 196.967 504.761 194.272ZM521.714 205.405C518.849 205.405 516.518 204.467 514.722 202.592C512.925 200.704 512.026 198.185 512.026 195.034L512.026 194.37C512.026 192.273 512.423 190.405 513.218 188.764C514.025 187.111 515.145 185.821 516.577 184.897C518.022 183.96 519.585 183.491 521.265 183.491C524.012 183.491 526.147 184.396 527.671 186.206C529.194 188.016 529.956 190.607 529.956 193.979L529.956 195.483L515.64 195.483C515.692 197.566 516.297 199.252 517.456 200.542C518.628 201.818 520.112 202.456 521.909 202.456C523.185 202.456 524.266 202.195 525.151 201.674C526.037 201.154 526.811 200.463 527.475 199.604L529.682 201.323C527.912 204.044 525.255 205.405 521.714 205.405ZM521.265 186.46C519.806 186.46 518.582 186.993 517.593 188.061C516.603 189.116 515.991 190.6 515.757 192.514L526.343 192.514L526.343 192.241C526.238 190.405 525.744 188.986 524.858 187.983C523.973 186.967 522.775 186.46 521.265 186.46ZM548.979 178.764L548.979 183.881L552.925 183.881L552.925 186.674L548.979 186.674L548.979 199.78C548.979 200.626 549.155 201.264 549.507 201.694C549.858 202.111 550.457 202.319 551.304 202.319C551.72 202.319 552.293 202.241 553.022 202.085L553.022 205.014C552.072 205.275 551.147 205.405 550.249 205.405C548.634 205.405 547.417 204.917 546.597 203.94C545.776 202.963 545.366 201.577 545.366 199.78L545.366 186.674L541.518 186.674L541.518 183.881L545.366 183.881L545.366 178.764L548.979 178.764ZM560.776 186.44C562.378 184.474 564.461 183.491 567.026 183.491C571.492 183.491 573.745 186.01 573.784 191.049L573.784 205.014L570.171 205.014L570.171 191.03C570.158 189.506 569.806 188.38 569.116 187.651C568.439 186.922 567.378 186.557 565.932 186.557C564.761 186.557 563.732 186.87 562.847 187.495C561.961 188.12 561.271 188.94 560.776 189.956L560.776 205.014L557.163 205.014L557.163 175.014L560.776 175.014L560.776 186.44ZM592.241 205.014C592.033 204.598 591.863 203.855 591.733 202.788C590.054 204.532 588.048 205.405 585.718 205.405C583.634 205.405 581.922 204.819 580.581 203.647C579.253 202.462 578.589 200.965 578.589 199.155C578.589 196.954 579.422 195.249 581.089 194.038C582.768 192.814 585.125 192.202 588.159 192.202L591.675 192.202L591.675 190.542C591.675 189.279 591.297 188.276 590.542 187.534C589.787 186.779 588.673 186.401 587.202 186.401C585.913 186.401 584.832 186.726 583.96 187.377C583.087 188.029 582.651 188.816 582.651 189.741L579.018 189.741C579.018 188.686 579.39 187.67 580.132 186.694C580.887 185.704 581.903 184.923 583.179 184.35C584.468 183.777 585.88 183.491 587.417 183.491C589.852 183.491 591.759 184.103 593.14 185.327C594.52 186.538 595.236 188.211 595.288 190.346L595.288 200.073C595.288 202.013 595.535 203.556 596.03 204.702L596.03 205.014L592.241 205.014ZM586.245 202.26C587.378 202.26 588.452 201.967 589.468 201.381C590.483 200.795 591.219 200.034 591.675 199.096L591.675 194.76L588.843 194.76C584.416 194.76 582.202 196.056 582.202 198.647C582.202 199.78 582.58 200.665 583.335 201.303C584.09 201.941 585.06 202.26 586.245 202.26ZM604.37 183.881L604.487 186.538C606.102 184.506 608.211 183.491 610.815 183.491C615.281 183.491 617.534 186.01 617.573 191.049L617.573 205.014L613.96 205.014L613.96 191.03C613.947 189.506 613.595 188.38 612.905 187.651C612.228 186.922 611.167 186.557 609.722 186.557C608.55 186.557 607.521 186.87 606.636 187.495C605.75 188.12 605.06 188.94 604.565 189.956L604.565 205.014L600.952 205.014L600.952 183.881L604.37 183.881ZM642.182 190.854L649.604 176.577L653.862 176.577L644.057 194.409L644.057 205.014L640.307 205.014L640.307 194.409L630.503 176.577L634.8 176.577L642.182 190.854ZM654.722 194.252C654.722 192.182 655.125 190.32 655.932 188.667C656.753 187.013 657.886 185.737 659.331 184.838C660.789 183.94 662.449 183.491 664.311 183.491C667.189 183.491 669.513 184.487 671.284 186.479C673.068 188.471 673.96 191.121 673.96 194.428L673.96 194.682C673.96 196.739 673.563 198.588 672.768 200.229C671.987 201.857 670.861 203.126 669.39 204.038C667.931 204.949 666.252 205.405 664.35 205.405C661.486 205.405 659.162 204.409 657.378 202.417C655.607 200.424 654.722 197.788 654.722 194.506L654.722 194.252ZM658.354 194.682C658.354 197.026 658.895 198.907 659.975 200.327C661.069 201.746 662.528 202.456 664.35 202.456C666.186 202.456 667.645 201.739 668.725 200.307C669.806 198.862 670.347 196.844 670.347 194.252C670.347 191.935 669.793 190.06 668.686 188.627C667.593 187.182 666.134 186.46 664.311 186.46C662.528 186.46 661.089 187.169 659.995 188.588C658.901 190.008 658.354 192.039 658.354 194.682ZM691.538 202.924C690.132 204.578 688.068 205.405 685.347 205.405C683.094 205.405 681.375 204.754 680.19 203.452C679.018 202.137 678.426 200.196 678.413 197.631L678.413 183.881L682.026 183.881L682.026 197.534C682.026 200.737 683.328 202.338 685.932 202.338C688.693 202.338 690.529 201.31 691.44 199.252L691.44 183.881L695.054 183.881L695.054 205.014L691.616 205.014L691.538 202.924ZM705.464 178.764L705.464 183.881L709.409 183.881L709.409 186.674L705.464 186.674L705.464 199.78C705.464 200.626 705.64 201.264 705.991 201.694C706.343 202.111 706.942 202.319 707.788 202.319C708.205 202.319 708.778 202.241 709.507 202.085L709.507 205.014C708.556 205.275 707.632 205.405 706.733 205.405C705.119 205.405 703.901 204.917 703.081 203.94C702.261 202.963 701.85 201.577 701.85 199.78L701.85 186.674L698.003 186.674L698.003 183.881L701.85 183.881L701.85 178.764L705.464 178.764ZM726.694 202.924C725.288 204.578 723.224 205.405 720.503 205.405C718.25 205.405 716.531 204.754 715.347 203.452C714.175 202.137 713.582 200.196 713.569 197.631L713.569 183.881L717.182 183.881L717.182 197.534C717.182 200.737 718.485 202.338 721.089 202.338C723.849 202.338 725.685 201.31 726.597 199.252L726.597 183.881L730.21 183.881L730.21 205.014L726.772 205.014L726.694 202.924ZM753.608 194.682C753.608 197.911 752.866 200.509 751.382 202.475C749.897 204.428 747.905 205.405 745.405 205.405C742.736 205.405 740.672 204.461 739.214 202.573L739.038 205.014L735.718 205.014L735.718 175.014L739.331 175.014L739.331 186.206C740.789 184.396 742.801 183.491 745.366 183.491C747.931 183.491 749.943 184.461 751.401 186.401C752.873 188.341 753.608 190.997 753.608 194.37L753.608 194.682ZM749.995 194.272C749.995 191.811 749.52 189.91 748.569 188.569C747.619 187.228 746.252 186.557 744.468 186.557C742.085 186.557 740.373 187.664 739.331 189.877L739.331 199.018C740.438 201.232 742.163 202.338 744.507 202.338C746.238 202.338 747.586 201.668 748.55 200.327C749.513 198.986 749.995 196.967 749.995 194.272ZM766.948 205.405C764.084 205.405 761.753 204.467 759.956 202.592C758.159 200.704 757.261 198.185 757.261 195.034L757.261 194.37C757.261 192.273 757.658 190.405 758.452 188.764C759.259 187.111 760.379 185.821 761.811 184.897C763.257 183.96 764.819 183.491 766.499 183.491C769.246 183.491 771.382 184.396 772.905 186.206C774.429 188.016 775.19 190.607 775.19 193.979L775.19 195.483L760.874 195.483C760.926 197.566 761.531 199.252 762.69 200.542C763.862 201.818 765.347 202.456 767.143 202.456C768.419 202.456 769.5 202.195 770.386 201.674C771.271 201.154 772.046 200.463 772.71 199.604L774.917 201.323C773.146 204.044 770.49 205.405 766.948 205.405ZM766.499 186.46C765.041 186.46 763.817 186.993 762.827 188.061C761.837 189.116 761.225 190.6 760.991 192.514L771.577 192.514L771.577 192.241C771.473 190.405 770.978 188.986 770.093 187.983C769.207 186.967 768.009 186.46 766.499 186.46ZM320.307 249.924C318.901 251.578 316.837 252.405 314.116 252.405C311.863 252.405 310.145 251.754 308.96 250.452C307.788 249.137 307.196 247.196 307.182 244.631L307.182 230.881L310.796 230.881L310.796 244.534C310.796 247.737 312.098 249.338 314.702 249.338C317.462 249.338 319.298 248.31 320.21 246.252L320.21 230.881L323.823 230.881L323.823 252.014L320.386 252.014L320.307 249.924ZM341.636 246.409C341.636 245.432 341.265 244.677 340.522 244.143C339.793 243.596 338.511 243.127 336.675 242.737C334.852 242.346 333.4 241.877 332.319 241.331C331.252 240.784 330.457 240.133 329.936 239.377C329.429 238.622 329.175 237.724 329.175 236.682C329.175 234.95 329.904 233.486 331.362 232.288C332.834 231.09 334.709 230.491 336.987 230.491C339.383 230.491 341.323 231.109 342.807 232.346C344.305 233.583 345.054 235.165 345.054 237.092L341.421 237.092C341.421 236.103 340.998 235.25 340.151 234.534C339.318 233.818 338.263 233.46 336.987 233.46C335.672 233.46 334.643 233.746 333.901 234.319C333.159 234.892 332.788 235.641 332.788 236.565C332.788 237.437 333.133 238.095 333.823 238.538C334.513 238.98 335.757 239.404 337.554 239.807C339.363 240.211 340.828 240.693 341.948 241.252C343.068 241.812 343.895 242.489 344.429 243.284C344.975 244.065 345.249 245.022 345.249 246.155C345.249 248.043 344.494 249.56 342.983 250.706C341.473 251.838 339.513 252.405 337.104 252.405C335.412 252.405 333.914 252.105 332.612 251.506C331.31 250.907 330.288 250.074 329.546 249.006C328.817 247.926 328.452 246.76 328.452 245.51L332.065 245.51C332.13 246.721 332.612 247.685 333.511 248.401C334.422 249.104 335.62 249.456 337.104 249.456C338.472 249.456 339.565 249.182 340.386 248.635C341.219 248.075 341.636 247.333 341.636 246.409ZM353.882 252.014L350.268 252.014L350.268 230.881L353.882 230.881L353.882 252.014ZM349.975 225.276C349.975 224.69 350.151 224.195 350.503 223.792C350.867 223.388 351.401 223.186 352.104 223.186C352.807 223.186 353.341 223.388 353.706 223.792C354.071 224.195 354.253 224.69 354.253 225.276C354.253 225.862 354.071 226.35 353.706 226.741C353.341 227.131 352.807 227.327 352.104 227.327C351.401 227.327 350.867 227.131 350.503 226.741C350.151 226.35 349.975 225.862 349.975 225.276ZM363.1 230.881L363.218 233.538C364.832 231.506 366.942 230.491 369.546 230.491C374.012 230.491 376.265 233.01 376.304 238.049L376.304 252.014L372.69 252.014L372.69 238.03C372.677 236.506 372.326 235.38 371.636 234.651C370.959 233.922 369.897 233.557 368.452 233.557C367.28 233.557 366.252 233.87 365.366 234.495C364.481 235.12 363.791 235.94 363.296 236.956L363.296 252.014L359.682 252.014L359.682 230.881L363.1 230.881ZM380.893 241.272C380.893 237.978 381.655 235.361 383.179 233.42C384.702 231.467 386.72 230.491 389.233 230.491C391.811 230.491 393.823 231.402 395.268 233.225L395.444 230.881L398.745 230.881L398.745 251.506C398.745 254.241 397.931 256.396 396.304 257.971C394.689 259.547 392.515 260.335 389.78 260.335C388.257 260.335 386.766 260.009 385.307 259.358C383.849 258.707 382.736 257.815 381.968 256.682L383.843 254.514C385.392 256.428 387.287 257.385 389.526 257.385C391.284 257.385 392.651 256.891 393.628 255.901C394.617 254.911 395.112 253.518 395.112 251.721L395.112 249.905C393.667 251.571 391.694 252.405 389.194 252.405C386.72 252.405 384.715 251.409 383.179 249.417C381.655 247.424 380.893 244.71 380.893 241.272ZM384.526 241.682C384.526 244.065 385.015 245.94 385.991 247.307C386.968 248.661 388.335 249.338 390.093 249.338C392.371 249.338 394.044 248.303 395.112 246.233L395.112 236.585C394.005 234.566 392.345 233.557 390.132 233.557C388.374 233.557 387 234.241 386.011 235.608C385.021 236.975 384.526 239 384.526 241.682ZM425.132 240.51L418.452 240.51L418.452 252.014L414.682 252.014L414.682 223.577L424.097 223.577C427.3 223.577 429.761 224.306 431.479 225.764C433.211 227.223 434.077 229.345 434.077 232.131C434.077 233.902 433.595 235.445 432.632 236.76C431.681 238.075 430.353 239.058 428.647 239.71L435.327 251.78L435.327 252.014L431.304 252.014L425.132 240.51ZM418.452 237.444L424.214 237.444C426.076 237.444 427.554 236.962 428.647 235.999C429.754 235.035 430.307 233.746 430.307 232.131C430.307 230.374 429.78 229.026 428.725 228.088C427.684 227.151 426.173 226.676 424.194 226.663L418.452 226.663L418.452 237.444ZM447.554 252.405C444.689 252.405 442.358 251.467 440.561 249.592C438.765 247.704 437.866 245.185 437.866 242.034L437.866 241.37C437.866 239.273 438.263 237.405 439.057 235.764C439.865 234.111 440.985 232.821 442.417 231.897C443.862 230.96 445.425 230.491 447.104 230.491C449.852 230.491 451.987 231.396 453.511 233.206C455.034 235.016 455.796 237.607 455.796 240.979L455.796 242.483L441.479 242.483C441.531 244.566 442.137 246.252 443.296 247.542C444.468 248.818 445.952 249.456 447.749 249.456C449.025 249.456 450.106 249.195 450.991 248.674C451.877 248.154 452.651 247.463 453.315 246.604L455.522 248.323C453.752 251.044 451.095 252.405 447.554 252.405ZM447.104 233.46C445.646 233.46 444.422 233.993 443.432 235.061C442.443 236.116 441.831 237.6 441.597 239.514L452.182 239.514L452.182 239.241C452.078 237.405 451.584 235.986 450.698 234.983C449.813 233.967 448.615 233.46 447.104 233.46ZM473.042 252.014C472.834 251.598 472.664 250.855 472.534 249.788C470.854 251.532 468.849 252.405 466.518 252.405C464.435 252.405 462.723 251.819 461.382 250.647C460.054 249.462 459.39 247.965 459.39 246.155C459.39 243.954 460.223 242.249 461.89 241.038C463.569 239.814 465.926 239.202 468.96 239.202L472.475 239.202L472.475 237.542C472.475 236.279 472.098 235.276 471.343 234.534C470.587 233.779 469.474 233.401 468.003 233.401C466.714 233.401 465.633 233.726 464.761 234.377C463.888 235.029 463.452 235.816 463.452 236.741L459.819 236.741C459.819 235.686 460.19 234.67 460.932 233.694C461.688 232.704 462.703 231.923 463.979 231.35C465.268 230.777 466.681 230.491 468.218 230.491C470.653 230.491 472.56 231.103 473.94 232.327C475.321 233.538 476.037 235.211 476.089 237.346L476.089 247.073C476.089 249.013 476.336 250.556 476.831 251.702L476.831 252.014L473.042 252.014ZM467.046 249.26C468.179 249.26 469.253 248.967 470.268 248.381C471.284 247.795 472.02 247.034 472.475 246.096L472.475 241.76L469.643 241.76C465.216 241.76 463.003 243.056 463.003 245.647C463.003 246.78 463.38 247.665 464.136 248.303C464.891 248.941 465.861 249.26 467.046 249.26ZM490.229 249.456C491.518 249.456 492.645 249.065 493.608 248.284C494.572 247.502 495.106 246.526 495.21 245.354L498.628 245.354C498.563 246.565 498.146 247.717 497.378 248.811C496.61 249.905 495.581 250.777 494.292 251.428C493.016 252.079 491.662 252.405 490.229 252.405C487.352 252.405 485.06 251.448 483.354 249.534C481.662 247.607 480.815 244.976 480.815 241.643L480.815 241.038C480.815 238.98 481.193 237.151 481.948 235.549C482.703 233.948 483.784 232.704 485.19 231.819C486.61 230.933 488.283 230.491 490.21 230.491C492.58 230.491 494.546 231.2 496.108 232.62C497.684 234.039 498.524 235.881 498.628 238.147L495.21 238.147C495.106 236.78 494.585 235.66 493.647 234.788C492.723 233.902 491.577 233.46 490.21 233.46C488.374 233.46 486.948 234.124 485.932 235.452C484.93 236.767 484.429 238.674 484.429 241.174L484.429 241.858C484.429 244.293 484.93 246.168 485.932 247.483C486.935 248.798 488.367 249.456 490.229 249.456ZM507.593 225.764L507.593 230.881L511.538 230.881L511.538 233.674L507.593 233.674L507.593 246.78C507.593 247.626 507.768 248.264 508.12 248.694C508.472 249.111 509.071 249.319 509.917 249.319C510.334 249.319 510.906 249.241 511.636 249.085L511.636 252.014C510.685 252.275 509.761 252.405 508.862 252.405C507.248 252.405 506.03 251.917 505.21 250.94C504.39 249.963 503.979 248.577 503.979 246.78L503.979 233.674L500.132 233.674L500.132 230.881L503.979 230.881L503.979 225.764L507.593 225.764ZM536.05 236.76L543.979 236.76L543.979 240.178L536.05 240.178L536.05 249.163L532.417 249.163L532.417 240.178L524.487 240.178L524.487 236.76L532.417 236.76L532.417 228.46L536.05 228.46L536.05 236.76ZM567.554 237.854L574.975 223.577L579.233 223.577L569.429 241.409L569.429 252.014L565.679 252.014L565.679 241.409L555.874 223.577L560.171 223.577L567.554 237.854ZM580.093 241.252C580.093 239.182 580.496 237.32 581.304 235.667C582.124 234.013 583.257 232.737 584.702 231.838C586.16 230.94 587.821 230.491 589.682 230.491C592.56 230.491 594.884 231.487 596.655 233.479C598.439 235.471 599.331 238.121 599.331 241.428L599.331 241.682C599.331 243.739 598.934 245.588 598.14 247.229C597.358 248.857 596.232 250.126 594.761 251.038C593.302 251.949 591.623 252.405 589.722 252.405C586.857 252.405 584.533 251.409 582.749 249.417C580.978 247.424 580.093 244.788 580.093 241.506L580.093 241.252ZM583.725 241.682C583.725 244.026 584.266 245.907 585.347 247.327C586.44 248.746 587.899 249.456 589.722 249.456C591.557 249.456 593.016 248.739 594.097 247.307C595.177 245.862 595.718 243.844 595.718 241.252C595.718 238.935 595.164 237.06 594.057 235.627C592.964 234.182 591.505 233.46 589.682 233.46C587.899 233.46 586.46 234.169 585.366 235.588C584.272 237.008 583.725 239.039 583.725 241.682ZM616.909 249.924C615.503 251.578 613.439 252.405 610.718 252.405C608.465 252.405 606.746 251.754 605.561 250.452C604.39 249.137 603.797 247.196 603.784 244.631L603.784 230.881L607.397 230.881L607.397 244.534C607.397 247.737 608.699 249.338 611.304 249.338C614.064 249.338 615.9 248.31 616.811 246.252L616.811 230.881L620.425 230.881L620.425 252.014L616.987 252.014L616.909 249.924ZM630.835 225.764L630.835 230.881L634.78 230.881L634.78 233.674L630.835 233.674L630.835 246.78C630.835 247.626 631.011 248.264 631.362 248.694C631.714 249.111 632.313 249.319 633.159 249.319C633.576 249.319 634.149 249.241 634.878 249.085L634.878 252.014C633.927 252.275 633.003 252.405 632.104 252.405C630.49 252.405 629.272 251.917 628.452 250.94C627.632 249.963 627.222 248.577 627.222 246.78L627.222 233.674L623.374 233.674L623.374 230.881L627.222 230.881L627.222 225.764L630.835 225.764ZM652.065 249.924C650.659 251.578 648.595 252.405 645.874 252.405C643.621 252.405 641.903 251.754 640.718 250.452C639.546 249.137 638.953 247.196 638.94 244.631L638.94 230.881L642.554 230.881L642.554 244.534C642.554 247.737 643.856 249.338 646.46 249.338C649.22 249.338 651.056 248.31 651.968 246.252L651.968 230.881L655.581 230.881L655.581 252.014L652.143 252.014L652.065 249.924ZM678.979 241.682C678.979 244.911 678.237 247.509 676.753 249.475C675.268 251.428 673.276 252.405 670.776 252.405C668.107 252.405 666.043 251.461 664.585 249.573L664.409 252.014L661.089 252.014L661.089 222.014L664.702 222.014L664.702 233.206C666.16 231.396 668.172 230.491 670.737 230.491C673.302 230.491 675.314 231.461 676.772 233.401C678.244 235.341 678.979 237.997 678.979 241.37L678.979 241.682ZM675.366 241.272C675.366 238.811 674.891 236.91 673.94 235.569C672.99 234.228 671.623 233.557 669.839 233.557C667.456 233.557 665.744 234.664 664.702 236.877L664.702 246.018C665.809 248.232 667.534 249.338 669.878 249.338C671.61 249.338 672.957 248.668 673.921 247.327C674.884 245.986 675.366 243.967 675.366 241.272ZM692.319 252.405C689.455 252.405 687.124 251.467 685.327 249.592C683.53 247.704 682.632 245.185 682.632 242.034L682.632 241.37C682.632 239.273 683.029 237.405 683.823 235.764C684.63 234.111 685.75 232.821 687.182 231.897C688.628 230.96 690.19 230.491 691.87 230.491C694.617 230.491 696.753 231.396 698.276 233.206C699.8 235.016 700.561 237.607 700.561 240.979L700.561 242.483L686.245 242.483C686.297 244.566 686.903 246.252 688.061 247.542C689.233 248.818 690.718 249.456 692.515 249.456C693.791 249.456 694.871 249.195 695.757 248.674C696.642 248.154 697.417 247.463 698.081 246.604L700.288 248.323C698.517 251.044 695.861 252.405 692.319 252.405ZM691.87 233.46C690.412 233.46 689.188 233.993 688.198 235.061C687.209 236.116 686.597 237.6 686.362 239.514L696.948 239.514L696.948 239.241C696.844 237.405 696.349 235.986 695.464 234.983C694.578 233.967 693.38 233.46 691.87 233.46ZM730.952 244.592L719.038 244.592L716.362 252.014L712.495 252.014L723.354 223.577L726.636 223.577L737.515 252.014L733.667 252.014L730.952 244.592ZM720.171 241.506L729.839 241.506L724.995 228.206L720.171 241.506ZM745.093 240.881L745.093 252.014L741.343 252.014L741.343 223.577L751.831 223.577C754.943 223.577 757.378 224.371 759.136 225.96C760.906 227.548 761.792 229.651 761.792 232.268C761.792 235.029 760.926 237.157 759.194 238.655C757.475 240.139 755.008 240.881 751.792 240.881L745.093 240.881ZM745.093 237.815L751.831 237.815C753.836 237.815 755.373 237.346 756.44 236.409C757.508 235.458 758.042 234.091 758.042 232.307C758.042 230.614 757.508 229.26 756.44 228.245C755.373 227.229 753.908 226.702 752.046 226.663L745.093 226.663L745.093 237.815ZM770.6 252.014L766.85 252.014L766.85 223.577L770.6 223.577L770.6 252.014Z" fill="white"/>
<defs>
<filter id="filter0_d" x="0.715332" y="1.01441" width="939.116" height="284.772" filterUnits="userSpaceOnUse" color-interpolation-filters="sRGB">
<feFlood flood-opacity="0" result="BackgroundImageFix"/>
<feColorMatrix in="SourceAlpha" type="matrix" values="0 0 0 0 0 0 0 0 0 0 0 0 0 0 0 0 0 0 127 0"/>
<feOffset dy="4"/>
<feGaussianBlur stdDeviation="2"/>
<feColorMatrix type="matrix" values="0 0 0 0 0 0 0 0 0 0 0 0 0 0 0 0 0 0 0.25 0"/>
<feBlend mode="normal" in2="BackgroundImageFix" result="effect1_dropShadow"/>
<feBlend mode="normal" in="SourceGraphic" in2="effect1_dropShadow" result="shape"/>
</filter>
</defs>
</svg>
